<?xml version="1.0" encoding="UTF-8" standalone="no"?>
<!DOCTYPE svg PUBLIC "-//W3C//DTD SVG 1.1//EN"
 "http://www.w3.org/Graphics/SVG/1.1/DTD/svg11.dtd">
<!-- Generated by graphviz version 2.43.0 (0)
 -->
<!-- Title: crewai.process.Process Pages: 1 -->
<svg width="132pt" height="157pt"
 viewBox="0.00 0.00 132.00 157.00" xmlns="http://www.w3.org/2000/svg" xmlns:xlink="http://www.w3.org/1999/xlink">
<g id="graph0" class="graph" transform="scale(1 1) rotate(0) translate(4 153)">
<title>crewai.process.Process</title>
<!-- Node1 -->
<g id="Node000001" class="node">
<title>Node1</title>
<g id="a_Node000001"><a xlink:title=" ">
<polygon fill="#999999" stroke="transparent" points="124,-64 0,-64 0,0 124,0 124,-64"/>
<text text-anchor="start" x="5" y="-52" font-family="Helvetica,sans-Serif" font-size="10.00">crewai.process.Process</text>
<text text-anchor="start" x="15" y="-37" font-family="Helvetica,sans-Serif" font-size="10.00">+</text>
<text text-anchor="start" x="39" y="-37" font-family="Helvetica,sans-Serif" font-size="10.00">sequential</text>
<text text-anchor="start" x="15" y="-22" font-family="Helvetica,sans-Serif" font-size="10.00">+</text>
<text text-anchor="start" x="39" y="-22" font-family="Helvetica,sans-Serif" font-size="10.00">hierarchical</text>
<text text-anchor="start" x="60" y="-7" font-family="Helvetica,sans-Serif" font-size="10.00"> </text>
<polygon fill="#666666" stroke="#666666" points="0,-47 0,-47 124,-47 124,-47 0,-47"/>
<polygon fill="#666666" stroke="#666666" points="0,-17 0,-17 37,-17 37,-17 0,-17"/>
<polygon fill="#666666" stroke="#666666" points="37,-17 37,-17 124,-17 124,-17 37,-17"/>
<polygon fill="none" stroke="#666666" points="0,0 0,-64 124,-64 124,0 0,0"/>
</a>
</g>
</g>
<!-- Node2 -->
<g id="Node000002" class="node">
<title>Node2</title>
<g id="a_Node000002"><a xlink:title=" ">
<polygon fill="white" stroke="transparent" points="49.5,-149 26.5,-149 26.5,-100 49.5,-100 49.5,-149"/>
<text text-anchor="start" x="32" y="-136.5" font-family="Helvetica,sans-Serif" font-size="10.00">str</text>
<text text-anchor="start" x="36.5" y="-121.5" font-family="Helvetica,sans-Serif" font-size="10.00"> </text>
<text text-anchor="start" x="36.5" y="-106.5" font-family="Helvetica,sans-Serif" font-size="10.00"> </text>
<polygon fill="#666666" stroke="#666666" points="27,-131.5 27,-131.5 50,-131.5 50,-131.5 27,-131.5"/>
<polygon fill="#666666" stroke="#666666" points="27,-116.5 27,-116.5 50,-116.5 50,-116.5 27,-116.5"/>
<polygon fill="none" stroke="#666666" points="26.5,-100 26.5,-149 49.5,-149 49.5,-100 26.5,-100"/>
</a>
</g>
</g>
<!-- Node2&#45;&gt;Node1 -->
<g id="edge3_Node000001_Node000002" class="edge">
<title>Node2&#45;&gt;Node1</title>
<g id="a_edge3_Node000001_Node000002"><a xlink:title=" ">
<path fill="none" stroke="#63b8ff" d="M46.93,-89.82C49.17,-81.4 51.55,-72.4 53.75,-64.11"/>
<polygon fill="none" stroke="#63b8ff" points="43.49,-89.16 44.31,-99.72 50.25,-90.95 43.49,-89.16"/>
</a>
</g>
</g>
<!-- Node3 -->
<g id="Node000003" class="node">
<title>Node3</title>
<g id="a_Node000003"><a xlink:title=" ">
<polygon fill="white" stroke="transparent" points="106,-149 68,-149 68,-100 106,-100 106,-149"/>
<text text-anchor="start" x="73" y="-136.5" font-family="Helvetica,sans-Serif" font-size="10.00">Enum</text>
<text text-anchor="start" x="85" y="-121.5" font-family="Helvetica,sans-Serif" font-size="10.00"> </text>
<text text-anchor="start" x="85" y="-106.5" font-family="Helvetica,sans-Serif" font-size="10.00"> </text>
<polygon fill="#666666" stroke="#666666" points="68,-131.5 68,-131.5 106,-131.5 106,-131.5 68,-131.5"/>
<polygon fill="#666666" stroke="#666666" points="68,-116.5 68,-116.5 106,-116.5 106,-116.5 68,-116.5"/>
<polygon fill="none" stroke="#666666" points="68,-100 68,-149 106,-149 106,-100 68,-100"/>
</a>
</g>
</g>
<!-- Node3&#45;&gt;Node1 -->
<g id="edge4_Node000001_Node000003" class="edge">
<title>Node3&#45;&gt;Node1</title>
<g id="a_edge4_Node000001_Node000003"><a xlink:title=" ">
<path fill="none" stroke="#63b8ff" d="M77.7,-89.82C75.37,-81.4 72.89,-72.4 70.59,-64.11"/>
<polygon fill="none" stroke="#63b8ff" points="74.4,-91.02 80.43,-99.72 81.14,-89.15 74.4,-91.02"/>
</a>
</g>
</g>
</g>
</svg>
