<?xml version="1.0" encoding="UTF-8" standalone="no"?>
<!DOCTYPE svg PUBLIC "-//W3C//DTD SVG 1.1//EN"
 "http://www.w3.org/Graphics/SVG/1.1/DTD/svg11.dtd">
<!-- Generated by graphviz version 2.43.0 (0)
 -->
<!-- Title: crewai.utilities.i18n.I18N.tools Pages: 1 -->
<svg width="354pt" height="161pt"
 viewBox="0.00 0.00 354.00 160.50" xmlns="http://www.w3.org/2000/svg" xmlns:xlink="http://www.w3.org/1999/xlink">
<g id="graph0" class="graph" transform="scale(1 1) rotate(0) translate(4 156.5)">
<title>crewai.utilities.i18n.I18N.tools</title>
<!-- Node1 -->
<g id="Node000001" class="node">
<title>Node1</title>
<g id="a_Node000001"><a xlink:title=" ">
<polygon fill="#999999" stroke="#666666" points="346,-82.5 215,-82.5 215,-52.5 346,-52.5 346,-82.5"/>
<text text-anchor="start" x="223" y="-70.5" font-family="Helvetica,sans-Serif" font-size="10.00">crewai.utilities.i18n.I18</text>
<text text-anchor="middle" x="280.5" y="-59.5" font-family="Helvetica,sans-Serif" font-size="10.00">N.tools</text>
</a>
</g>
</g>
<!-- Node2 -->
<g id="Node000002" class="node">
<title>Node2</title>
<g id="a_Node000002"><a xlink:href="$classcrewai_1_1agents_1_1executor_1_1CrewAgentExecutor.html#ad765e5bbd5cda481278475dbe55eda6d" xlink:title=" ">
<polygon fill="white" stroke="#666666" points="168,-152.5 11,-152.5 11,-122.5 168,-122.5 168,-152.5"/>
<text text-anchor="start" x="19" y="-140.5" font-family="Helvetica,sans-Serif" font-size="10.00">crewai.agents.executor.Crew</text>
<text text-anchor="middle" x="89.5" y="-129.5" font-family="Helvetica,sans-Serif" font-size="10.00">AgentExecutor._call</text>
</a>
</g>
</g>
<!-- Node1&#45;&gt;Node2 -->
<g id="edge5_Node000001_Node000002" class="edge">
<title>Node1&#45;&gt;Node2</title>
<g id="a_edge5_Node000001_Node000002"><a xlink:title=" ">
<path fill="none" stroke="#63b8ff" d="M240.49,-87.17C222.12,-95.96 199.74,-106 179,-113.5 170.17,-116.69 160.71,-119.69 151.37,-122.41"/>
<polygon fill="#63b8ff" stroke="#63b8ff" points="242.22,-90.22 249.69,-82.71 239.17,-83.92 242.22,-90.22"/>
</a>
</g>
</g>
<!-- Node3 -->
<g id="Node000003" class="node">
<title>Node3</title>
<g id="a_Node000003"><a xlink:href="$classcrewai_1_1task_1_1Task.html#a900dfa97c2d8ef2fab2b866e2bb55e48" xlink:title=" ">
<polygon fill="white" stroke="#666666" points="154,-104.5 25,-104.5 25,-74.5 154,-74.5 154,-104.5"/>
<text text-anchor="start" x="33" y="-92.5" font-family="Helvetica,sans-Serif" font-size="10.00">crewai.task.Task.check</text>
<text text-anchor="middle" x="89.5" y="-81.5" font-family="Helvetica,sans-Serif" font-size="10.00">_tools</text>
</a>
</g>
</g>
<!-- Node1&#45;&gt;Node3 -->
<g id="edge6_Node000001_Node000003" class="edge">
<title>Node1&#45;&gt;Node3</title>
<g id="a_edge6_Node000001_Node000003"><a xlink:title=" ">
<path fill="none" stroke="#63b8ff" d="M204.69,-76.21C187.94,-78.16 170.33,-80.21 154.08,-82.1"/>
<polygon fill="#63b8ff" stroke="#63b8ff" points="205.46,-79.64 214.99,-75.01 204.65,-72.69 205.46,-79.64"/>
</a>
</g>
</g>
<!-- Node4 -->
<g id="Node000004" class="node">
<title>Node4</title>
<g id="a_Node000004"><a xlink:href="$classcrewai_1_1task_1_1Task.html#a6b1952e6c034f78267fdbe681393dcec" xlink:title=" ">
<polygon fill="white" stroke="#666666" points="159,-56 20,-56 20,-37 159,-37 159,-56"/>
<text text-anchor="middle" x="89.5" y="-44" font-family="Helvetica,sans-Serif" font-size="10.00">crewai.task.Task.execute</text>
</a>
</g>
</g>
<!-- Node1&#45;&gt;Node4 -->
<g id="edge7_Node000001_Node000004" class="edge">
<title>Node1&#45;&gt;Node4</title>
<g id="a_edge7_Node000001_Node000004"><a xlink:title=" ">
<path fill="none" stroke="#63b8ff" d="M204.73,-59.19C189.73,-57.53 174.03,-55.78 159.24,-54.14"/>
<polygon fill="#63b8ff" stroke="#63b8ff" points="204.66,-62.71 214.99,-60.33 205.43,-55.75 204.66,-62.71"/>
</a>
</g>
</g>
<!-- Node5 -->
<g id="Node000005" class="node">
<title>Node5</title>
<g id="a_Node000005"><a xlink:href="$classcrewai_1_1agent_1_1Agent.html#a7c48837fdc08c5199d61b4ff092d6af5" xlink:title=" ">
<polygon fill="white" stroke="#666666" points="179,-19 0,-19 0,0 179,0 179,-19"/>
<text text-anchor="middle" x="89.5" y="-7" font-family="Helvetica,sans-Serif" font-size="10.00">crewai.agent.Agent.execute_task</text>
</a>
</g>
</g>
<!-- Node1&#45;&gt;Node5 -->
<g id="edge8_Node000001_Node000005" class="edge">
<title>Node1&#45;&gt;Node5</title>
<g id="a_edge8_Node000001_Node000005"><a xlink:title=" ">
<path fill="none" stroke="#63b8ff" d="M235.32,-48.61C217.97,-41.65 197.76,-34.11 179,-28.5 167.11,-24.94 154.13,-21.77 141.86,-19.08"/>
<polygon fill="#63b8ff" stroke="#63b8ff" points="234.05,-51.87 244.63,-52.39 236.68,-45.39 234.05,-51.87"/>
</a>
</g>
</g>
</g>
</svg>
