<?xml version="1.0" encoding="UTF-8" standalone="no"?>
<!DOCTYPE svg PUBLIC "-//W3C//DTD SVG 1.1//EN"
 "http://www.w3.org/Graphics/SVG/1.1/DTD/svg11.dtd">
<!-- Generated by graphviz version 2.43.0 (0)
 -->
<!-- Title: crewai.tools.cache_tools.CacheTools Pages: 1 -->
<svg width="109pt" height="198pt"
 viewBox="0.00 0.00 109.00 198.00" xmlns="http://www.w3.org/2000/svg" xmlns:xlink="http://www.w3.org/1999/xlink">
<g id="graph0" class="graph" transform="scale(1 1) rotate(0) translate(4 194)">
<title>crewai.tools.cache_tools.CacheTools</title>
<!-- Node1 -->
<g id="Node000001" class="node">
<title>Node1</title>
<g id="a_Node000001"><a xlink:title=" ">
<polygon fill="#999999" stroke="transparent" points="101,-105 0,-105 0,0 101,0 101,-105"/>
<text text-anchor="start" x="5.5" y="-92.5" font-family="Helvetica,sans-Serif" font-size="10.00">crewai.tools.cache</text>
<text text-anchor="start" x="7" y="-81.5" font-family="Helvetica,sans-Serif" font-size="10.00">_tools.CacheTools</text>
<text text-anchor="start" x="6.5" y="-66.5" font-family="Helvetica,sans-Serif" font-size="10.00">+</text>
<text text-anchor="start" x="21.5" y="-66.5" font-family="Helvetica,sans-Serif" font-size="10.00">model_config</text>
<text text-anchor="start" x="6.5" y="-51.5" font-family="Helvetica,sans-Serif" font-size="10.00">+</text>
<text text-anchor="start" x="21.5" y="-51.5" font-family="Helvetica,sans-Serif" font-size="10.00">name</text>
<text text-anchor="start" x="6.5" y="-36.5" font-family="Helvetica,sans-Serif" font-size="10.00">+</text>
<text text-anchor="start" x="21.5" y="-36.5" font-family="Helvetica,sans-Serif" font-size="10.00">cache_handler</text>
<text text-anchor="start" x="6.5" y="-21.5" font-family="Helvetica,sans-Serif" font-size="10.00">+</text>
<text text-anchor="start" x="21.5" y="-21.5" font-family="Helvetica,sans-Serif" font-size="10.00">tool()</text>
<text text-anchor="start" x="6.5" y="-6.5" font-family="Helvetica,sans-Serif" font-size="10.00">+</text>
<text text-anchor="start" x="21.5" y="-6.5" font-family="Helvetica,sans-Serif" font-size="10.00">hit_cache()</text>
<polygon fill="#666666" stroke="#666666" points="0.5,-76.5 0.5,-76.5 101.5,-76.5 101.5,-76.5 0.5,-76.5"/>
<polygon fill="#666666" stroke="#666666" points="0.5,-31.5 0.5,-31.5 19.5,-31.5 19.5,-31.5 0.5,-31.5"/>
<polygon fill="#666666" stroke="#666666" points="19.5,-31.5 19.5,-31.5 101.5,-31.5 101.5,-31.5 19.5,-31.5"/>
<polygon fill="none" stroke="#666666" points="0,0 0,-105 101,-105 101,0 0,0"/>
</a>
</g>
</g>
<!-- Node2 -->
<g id="Node000002" class="node">
<title>Node2</title>
<g id="a_Node000002"><a xlink:title=" ">
<polygon fill="white" stroke="transparent" points="83,-190 18,-190 18,-141 83,-141 83,-190"/>
<text text-anchor="start" x="23.5" y="-177.5" font-family="Helvetica,sans-Serif" font-size="10.00">BaseModel</text>
<text text-anchor="start" x="49" y="-162.5" font-family="Helvetica,sans-Serif" font-size="10.00"> </text>
<text text-anchor="start" x="49" y="-147.5" font-family="Helvetica,sans-Serif" font-size="10.00"> </text>
<polygon fill="#666666" stroke="#666666" points="18.5,-172.5 18.5,-172.5 83.5,-172.5 83.5,-172.5 18.5,-172.5"/>
<polygon fill="#666666" stroke="#666666" points="18.5,-157.5 18.5,-157.5 83.5,-157.5 83.5,-157.5 18.5,-157.5"/>
<polygon fill="none" stroke="#666666" points="18,-141 18,-190 83,-190 83,-141 18,-141"/>
</a>
</g>
</g>
<!-- Node2&#45;&gt;Node1 -->
<g id="edge2_Node000001_Node000002" class="edge">
<title>Node2&#45;&gt;Node1</title>
<g id="a_edge2_Node000001_Node000002"><a xlink:title=" ">
<path fill="none" stroke="#63b8ff" d="M50.5,-130.85C50.5,-122.79 50.5,-114 50.5,-105.32"/>
<polygon fill="none" stroke="#63b8ff" points="47,-130.96 50.5,-140.96 54,-130.96 47,-130.96"/>
</a>
</g>
</g>
</g>
</svg>
