<?xml version="1.0" encoding="UTF-8" standalone="no"?>
<!DOCTYPE svg PUBLIC "-//W3C//DTD SVG 1.1//EN"
 "http://www.w3.org/Graphics/SVG/1.1/DTD/svg11.dtd">
<!-- Generated by graphviz version 2.43.0 (0)
 -->
<!-- Title: crewai.task.Task.execute Pages: 1 -->
<svg width="722pt" height="146pt"
 viewBox="0.00 0.00 722.00 145.50" xmlns="http://www.w3.org/2000/svg" xmlns:xlink="http://www.w3.org/1999/xlink">
<g id="graph0" class="graph" transform="scale(1 1) rotate(0) translate(4 141.5)">
<title>crewai.task.Task.execute</title>
<!-- Node1 -->
<g id="Node000001" class="node">
<title>Node1</title>
<g id="a_Node000001"><a xlink:title=" ">
<polygon fill="#999999" stroke="#666666" points="139,-72.5 0,-72.5 0,-53.5 139,-53.5 139,-72.5"/>
<text text-anchor="middle" x="69.5" y="-60.5" font-family="Helvetica,sans-Serif" font-size="10.00">crewai.task.Task.execute</text>
</a>
</g>
</g>
<!-- Node2 -->
<g id="Node000002" class="node">
<title>Node2</title>
<g id="a_Node000002"><a xlink:href="$classcrewai_1_1task_1_1Task.html#aa0d58bb3eb6b5f38903b09e12723443c" xlink:title=" ">
<polygon fill="white" stroke="#666666" points="316,-115.5 175,-115.5 175,-96.5 316,-96.5 316,-115.5"/>
<text text-anchor="middle" x="245.5" y="-103.5" font-family="Helvetica,sans-Serif" font-size="10.00">crewai.task.Task._prompt</text>
</a>
</g>
</g>
<!-- Node1&#45;&gt;Node2 -->
<g id="edge9_Node000001_Node000002" class="edge">
<title>Node1&#45;&gt;Node2</title>
<g id="a_edge9_Node000001_Node000002"><a xlink:title=" ">
<path fill="none" stroke="#63b8ff" d="M109.12,-72.54C134.8,-78.89 168.73,-87.27 196.19,-94.06"/>
<polygon fill="#63b8ff" stroke="#63b8ff" points="195.44,-97.48 205.99,-96.48 197.12,-90.69 195.44,-97.48"/>
</a>
</g>
</g>
<!-- Node3 -->
<g id="Node000003" class="node">
<title>Node3</title>
<g id="a_Node000003"><a xlink:href="$classcrewai_1_1tools_1_1agent__tools_1_1AgentTools.html#a8f75d1a8273fea9bc9cb1fe44970dcba" xlink:title=" ">
<polygon fill="white" stroke="#666666" points="310,-78 181,-78 181,-48 310,-48 310,-78"/>
<text text-anchor="start" x="189" y="-66" font-family="Helvetica,sans-Serif" font-size="10.00">crewai.tools.agent</text>
<text text-anchor="middle" x="245.5" y="-55" font-family="Helvetica,sans-Serif" font-size="10.00">_tools.AgentTools.tools</text>
</a>
</g>
</g>
<!-- Node1&#45;&gt;Node3 -->
<g id="edge10_Node000001_Node000003" class="edge">
<title>Node1&#45;&gt;Node3</title>
<g id="a_edge10_Node000001_Node000003"><a xlink:title=" ">
<path fill="none" stroke="#63b8ff" d="M139.27,-63C149.53,-63 160.14,-63 170.5,-63"/>
<polygon fill="#63b8ff" stroke="#63b8ff" points="170.76,-66.5 180.76,-63 170.76,-59.5 170.76,-66.5"/>
</a>
</g>
</g>
<!-- Node7 -->
<g id="Node000007" class="node">
<title>Node7</title>
<g id="a_Node000007"><a xlink:href="$classcrewai_1_1utilities_1_1i18n_1_1I18N.html#a2294cfae6e3e381433fe34ca3b215604" xlink:title=" ">
<polygon fill="white" stroke="#666666" points="311,-30 180,-30 180,0 311,0 311,-30"/>
<text text-anchor="start" x="188" y="-18" font-family="Helvetica,sans-Serif" font-size="10.00">crewai.utilities.i18n.I18</text>
<text text-anchor="middle" x="245.5" y="-7" font-family="Helvetica,sans-Serif" font-size="10.00">N.tools</text>
</a>
</g>
</g>
<!-- Node1&#45;&gt;Node7 -->
<g id="edge15_Node000001_Node000007" class="edge">
<title>Node1&#45;&gt;Node7</title>
<g id="a_edge15_Node000001_Node000007"><a xlink:title=" ">
<path fill="none" stroke="#63b8ff" d="M105.29,-53.4C126.66,-47.51 154.68,-39.78 179.99,-32.8"/>
<polygon fill="#63b8ff" stroke="#63b8ff" points="181.19,-36.1 189.9,-30.06 179.33,-29.35 181.19,-36.1"/>
</a>
</g>
</g>
<!-- Node4 -->
<g id="Node000004" class="node">
<title>Node4</title>
<g id="a_Node000004"><a xlink:href="$classcrewai_1_1tools_1_1agent__tools_1_1AgentTools.html#a290f5c30711c7c9d1e907ad7d08c91aa" xlink:title=" ">
<polygon fill="white" stroke="#666666" points="501.5,-137.5 379.5,-137.5 379.5,-96.5 501.5,-96.5 501.5,-137.5"/>
<text text-anchor="start" x="387.5" y="-125.5" font-family="Helvetica,sans-Serif" font-size="10.00">crewai.tools.agent</text>
<text text-anchor="start" x="387.5" y="-114.5" font-family="Helvetica,sans-Serif" font-size="10.00">_tools.AgentTools.ask</text>
<text text-anchor="middle" x="440.5" y="-103.5" font-family="Helvetica,sans-Serif" font-size="10.00">_question</text>
</a>
</g>
</g>
<!-- Node3&#45;&gt;Node4 -->
<g id="edge11_Node000003_Node000004" class="edge">
<title>Node3&#45;&gt;Node4</title>
<g id="a_edge11_Node000003_Node000004"><a xlink:title=" ">
<path fill="none" stroke="#63b8ff" d="M300.26,-78.04C321.73,-84.05 346.74,-91.05 369.59,-97.44"/>
<polygon fill="#63b8ff" stroke="#63b8ff" points="368.66,-100.81 379.24,-100.14 370.55,-94.07 368.66,-100.81"/>
</a>
</g>
</g>
<!-- Node6 -->
<g id="Node000006" class="node">
<title>Node6</title>
<g id="a_Node000006"><a xlink:href="$classcrewai_1_1tools_1_1agent__tools_1_1AgentTools.html#ac2685ccb3a19ca1d9b88069b41647ea2" xlink:title=" ">
<polygon fill="white" stroke="#666666" points="529,-78 352,-78 352,-48 529,-48 529,-78"/>
<text text-anchor="start" x="360" y="-66" font-family="Helvetica,sans-Serif" font-size="10.00">crewai.tools.agent</text>
<text text-anchor="middle" x="440.5" y="-55" font-family="Helvetica,sans-Serif" font-size="10.00">_tools.AgentTools.delegate_work</text>
</a>
</g>
</g>
<!-- Node3&#45;&gt;Node6 -->
<g id="edge13_Node000003_Node000006" class="edge">
<title>Node3&#45;&gt;Node6</title>
<g id="a_edge13_Node000003_Node000006"><a xlink:title=" ">
<path fill="none" stroke="#63b8ff" d="M310.23,-63C320.3,-63 330.91,-63 341.54,-63"/>
<polygon fill="#63b8ff" stroke="#63b8ff" points="341.72,-66.5 351.72,-63 341.72,-59.5 341.72,-66.5"/>
</a>
</g>
</g>
<!-- Node5 -->
<g id="Node000005" class="node">
<title>Node5</title>
<g id="a_Node000005"><a xlink:href="$classcrewai_1_1tools_1_1agent__tools_1_1AgentTools.html#a72b356439ca50e92f24c997827fbae52" xlink:title=" ">
<polygon fill="white" stroke="#666666" points="714,-105 565,-105 565,-75 714,-75 714,-105"/>
<text text-anchor="start" x="573" y="-93" font-family="Helvetica,sans-Serif" font-size="10.00">crewai.tools.agent</text>
<text text-anchor="middle" x="639.5" y="-82" font-family="Helvetica,sans-Serif" font-size="10.00">_tools.AgentTools._execute</text>
</a>
</g>
</g>
<!-- Node4&#45;&gt;Node5 -->
<g id="edge12_Node000004_Node000005" class="edge">
<title>Node4&#45;&gt;Node5</title>
<g id="a_edge12_Node000004_Node000005"><a xlink:title=" ">
<path fill="none" stroke="#63b8ff" d="M501.68,-108.75C518.32,-106.47 536.7,-103.95 554.44,-101.52"/>
<polygon fill="#63b8ff" stroke="#63b8ff" points="555.36,-104.93 564.79,-100.1 554.41,-97.99 555.36,-104.93"/>
</a>
</g>
</g>
<!-- Node6&#45;&gt;Node5 -->
<g id="edge14_Node000006_Node000005" class="edge">
<title>Node6&#45;&gt;Node5</title>
<g id="a_edge14_Node000006_Node000005"><a xlink:title=" ">
<path fill="none" stroke="#63b8ff" d="M529.05,-75C537.62,-76.17 546.3,-77.36 554.83,-78.53"/>
<polygon fill="#63b8ff" stroke="#63b8ff" points="554.37,-82 564.75,-79.89 555.32,-75.07 554.37,-82"/>
</a>
</g>
</g>
<!-- Node8 -->
<g id="Node000008" class="node">
<title>Node8</title>
<g id="a_Node000008"><a xlink:href="$classcrewai_1_1utilities_1_1i18n_1_1I18N.html#a2f3ca7e4a835ed7045071a2136b23656" xlink:title=" ">
<polygon fill="white" stroke="#666666" points="506,-30 375,-30 375,0 506,0 506,-30"/>
<text text-anchor="start" x="383" y="-18" font-family="Helvetica,sans-Serif" font-size="10.00">crewai.utilities.i18n.I18</text>
<text text-anchor="middle" x="440.5" y="-7" font-family="Helvetica,sans-Serif" font-size="10.00">N.retrieve</text>
</a>
</g>
</g>
<!-- Node7&#45;&gt;Node8 -->
<g id="edge16_Node000007_Node000008" class="edge">
<title>Node7&#45;&gt;Node8</title>
<g id="a_edge16_Node000007_Node000008"><a xlink:title=" ">
<path fill="none" stroke="#63b8ff" d="M311.03,-15C328.16,-15 346.81,-15 364.45,-15"/>
<polygon fill="#63b8ff" stroke="#63b8ff" points="364.7,-18.5 374.7,-15 364.7,-11.5 364.7,-18.5"/>
</a>
</g>
</g>
</g>
</svg>
