<?xml version="1.0" encoding="UTF-8" standalone="no"?>
<!DOCTYPE svg PUBLIC "-//W3C//DTD SVG 1.1//EN"
 "http://www.w3.org/Graphics/SVG/1.1/DTD/svg11.dtd">
<!-- Generated by graphviz version 2.43.0 (0)
 -->
<!-- Title: crewai.utilities.prompts.Prompts Pages: 1 -->
<svg width="145pt" height="250pt"
 viewBox="0.00 0.00 145.00 250.00" xmlns="http://www.w3.org/2000/svg" xmlns:xlink="http://www.w3.org/1999/xlink">
<g id="graph0" class="graph" transform="scale(1 1) rotate(0) translate(4 246)">
<title>crewai.utilities.prompts.Prompts</title>
<!-- Node1 -->
<g id="Node000001" class="node">
<title>Node1</title>
<g id="a_Node000001"><a xlink:title=" ">
<polygon fill="#999999" stroke="transparent" points="137,-157 0,-157 0,0 137,0 137,-157"/>
<text text-anchor="start" x="9.5" y="-144.5" font-family="Helvetica,sans-Serif" font-size="10.00">crewai.utilities.prompts.</text>
<text text-anchor="start" x="48.5" y="-133.5" font-family="Helvetica,sans-Serif" font-size="10.00">Prompts</text>
<text text-anchor="start" x="4.5" y="-118.5" font-family="Helvetica,sans-Serif" font-size="10.00">+</text>
<text text-anchor="start" x="17.5" y="-118.5" font-family="Helvetica,sans-Serif" font-size="10.00">SCRATCHPAD_SLICE</text>
<text text-anchor="start" x="4.5" y="-103.5" font-family="Helvetica,sans-Serif" font-size="10.00">+</text>
<text text-anchor="start" x="17.5" y="-103.5" font-family="Helvetica,sans-Serif" font-size="10.00">i18n</text>
<text text-anchor="start" x="4.5" y="-88.5" font-family="Helvetica,sans-Serif" font-size="10.00">+</text>
<text text-anchor="start" x="17.5" y="-88.5" font-family="Helvetica,sans-Serif" font-size="10.00">SCRATCHPAD_SLICE</text>
<text text-anchor="start" x="4.5" y="-73.5" font-family="Helvetica,sans-Serif" font-size="10.00">+</text>
<text text-anchor="start" x="17.5" y="-73.5" font-family="Helvetica,sans-Serif" font-size="10.00">task_execution_with</text>
<text text-anchor="start" x="17.5" y="-62.5" font-family="Helvetica,sans-Serif" font-size="10.00">_memory()</text>
<text text-anchor="start" x="4.5" y="-47.5" font-family="Helvetica,sans-Serif" font-size="10.00">+</text>
<text text-anchor="start" x="17.5" y="-47.5" font-family="Helvetica,sans-Serif" font-size="10.00">task_execution_without</text>
<text text-anchor="start" x="17.5" y="-36.5" font-family="Helvetica,sans-Serif" font-size="10.00">_tools()</text>
<text text-anchor="start" x="4.5" y="-21.5" font-family="Helvetica,sans-Serif" font-size="10.00">+</text>
<text text-anchor="start" x="17.5" y="-21.5" font-family="Helvetica,sans-Serif" font-size="10.00">task_execution()</text>
<text text-anchor="start" x="4.5" y="-6.5" font-family="Helvetica,sans-Serif" font-size="10.00">#</text>
<text text-anchor="start" x="17.5" y="-6.5" font-family="Helvetica,sans-Serif" font-size="10.00">_build_prompt()</text>
<polygon fill="#666666" stroke="#666666" points="0.5,-128.5 0.5,-128.5 137.5,-128.5 137.5,-128.5 0.5,-128.5"/>
<polygon fill="#666666" stroke="#666666" points="0.5,-83.5 0.5,-83.5 15.5,-83.5 15.5,-83.5 0.5,-83.5"/>
<polygon fill="#666666" stroke="#666666" points="15.5,-83.5 15.5,-83.5 137.5,-83.5 137.5,-83.5 15.5,-83.5"/>
<polygon fill="none" stroke="#666666" points="0,0 0,-157 137,-157 137,0 0,0"/>
</a>
</g>
</g>
<!-- Node2 -->
<g id="Node000002" class="node">
<title>Node2</title>
<g id="a_Node000002"><a xlink:title=" ">
<polygon fill="white" stroke="transparent" points="101,-242 36,-242 36,-193 101,-193 101,-242"/>
<text text-anchor="start" x="41.5" y="-229.5" font-family="Helvetica,sans-Serif" font-size="10.00">BaseModel</text>
<text text-anchor="start" x="67" y="-214.5" font-family="Helvetica,sans-Serif" font-size="10.00"> </text>
<text text-anchor="start" x="67" y="-199.5" font-family="Helvetica,sans-Serif" font-size="10.00"> </text>
<polygon fill="#666666" stroke="#666666" points="36.5,-224.5 36.5,-224.5 101.5,-224.5 101.5,-224.5 36.5,-224.5"/>
<polygon fill="#666666" stroke="#666666" points="36.5,-209.5 36.5,-209.5 101.5,-209.5 101.5,-209.5 36.5,-209.5"/>
<polygon fill="none" stroke="#666666" points="36,-193 36,-242 101,-242 101,-193 36,-193"/>
</a>
</g>
</g>
<!-- Node2&#45;&gt;Node1 -->
<g id="edge2_Node000001_Node000002" class="edge">
<title>Node2&#45;&gt;Node1</title>
<g id="a_edge2_Node000001_Node000002"><a xlink:title=" ">
<path fill="none" stroke="#63b8ff" d="M68.5,-182.77C68.5,-174.89 68.5,-166.17 68.5,-157.23"/>
<polygon fill="none" stroke="#63b8ff" points="65,-182.95 68.5,-192.95 72,-182.95 65,-182.95"/>
</a>
</g>
</g>
</g>
</svg>
