<?xml version="1.0" encoding="UTF-8" standalone="no"?>
<!DOCTYPE svg PUBLIC "-//W3C//DTD SVG 1.1//EN"
 "http://www.w3.org/Graphics/SVG/1.1/DTD/svg11.dtd">
<!-- Generated by graphviz version 2.43.0 (0)
 -->
<!-- Title: crewai.task.Task.check_tools Pages: 1 -->
<svg width="702pt" height="146pt"
 viewBox="0.00 0.00 702.00 145.50" xmlns="http://www.w3.org/2000/svg" xmlns:xlink="http://www.w3.org/1999/xlink">
<g id="graph0" class="graph" transform="scale(1 1) rotate(0) translate(4 141.5)">
<title>crewai.task.Task.check_tools</title>
<!-- Node1 -->
<g id="Node000001" class="node">
<title>Node1</title>
<g id="a_Node000001"><a xlink:title=" ">
<polygon fill="#999999" stroke="#666666" points="129,-54 0,-54 0,-24 129,-24 129,-54"/>
<text text-anchor="start" x="8" y="-42" font-family="Helvetica,sans-Serif" font-size="10.00">crewai.task.Task.check</text>
<text text-anchor="middle" x="64.5" y="-31" font-family="Helvetica,sans-Serif" font-size="10.00">_tools</text>
</a>
</g>
</g>
<!-- Node2 -->
<g id="Node000002" class="node">
<title>Node2</title>
<g id="a_Node000002"><a xlink:href="classcrewai_1_1tools_1_1agent__tools_1_1AgentTools.html#a8f75d1a8273fea9bc9cb1fe44970dcba" target="_top" xlink:title=" ">
<polygon fill="white" stroke="#666666" points="295,-78 166,-78 166,-48 295,-48 295,-78"/>
<text text-anchor="start" x="174" y="-66" font-family="Helvetica,sans-Serif" font-size="10.00">crewai.tools.agent</text>
<text text-anchor="middle" x="230.5" y="-55" font-family="Helvetica,sans-Serif" font-size="10.00">_tools.AgentTools.tools</text>
</a>
</g>
</g>
<!-- Node1&#45;&gt;Node2 -->
<g id="edge1_Node000001_Node000002" class="edge">
<title>Node1&#45;&gt;Node2</title>
<g id="a_edge1_Node000001_Node000002"><a xlink:title=" ">
<path fill="none" stroke="#63b8ff" d="M129.38,-48.35C138.07,-49.62 147.04,-50.93 155.89,-52.23"/>
<polygon fill="#63b8ff" stroke="#63b8ff" points="155.4,-55.69 165.8,-53.68 156.41,-48.77 155.4,-55.69"/>
</a>
</g>
</g>
<!-- Node6 -->
<g id="Node000006" class="node">
<title>Node6</title>
<g id="a_Node000006"><a xlink:href="classcrewai_1_1utilities_1_1i18n_1_1I18N.html#a2294cfae6e3e381433fe34ca3b215604" target="_top" xlink:title=" ">
<polygon fill="white" stroke="#666666" points="296,-30 165,-30 165,0 296,0 296,-30"/>
<text text-anchor="start" x="173" y="-18" font-family="Helvetica,sans-Serif" font-size="10.00">crewai.utilities.i18n.I18</text>
<text text-anchor="middle" x="230.5" y="-7" font-family="Helvetica,sans-Serif" font-size="10.00">N.tools</text>
</a>
</g>
</g>
<!-- Node1&#45;&gt;Node6 -->
<g id="edge6_Node000001_Node000006" class="edge">
<title>Node1&#45;&gt;Node6</title>
<g id="a_edge6_Node000001_Node000006"><a xlink:title=" ">
<path fill="none" stroke="#63b8ff" d="M129.38,-29.65C137.78,-28.42 146.45,-27.15 155.01,-25.9"/>
<polygon fill="#63b8ff" stroke="#63b8ff" points="155.6,-29.35 164.99,-24.44 154.59,-22.43 155.6,-29.35"/>
</a>
</g>
</g>
<!-- Node3 -->
<g id="Node000003" class="node">
<title>Node3</title>
<g id="a_Node000003"><a xlink:href="classcrewai_1_1tools_1_1agent__tools_1_1AgentTools.html#a290f5c30711c7c9d1e907ad7d08c91aa" target="_top" xlink:title=" ">
<polygon fill="white" stroke="#666666" points="481.5,-137.5 359.5,-137.5 359.5,-96.5 481.5,-96.5 481.5,-137.5"/>
<text text-anchor="start" x="367.5" y="-125.5" font-family="Helvetica,sans-Serif" font-size="10.00">crewai.tools.agent</text>
<text text-anchor="start" x="367.5" y="-114.5" font-family="Helvetica,sans-Serif" font-size="10.00">_tools.AgentTools.ask</text>
<text text-anchor="middle" x="420.5" y="-103.5" font-family="Helvetica,sans-Serif" font-size="10.00">_question</text>
</a>
</g>
</g>
<!-- Node2&#45;&gt;Node3 -->
<g id="edge2_Node000002_Node000003" class="edge">
<title>Node2&#45;&gt;Node3</title>
<g id="a_edge2_Node000002_Node000003"><a xlink:title=" ">
<path fill="none" stroke="#63b8ff" d="M283.87,-78.04C304.22,-83.89 327.83,-90.67 349.6,-96.92"/>
<polygon fill="#63b8ff" stroke="#63b8ff" points="348.87,-100.35 359.45,-99.75 350.81,-93.63 348.87,-100.35"/>
</a>
</g>
</g>
<!-- Node5 -->
<g id="Node000005" class="node">
<title>Node5</title>
<g id="a_Node000005"><a xlink:href="classcrewai_1_1tools_1_1agent__tools_1_1AgentTools.html#ac2685ccb3a19ca1d9b88069b41647ea2" target="_top" xlink:title=" ">
<polygon fill="white" stroke="#666666" points="509,-78 332,-78 332,-48 509,-48 509,-78"/>
<text text-anchor="start" x="340" y="-66" font-family="Helvetica,sans-Serif" font-size="10.00">crewai.tools.agent</text>
<text text-anchor="middle" x="420.5" y="-55" font-family="Helvetica,sans-Serif" font-size="10.00">_tools.AgentTools.delegate_work</text>
</a>
</g>
</g>
<!-- Node2&#45;&gt;Node5 -->
<g id="edge4_Node000002_Node000005" class="edge">
<title>Node2&#45;&gt;Node5</title>
<g id="a_edge4_Node000002_Node000005"><a xlink:title=" ">
<path fill="none" stroke="#63b8ff" d="M295.15,-63C303.74,-63 312.71,-63 321.73,-63"/>
<polygon fill="#63b8ff" stroke="#63b8ff" points="321.91,-66.5 331.91,-63 321.91,-59.5 321.91,-66.5"/>
</a>
</g>
</g>
<!-- Node4 -->
<g id="Node000004" class="node">
<title>Node4</title>
<g id="a_Node000004"><a xlink:href="classcrewai_1_1tools_1_1agent__tools_1_1AgentTools.html#a72b356439ca50e92f24c997827fbae52" target="_top" xlink:title=" ">
<polygon fill="white" stroke="#666666" points="694,-105 545,-105 545,-75 694,-75 694,-105"/>
<text text-anchor="start" x="553" y="-93" font-family="Helvetica,sans-Serif" font-size="10.00">crewai.tools.agent</text>
<text text-anchor="middle" x="619.5" y="-82" font-family="Helvetica,sans-Serif" font-size="10.00">_tools.AgentTools._execute</text>
</a>
</g>
</g>
<!-- Node3&#45;&gt;Node4 -->
<g id="edge3_Node000003_Node000004" class="edge">
<title>Node3&#45;&gt;Node4</title>
<g id="a_edge3_Node000003_Node000004"><a xlink:title=" ">
<path fill="none" stroke="#63b8ff" d="M481.68,-108.75C498.32,-106.47 516.7,-103.95 534.44,-101.52"/>
<polygon fill="#63b8ff" stroke="#63b8ff" points="535.36,-104.93 544.79,-100.1 534.41,-97.99 535.36,-104.93"/>
</a>
</g>
</g>
<!-- Node5&#45;&gt;Node4 -->
<g id="edge5_Node000005_Node000004" class="edge">
<title>Node5&#45;&gt;Node4</title>
<g id="a_edge5_Node000005_Node000004"><a xlink:title=" ">
<path fill="none" stroke="#63b8ff" d="M509.05,-75C517.62,-76.17 526.3,-77.36 534.83,-78.53"/>
<polygon fill="#63b8ff" stroke="#63b8ff" points="534.37,-82 544.75,-79.89 535.32,-75.07 534.37,-82"/>
</a>
</g>
</g>
<!-- Node7 -->
<g id="Node000007" class="node">
<title>Node7</title>
<g id="a_Node000007"><a xlink:href="classcrewai_1_1utilities_1_1i18n_1_1I18N.html#a2f3ca7e4a835ed7045071a2136b23656" target="_top" xlink:title=" ">
<polygon fill="white" stroke="#666666" points="486,-30 355,-30 355,0 486,0 486,-30"/>
<text text-anchor="start" x="363" y="-18" font-family="Helvetica,sans-Serif" font-size="10.00">crewai.utilities.i18n.I18</text>
<text text-anchor="middle" x="420.5" y="-7" font-family="Helvetica,sans-Serif" font-size="10.00">N.retrieve</text>
</a>
</g>
</g>
<!-- Node6&#45;&gt;Node7 -->
<g id="edge7_Node000006_Node000007" class="edge">
<title>Node6&#45;&gt;Node7</title>
<g id="a_edge7_Node000006_Node000007"><a xlink:title=" ">
<path fill="none" stroke="#63b8ff" d="M296.2,-15C311.71,-15 328.4,-15 344.34,-15"/>
<polygon fill="#63b8ff" stroke="#63b8ff" points="344.68,-18.5 354.68,-15 344.68,-11.5 344.68,-18.5"/>
</a>
</g>
</g>
</g>
</svg>
