<?xml version="1.0" encoding="UTF-8" standalone="no"?>
<!DOCTYPE svg PUBLIC "-//W3C//DTD SVG 1.1//EN"
 "http://www.w3.org/Graphics/SVG/1.1/DTD/svg11.dtd">
<!-- Generated by graphviz version 2.43.0 (0)
 -->
<!-- Title: crewai.tasks.task_output.TaskOutput Pages: 1 -->
<svg width="144pt" height="198pt"
 viewBox="0.00 0.00 144.00 198.00" xmlns="http://www.w3.org/2000/svg" xmlns:xlink="http://www.w3.org/1999/xlink">

<svg id="main" version="1.1" xmlns="http://www.w3.org/2000/svg" xmlns:xlink="http://www.w3.org/1999/xlink" xml:space="preserve" onload="init(evt)">
<style type="text/css"><![CDATA[
.node, .edge {opacity: 0.7;}
.node.selected, .edge.selected {opacity: 1;}
.edge:hover path { stroke: red; }
.edge:hover polygon { stroke: red; fill: red; }
]]></style>
<script type="application/ecmascript" xlink:href="svg.min.js"/>
<svg id="graph" class="graph">
<g id="graph0" class="graph" transform="scale(1 1) rotate(0) translate(4 194)">
<title>crewai.tasks.task_output.TaskOutput</title>
<!-- Node1 -->
<g id="Node000001" class="node">
<title>Node1</title>
<g id="a_Node000001"><a xlink:title=" ">
<polygon fill="#999999" stroke="transparent" points="136,-105 0,-105 0,0 136,0 136,-105"/>
<text text-anchor="start" x="5" y="-92.5" font-family="Helvetica,sans-Serif" font-size="10.00">crewai.tasks.task_output.</text>
<text text-anchor="start" x="40.5" y="-81.5" font-family="Helvetica,sans-Serif" font-size="10.00">TaskOutput</text>
<text text-anchor="start" x="14" y="-66.5" font-family="Helvetica,sans-Serif" font-size="10.00">+</text>
<text text-anchor="start" x="37" y="-66.5" font-family="Helvetica,sans-Serif" font-size="10.00">summary</text>
<text text-anchor="start" x="14" y="-51.5" font-family="Helvetica,sans-Serif" font-size="10.00">+</text>
<text text-anchor="start" x="37" y="-51.5" font-family="Helvetica,sans-Serif" font-size="10.00">description</text>
<text text-anchor="start" x="14" y="-36.5" font-family="Helvetica,sans-Serif" font-size="10.00">+</text>
<text text-anchor="start" x="37" y="-36.5" font-family="Helvetica,sans-Serif" font-size="10.00">summary</text>
<text text-anchor="start" x="14" y="-21.5" font-family="Helvetica,sans-Serif" font-size="10.00">+</text>
<text text-anchor="start" x="37" y="-21.5" font-family="Helvetica,sans-Serif" font-size="10.00">result</text>
<text text-anchor="start" x="14" y="-6.5" font-family="Helvetica,sans-Serif" font-size="10.00">+</text>
<text text-anchor="start" x="37" y="-6.5" font-family="Helvetica,sans-Serif" font-size="10.00">set_summary()</text>
<polygon fill="#666666" stroke="#666666" points="0,-76.5 0,-76.5 136,-76.5 136,-76.5 0,-76.5"/>
<polygon fill="#666666" stroke="#666666" points="0,-16.5 0,-16.5 35,-16.5 35,-16.5 0,-16.5"/>
<polygon fill="#666666" stroke="#666666" points="35,-16.5 35,-16.5 136,-16.5 136,-16.5 35,-16.5"/>
<polygon fill="none" stroke="#666666" points="0,0 0,-105 136,-105 136,0 0,0"/>
</a>
</g>
</g>
<!-- Node2 -->
<g id="Node000002" class="node">
<title>Node2</title>
<g id="a_Node000002"><a xlink:title=" ">
<polygon fill="white" stroke="transparent" points="100.5,-190 35.5,-190 35.5,-141 100.5,-141 100.5,-190"/>
<text text-anchor="start" x="41" y="-177.5" font-family="Helvetica,sans-Serif" font-size="10.00">BaseModel</text>
<text text-anchor="start" x="66.5" y="-162.5" font-family="Helvetica,sans-Serif" font-size="10.00"> </text>
<text text-anchor="start" x="66.5" y="-147.5" font-family="Helvetica,sans-Serif" font-size="10.00"> </text>
<polygon fill="#666666" stroke="#666666" points="36,-172.5 36,-172.5 101,-172.5 101,-172.5 36,-172.5"/>
<polygon fill="#666666" stroke="#666666" points="36,-157.5 36,-157.5 101,-157.5 101,-157.5 36,-157.5"/>
<polygon fill="none" stroke="#666666" points="35.5,-141 35.5,-190 100.5,-190 100.5,-141 35.5,-141"/>
</a>
</g>
</g>
<!-- Node2&#45;&gt;Node1 -->
<g id="edge1_Node000001_Node000002" class="edge">
<title>Node2&#45;&gt;Node1</title>
<g id="a_edge1_Node000001_Node000002"><a xlink:title=" ">
<path fill="none" stroke="#63b8ff" d="M68,-130.85C68,-122.79 68,-114 68,-105.32"/>
<polygon fill="none" stroke="#63b8ff" points="64.5,-130.96 68,-140.96 71.5,-130.96 64.5,-130.96"/>
</a>
</g>
</g>
</g>
</svg>
</svg>

<style type='text/css'>
<![CDATA[
[data-mouse-over-selected='false'] { opacity: 0.7; }
[data-mouse-over-selected='true']  { opacity: 1.0; }
]]>
</style>
<script type="application/ecmascript"><![CDATA[
document.addEventListener('DOMContentLoaded', (event) => {
  highlightEdges();
  highlightAdjacentNodes();
});
]]></script>
</svg>
