<?xml version="1.0" encoding="UTF-8" standalone="no"?>
<!DOCTYPE svg PUBLIC "-//W3C//DTD SVG 1.1//EN"
 "http://www.w3.org/Graphics/SVG/1.1/DTD/svg11.dtd">
<!-- Generated by graphviz version 2.43.0 (0)
 -->
<!-- Title: crewai.tools.cache_tools.CacheTools Pages: 1 -->
<svg width="275pt" height="316pt"
 viewBox="0.00 0.00 274.50 316.00" xmlns="http://www.w3.org/2000/svg" xmlns:xlink="http://www.w3.org/1999/xlink">

<svg id="main" version="1.1" xmlns="http://www.w3.org/2000/svg" xmlns:xlink="http://www.w3.org/1999/xlink" xml:space="preserve" onload="init(evt)">
<style type="text/css"><![CDATA[
.node, .edge {opacity: 0.7;}
.node.selected, .edge.selected {opacity: 1;}
.edge:hover path { stroke: red; }
.edge:hover polygon { stroke: red; fill: red; }
]]></style>
<script type="application/ecmascript" xlink:href="svg.min.js"/>
<svg id="graph" class="graph">
<g id="graph0" class="graph" transform="scale(1 1) rotate(0) translate(4 312)">
<title>crewai.tools.cache_tools.CacheTools</title>
<!-- Node1 -->
<g id="Node000001" class="node">
<title>Node1</title>
<g id="a_Node000001"><a xlink:title=" ">
<polygon fill="#999999" stroke="transparent" points="145,-75 44,-75 44,0 145,0 145,-75"/>
<text text-anchor="start" x="49.5" y="-62.5" font-family="Helvetica,sans-Serif" font-size="10.00">crewai.tools.cache</text>
<text text-anchor="start" x="51" y="-51.5" font-family="Helvetica,sans-Serif" font-size="10.00">_tools.CacheTools</text>
<text text-anchor="start" x="52" y="-36.5" font-family="Helvetica,sans-Serif" font-size="10.00">+</text>
<text text-anchor="start" x="68.5" y="-36.5" font-family="Helvetica,sans-Serif" font-size="10.00">model_config</text>
<text text-anchor="start" x="52" y="-21.5" font-family="Helvetica,sans-Serif" font-size="10.00">+</text>
<text text-anchor="start" x="68.5" y="-21.5" font-family="Helvetica,sans-Serif" font-size="10.00">tool()</text>
<text text-anchor="start" x="52" y="-6.5" font-family="Helvetica,sans-Serif" font-size="10.00">+</text>
<text text-anchor="start" x="68.5" y="-6.5" font-family="Helvetica,sans-Serif" font-size="10.00">hit_cache()</text>
<polygon fill="#666666" stroke="#666666" points="44.5,-46.5 44.5,-46.5 145.5,-46.5 145.5,-46.5 44.5,-46.5"/>
<polygon fill="#666666" stroke="#666666" points="44.5,-31.5 44.5,-31.5 66.5,-31.5 66.5,-31.5 44.5,-31.5"/>
<polygon fill="#666666" stroke="#666666" points="66.5,-31.5 66.5,-31.5 145.5,-31.5 145.5,-31.5 66.5,-31.5"/>
<polygon fill="none" stroke="#666666" points="44,0 44,-75 145,-75 145,0 44,0"/>
</a>
</g>
</g>
<!-- Node2 -->
<g id="Node000002" class="node">
<title>Node2</title>
<g id="a_Node000002"><a xlink:title=" ">
<polygon fill="white" stroke="transparent" points="65,-191.5 0,-191.5 0,-142.5 65,-142.5 65,-191.5"/>
<text text-anchor="start" x="5.5" y="-179" font-family="Helvetica,sans-Serif" font-size="10.00">BaseModel</text>
<text text-anchor="start" x="31" y="-164" font-family="Helvetica,sans-Serif" font-size="10.00"> </text>
<text text-anchor="start" x="31" y="-149" font-family="Helvetica,sans-Serif" font-size="10.00"> </text>
<polygon fill="#666666" stroke="#666666" points="0.5,-174 0.5,-174 65.5,-174 65.5,-174 0.5,-174"/>
<polygon fill="#666666" stroke="#666666" points="0.5,-159 0.5,-159 65.5,-159 65.5,-159 0.5,-159"/>
<polygon fill="none" stroke="#666666" points="0,-142.5 0,-191.5 65,-191.5 65,-142.5 0,-142.5"/>
</a>
</g>
</g>
<!-- Node2&#45;&gt;Node1 -->
<g id="edge1_Node000001_Node000002" class="edge">
<title>Node2&#45;&gt;Node1</title>
<g id="a_edge1_Node000001_Node000002"><a xlink:title=" ">
<path fill="none" stroke="#63b8ff" d="M48.57,-132.95C57.19,-115.22 67.84,-93.33 76.71,-75.09"/>
<polygon fill="none" stroke="#63b8ff" points="45.24,-131.79 44.02,-142.32 51.54,-134.85 45.24,-131.79"/>
</a>
</g>
</g>
<!-- Node3 -->
<g id="Node000003" class="node">
<title>Node3</title>
<g id="a_Node000003"><a xlink:title=" ">
<polygon fill="white" stroke="transparent" points="106,-191.5 83,-191.5 83,-142.5 106,-142.5 106,-191.5"/>
<text text-anchor="start" x="88.5" y="-179" font-family="Helvetica,sans-Serif" font-size="10.00">str</text>
<text text-anchor="start" x="93" y="-164" font-family="Helvetica,sans-Serif" font-size="10.00"> </text>
<text text-anchor="start" x="93" y="-149" font-family="Helvetica,sans-Serif" font-size="10.00"> </text>
<polygon fill="#666666" stroke="#666666" points="83.5,-174 83.5,-174 106.5,-174 106.5,-174 83.5,-174"/>
<polygon fill="#666666" stroke="#666666" points="83.5,-159 83.5,-159 106.5,-159 106.5,-159 83.5,-159"/>
<polygon fill="none" stroke="#666666" points="83,-142.5 83,-191.5 106,-191.5 106,-142.5 83,-142.5"/>
</a>
</g>
</g>
<!-- Node3&#45;&gt;Node1 -->
<g id="edge2_Node000001_Node000003" class="edge">
<title>Node3&#45;&gt;Node1</title>
<g id="a_edge2_Node000001_Node000003"><a xlink:title=" ">
<path fill="none" stroke="#63b8ff" d="M94.5,-142.32C94.5,-126.84 94.5,-106.06 94.5,-87.16"/>
<polygon fill="none" stroke="#63b8ff" points="94.5,-87.09 90.5,-81.09 94.5,-75.09 98.5,-81.09 94.5,-87.09"/>
</a>
</g>
<text text-anchor="middle" x="114.5" y="-96" font-family="Helvetica,sans-Serif" font-size="10.00" fill="grey"> +name</text>
</g>
<!-- Node4 -->
<g id="Node000004" class="node">
<title>Node4</title>
<g id="a_Node000004"><a xlink:href="classcrewai_1_1agents_1_1cache_1_1cache__handler_1_1CacheHandler.html" target="_top" xlink:title=" ">
<polygon fill="white" stroke="transparent" points="266.5,-212 124.5,-212 124.5,-122 266.5,-122 266.5,-212"/>
<text text-anchor="start" x="129.5" y="-200" font-family="Helvetica,sans-Serif" font-size="10.00">crewai.agents.cache.cache</text>
<text text-anchor="start" x="139" y="-189" font-family="Helvetica,sans-Serif" font-size="10.00">_handler.CacheHandler</text>
<text text-anchor="start" x="193.5" y="-174" font-family="Helvetica,sans-Serif" font-size="10.00"> </text>
<text text-anchor="start" x="147.5" y="-159" font-family="Helvetica,sans-Serif" font-size="10.00">+</text>
<text text-anchor="start" x="179.5" y="-159" font-family="Helvetica,sans-Serif" font-size="10.00">__init__()</text>
<text text-anchor="start" x="147.5" y="-144" font-family="Helvetica,sans-Serif" font-size="10.00">+</text>
<text text-anchor="start" x="179.5" y="-144" font-family="Helvetica,sans-Serif" font-size="10.00">add()</text>
<text text-anchor="start" x="147.5" y="-129" font-family="Helvetica,sans-Serif" font-size="10.00">+</text>
<text text-anchor="start" x="179.5" y="-129" font-family="Helvetica,sans-Serif" font-size="10.00">read()</text>
<polygon fill="#666666" stroke="#666666" points="124.5,-184 124.5,-184 266.5,-184 266.5,-184 124.5,-184"/>
<polygon fill="#666666" stroke="#666666" points="124.5,-169 124.5,-169 266.5,-169 266.5,-169 124.5,-169"/>
<polygon fill="none" stroke="#666666" points="124.5,-122 124.5,-212 266.5,-212 266.5,-122 124.5,-122"/>
</a>
</g>
</g>
<!-- Node4&#45;&gt;Node1 -->
<g id="edge3_Node000001_Node000004" class="edge">
<title>Node4&#45;&gt;Node1</title>
<g id="a_edge3_Node000001_Node000004"><a xlink:title=" ">
<path fill="none" stroke="#63b8ff" d="M161.25,-121.9C153.78,-112.35 145.9,-102.32 138.5,-93 136.34,-90.28 134.11,-87.48 131.86,-84.67"/>
<polygon fill="none" stroke="#63b8ff" points="131.68,-84.44 124.8,-82.26 124.17,-75.08 131.04,-77.26 131.68,-84.44"/>
</a>
</g>
<text text-anchor="middle" x="186.5" y="-96" font-family="Helvetica,sans-Serif" font-size="10.00" fill="grey"> +cache_handler</text>
</g>
<!-- Node5 -->
<g id="Node000005" class="node">
<title>Node5</title>
<g id="a_Node000005"><a xlink:title=" ">
<polygon fill="white" stroke="transparent" points="210,-308 181,-308 181,-259 210,-259 210,-308"/>
<text text-anchor="start" x="186.5" y="-295.5" font-family="Helvetica,sans-Serif" font-size="10.00">dict</text>
<text text-anchor="start" x="194" y="-280.5" font-family="Helvetica,sans-Serif" font-size="10.00"> </text>
<text text-anchor="start" x="194" y="-265.5" font-family="Helvetica,sans-Serif" font-size="10.00"> </text>
<polygon fill="#666666" stroke="#666666" points="181.5,-290.5 181.5,-290.5 210.5,-290.5 210.5,-290.5 181.5,-290.5"/>
<polygon fill="#666666" stroke="#666666" points="181.5,-275.5 181.5,-275.5 210.5,-275.5 210.5,-275.5 181.5,-275.5"/>
<polygon fill="none" stroke="#666666" points="181,-259 181,-308 210,-308 210,-259 181,-259"/>
</a>
</g>
</g>
<!-- Node5&#45;&gt;Node4 -->
<g id="edge4_Node000004_Node000005" class="edge">
<title>Node5&#45;&gt;Node4</title>
<g id="a_edge4_Node000004_Node000005"><a xlink:title=" ">
<path fill="none" stroke="#63b8ff" d="M195.5,-258.78C195.5,-248.66 195.5,-236.38 195.5,-224.16"/>
<polygon fill="none" stroke="#63b8ff" points="195.5,-224.06 191.5,-218.06 195.5,-212.06 199.5,-218.06 195.5,-224.06"/>
</a>
</g>
<text text-anchor="middle" x="218.5" y="-233" font-family="Helvetica,sans-Serif" font-size="10.00" fill="grey"> #_cache</text>
</g>
</g>
</svg>
</svg>

<style type='text/css'>
<![CDATA[
[data-mouse-over-selected='false'] { opacity: 0.7; }
[data-mouse-over-selected='true']  { opacity: 1.0; }
]]>
</style>
<script type="application/ecmascript"><![CDATA[
document.addEventListener('DOMContentLoaded', (event) => {
  highlightEdges();
  highlightAdjacentNodes();
});
]]></script>
</svg>
