<?xml version="1.0" encoding="UTF-8" standalone="no"?>
<!DOCTYPE svg PUBLIC "-//W3C//DTD SVG 1.1//EN"
 "http://www.w3.org/Graphics/SVG/1.1/DTD/svg11.dtd">
<!-- Generated by graphviz version 2.43.0 (0)
 -->
<!-- Title: crewai.utilities.rpm_controller.RPMController Pages: 1 -->
<svg width="412pt" height="261pt"
 viewBox="0.00 0.00 412.00 261.00" xmlns="http://www.w3.org/2000/svg" xmlns:xlink="http://www.w3.org/1999/xlink">
<g id="graph0" class="graph" transform="scale(1 1) rotate(0) translate(4 257)">
<title>crewai.utilities.rpm_controller.RPMController</title>
<!-- Node1 -->
<g id="Node000001" class="node">
<title>Node1</title>
<g id="a_Node000001"><a xlink:title=" ">
<polygon fill="#999999" stroke="transparent" points="270,-120 129,-120 129,0 270,0 270,-120"/>
<text text-anchor="start" x="138" y="-108" font-family="Helvetica,sans-Serif" font-size="10.00">crewai.utilities.rpm</text>
<text text-anchor="start" x="138" y="-97" font-family="Helvetica,sans-Serif" font-size="10.00">_controller.RPMController</text>
<text text-anchor="start" x="133.5" y="-82" font-family="Helvetica,sans-Serif" font-size="10.00">+</text>
<text text-anchor="start" x="146.5" y="-82" font-family="Helvetica,sans-Serif" font-size="10.00">model_config</text>
<text text-anchor="start" x="133.5" y="-67" font-family="Helvetica,sans-Serif" font-size="10.00">+</text>
<text text-anchor="start" x="146.5" y="-67" font-family="Helvetica,sans-Serif" font-size="10.00">reset_counter()</text>
<text text-anchor="start" x="133.5" y="-52" font-family="Helvetica,sans-Serif" font-size="10.00">+</text>
<text text-anchor="start" x="146.5" y="-52" font-family="Helvetica,sans-Serif" font-size="10.00">check_or_wait()</text>
<text text-anchor="start" x="133.5" y="-37" font-family="Helvetica,sans-Serif" font-size="10.00">+</text>
<text text-anchor="start" x="146.5" y="-37" font-family="Helvetica,sans-Serif" font-size="10.00">stop_rpm_counter()</text>
<text text-anchor="start" x="133.5" y="-22" font-family="Helvetica,sans-Serif" font-size="10.00">#</text>
<text text-anchor="start" x="146.5" y="-22" font-family="Helvetica,sans-Serif" font-size="10.00">_wait_for_next_minute()</text>
<text text-anchor="start" x="133.5" y="-7" font-family="Helvetica,sans-Serif" font-size="10.00">#</text>
<text text-anchor="start" x="146.5" y="-7" font-family="Helvetica,sans-Serif" font-size="10.00">_reset_request_count()</text>
<polygon fill="#666666" stroke="#666666" points="129.5,-92 129.5,-92 270.5,-92 270.5,-92 129.5,-92"/>
<polygon fill="#666666" stroke="#666666" points="129.5,-77 129.5,-77 144.5,-77 144.5,-77 129.5,-77"/>
<polygon fill="#666666" stroke="#666666" points="144.5,-77 144.5,-77 270.5,-77 270.5,-77 144.5,-77"/>
<polygon fill="none" stroke="#666666" points="129,0 129,-120 270,-120 270,0 129,0"/>
</a>
</g>
</g>
<!-- Node2 -->
<g id="Node000002" class="node">
<title>Node2</title>
<g id="a_Node000002"><a xlink:title=" ">
<polygon fill="white" stroke="transparent" points="65,-240 0,-240 0,-191 65,-191 65,-240"/>
<text text-anchor="start" x="5.5" y="-227.5" font-family="Helvetica,sans-Serif" font-size="10.00">BaseModel</text>
<text text-anchor="start" x="31" y="-212.5" font-family="Helvetica,sans-Serif" font-size="10.00"> </text>
<text text-anchor="start" x="31" y="-197.5" font-family="Helvetica,sans-Serif" font-size="10.00"> </text>
<polygon fill="#666666" stroke="#666666" points="0.5,-222.5 0.5,-222.5 65.5,-222.5 65.5,-222.5 0.5,-222.5"/>
<polygon fill="#666666" stroke="#666666" points="0.5,-207.5 0.5,-207.5 65.5,-207.5 65.5,-207.5 0.5,-207.5"/>
<polygon fill="none" stroke="#666666" points="0,-191 0,-240 65,-240 65,-191 0,-191"/>
</a>
</g>
</g>
<!-- Node2&#45;&gt;Node1 -->
<g id="edge1_Node000001_Node000002" class="edge">
<title>Node2&#45;&gt;Node1</title>
<g id="a_edge1_Node000001_Node000002"><a xlink:title=" ">
<path fill="none" stroke="#63b8ff" d="M65.79,-183.9C85.62,-165.67 111.47,-141.92 135.14,-120.15"/>
<polygon fill="none" stroke="#63b8ff" points="63.22,-181.51 58.23,-190.85 67.96,-186.66 63.22,-181.51"/>
</a>
</g>
</g>
<!-- Node3 -->
<g id="Node000003" class="node">
<title>Node3</title>
<g id="a_Node000003"><a xlink:title=" ">
<polygon fill="white" stroke="transparent" points="122,-240 83,-240 83,-191 122,-191 122,-240"/>
<text text-anchor="start" x="88.5" y="-227.5" font-family="Helvetica,sans-Serif" font-size="10.00">Union</text>
<text text-anchor="start" x="101" y="-212.5" font-family="Helvetica,sans-Serif" font-size="10.00"> </text>
<text text-anchor="start" x="101" y="-197.5" font-family="Helvetica,sans-Serif" font-size="10.00"> </text>
<polygon fill="#666666" stroke="#666666" points="83.5,-222.5 83.5,-222.5 122.5,-222.5 122.5,-222.5 83.5,-222.5"/>
<polygon fill="#666666" stroke="#666666" points="83.5,-207.5 83.5,-207.5 122.5,-207.5 122.5,-207.5 83.5,-207.5"/>
<polygon fill="none" stroke="#666666" points="83,-191 83,-240 122,-240 122,-191 83,-191"/>
</a>
</g>
</g>
<!-- Node3&#45;&gt;Node1 -->
<g id="edge2_Node000001_Node000003" class="edge">
<title>Node3&#45;&gt;Node1</title>
<g id="a_edge2_Node000001_Node000003"><a xlink:title=" ">
<path fill="none" stroke="#63b8ff" d="M111.48,-190.97C117.83,-175.43 127.06,-154.9 137.5,-138 139.12,-135.38 140.81,-132.75 142.57,-130.12"/>
<polygon fill="none" stroke="#63b8ff" points="142.73,-129.89 142.88,-122.68 149.59,-120.04 149.44,-127.25 142.73,-129.89"/>
</a>
</g>
<text text-anchor="middle" x="166.5" y="-146.5" font-family="Helvetica,sans-Serif" font-size="10.00" fill="grey"> +max_rpm</text>
</g>
<!-- Node4 -->
<g id="Node000004" class="node">
<title>Node4</title>
<g id="a_Node000004"><a xlink:href="classcrewai_1_1utilities_1_1logger_1_1Logger.html" target="_top" xlink:title=" ">
<polygon fill="white" stroke="transparent" points="259,-253 140,-253 140,-178 259,-178 259,-253"/>
<text text-anchor="start" x="145.5" y="-240.5" font-family="Helvetica,sans-Serif" font-size="10.00">crewai.utilities.logger.</text>
<text text-anchor="start" x="183" y="-229.5" font-family="Helvetica,sans-Serif" font-size="10.00">Logger</text>
<text text-anchor="start" x="151.5" y="-214.5" font-family="Helvetica,sans-Serif" font-size="10.00">+</text>
<text text-anchor="start" x="171.5" y="-214.5" font-family="Helvetica,sans-Serif" font-size="10.00">verbose_level</text>
<text text-anchor="start" x="151.5" y="-199.5" font-family="Helvetica,sans-Serif" font-size="10.00">+</text>
<text text-anchor="start" x="171.5" y="-199.5" font-family="Helvetica,sans-Serif" font-size="10.00">__init__()</text>
<text text-anchor="start" x="151.5" y="-184.5" font-family="Helvetica,sans-Serif" font-size="10.00">+</text>
<text text-anchor="start" x="171.5" y="-184.5" font-family="Helvetica,sans-Serif" font-size="10.00">log()</text>
<polygon fill="#666666" stroke="#666666" points="140.5,-224.5 140.5,-224.5 259.5,-224.5 259.5,-224.5 140.5,-224.5"/>
<polygon fill="#666666" stroke="#666666" points="140.5,-209.5 140.5,-209.5 169.5,-209.5 169.5,-209.5 140.5,-209.5"/>
<polygon fill="#666666" stroke="#666666" points="169.5,-209.5 169.5,-209.5 259.5,-209.5 259.5,-209.5 169.5,-209.5"/>
<polygon fill="none" stroke="#666666" points="140,-178 140,-253 259,-253 259,-178 140,-178"/>
</a>
</g>
</g>
<!-- Node4&#45;&gt;Node1 -->
<g id="edge3_Node000001_Node000004" class="edge">
<title>Node4&#45;&gt;Node1</title>
<g id="a_edge3_Node000001_Node000004"><a xlink:title=" ">
<path fill="none" stroke="#63b8ff" d="M199.5,-177.73C199.5,-164.16 199.5,-148.26 199.5,-132.65"/>
<polygon fill="none" stroke="#63b8ff" points="199.5,-132.24 195.5,-126.24 199.5,-120.24 203.5,-126.24 199.5,-132.24"/>
</a>
</g>
<text text-anchor="middle" x="221" y="-146.5" font-family="Helvetica,sans-Serif" font-size="10.00" fill="grey"> +logger</text>
</g>
<!-- Node5 -->
<g id="Node000005" class="node">
<title>Node5</title>
<g id="a_Node000005"><a xlink:title=" ">
<polygon fill="white" stroke="transparent" points="300,-240 277,-240 277,-191 300,-191 300,-240"/>
<text text-anchor="start" x="282.5" y="-227.5" font-family="Helvetica,sans-Serif" font-size="10.00">int</text>
<text text-anchor="start" x="287" y="-212.5" font-family="Helvetica,sans-Serif" font-size="10.00"> </text>
<text text-anchor="start" x="287" y="-197.5" font-family="Helvetica,sans-Serif" font-size="10.00"> </text>
<polygon fill="#666666" stroke="#666666" points="277.5,-222.5 277.5,-222.5 300.5,-222.5 300.5,-222.5 277.5,-222.5"/>
<polygon fill="#666666" stroke="#666666" points="277.5,-207.5 277.5,-207.5 300.5,-207.5 300.5,-207.5 277.5,-207.5"/>
<polygon fill="none" stroke="#666666" points="277,-191 277,-240 300,-240 300,-191 277,-191"/>
</a>
</g>
</g>
<!-- Node5&#45;&gt;Node1 -->
<g id="edge4_Node000001_Node000005" class="edge">
<title>Node5&#45;&gt;Node1</title>
<g id="a_edge4_Node000001_Node000005"><a xlink:title=" ">
<path fill="none" stroke="#63b8ff" d="M276.87,-193.27C274.13,-188.26 271.21,-182.94 268.5,-178 258.74,-160.21 256.68,-155.55 246.5,-138 245.07,-135.54 243.62,-133.05 242.13,-130.53"/>
<polygon fill="none" stroke="#63b8ff" points="242.08,-130.43 235.57,-127.31 235.95,-120.11 242.45,-123.23 242.08,-130.43"/>
</a>
</g>
<text text-anchor="middle" x="296.5" y="-146.5" font-family="Helvetica,sans-Serif" font-size="10.00" fill="grey"> #_current_rpm</text>
</g>
<!-- Node6 -->
<g id="Node000006" class="node">
<title>Node6</title>
<g id="a_Node000006"><a xlink:title=" ">
<polygon fill="white" stroke="transparent" points="404,-240 347,-240 347,-191 404,-191 404,-240"/>
<text text-anchor="start" x="352.5" y="-227.5" font-family="Helvetica,sans-Serif" font-size="10.00">threading</text>
<text text-anchor="start" x="374" y="-212.5" font-family="Helvetica,sans-Serif" font-size="10.00"> </text>
<text text-anchor="start" x="374" y="-197.5" font-family="Helvetica,sans-Serif" font-size="10.00"> </text>
<polygon fill="#666666" stroke="#666666" points="347.5,-222.5 347.5,-222.5 404.5,-222.5 404.5,-222.5 347.5,-222.5"/>
<polygon fill="#666666" stroke="#666666" points="347.5,-207.5 347.5,-207.5 404.5,-207.5 404.5,-207.5 347.5,-207.5"/>
<polygon fill="none" stroke="#666666" points="347,-191 347,-240 404,-240 404,-191 347,-191"/>
</a>
</g>
</g>
<!-- Node6&#45;&gt;Node1 -->
<g id="edge5_Node000001_Node000006" class="edge">
<title>Node6&#45;&gt;Node1</title>
<g id="a_edge5_Node000001_Node000006"><a xlink:title=" ">
<path fill="none" stroke="#63b8ff" d="M368.34,-190.85C362.43,-174.48 352.69,-153 338.5,-138 322.35,-120.93 301.57,-106.7 281.02,-95.31"/>
<polygon fill="none" stroke="#63b8ff" points="280.91,-95.25 273.73,-95.96 270.32,-89.61 277.5,-88.9 280.91,-95.25"/>
</a>
</g>
<text text-anchor="middle" x="373.5" y="-152" font-family="Helvetica,sans-Serif" font-size="10.00" fill="grey"> #_lock</text>
<text text-anchor="middle" x="373.5" y="-141" font-family="Helvetica,sans-Serif" font-size="10.00" fill="grey">#_timer</text>
</g>
</g>
</svg>
