<?xml version="1.0" encoding="UTF-8" standalone="no"?>
<!DOCTYPE svg PUBLIC "-//W3C//DTD SVG 1.1//EN"
 "http://www.w3.org/Graphics/SVG/1.1/DTD/svg11.dtd">
<!-- Generated by graphviz version 2.43.0 (0)
 -->
<!-- Title: crewai.task.Task Pages: 1 -->
<!--zoomable 354 -->

<svg id="main" version="1.1" xmlns="http://www.w3.org/2000/svg" xmlns:xlink="http://www.w3.org/1999/xlink" xml:space="preserve" onload="init(evt)">
<style type="text/css"><![CDATA[
.node, .edge {opacity: 0.7;}
.node.selected, .edge.selected {opacity: 1;}
.edge:hover path { stroke: red; }
.edge:hover polygon { stroke: red; fill: red; }
]]></style>

<defs>
  <circle id="rim" cx="0" cy="0" r="7"/>
  <circle id="rim2" cx="0" cy="0" r="3.5"/>
  <g id="zoomPlus">
    <use xlink:href="#rim" fill="#404040"><set attributeName="fill" to="#808080" begin="zoomplus.mouseover" end="zoomplus.mouseout"/></use>
    <path d="M-4,0h8M0,-4v8" fill="none" stroke="white" stroke-width="1.5" pointer-events="none"/>
  </g>
  <g id="zoomMin">
    <use xlink:href="#rim" fill="#404040"><set attributeName="fill" to="#808080" begin="zoomminus.mouseover" end="zoomminus.mouseout"/></use>
    <path d="M-4,0h8" fill="none" stroke="white" stroke-width="1.5" pointer-events="none"/>
  </g>
  <g id="arrowUp" transform="translate(30 24)">
    <use xlink:href="#rim"/>
    <path pointer-events="none" fill="none" stroke="white" stroke-width="1.5" d="M0,-3.0v7 M-2.5,-0.5L0,-3.0L2.5,-0.5"/>
  </g>
  <g id="arrowRight" transform="rotate(90) translate(36 -43)">
    <use xlink:href="#rim"/>
    <path pointer-events="none" fill="none" stroke="white" stroke-width="1.5" d="M0,-3.0v7 M-2.5,-0.5L0,-3.0L2.5,-0.5"/>
  </g>
  <g id="arrowDown" transform="rotate(180) translate(-30 -48)">
    <use xlink:href="#rim"/>
    <path pointer-events="none" fill="none" stroke="white" stroke-width="1.5" d="M0,-3.0v7 M-2.5,-0.5L0,-3.0L2.5,-0.5"/>
  </g>
  <g id="arrowLeft" transform="rotate(270) translate(-36 17)">
    <use xlink:href="#rim"/>
    <path pointer-events="none" fill="none" stroke="white" stroke-width="1.5" d="M0,-3.0v7 M-2.5,-0.5L0,-3.0L2.5,-0.5"/>
  </g>
  <g id="resetDef">
    <use xlink:href="#rim2" fill="#404040"><set attributeName="fill" to="#808080" begin="reset.mouseover" end="reset.mouseout"/></use>
  </g>
</defs>
<script type="application/ecmascript">
var viewWidth = 521;
var viewHeight = 354;
var sectionId = 'dynsection-1';
</script>
<script type="application/ecmascript" xlink:href="svg.min.js"/>
<svg id="graph" class="graph">
<g id="viewport">
<title>crewai.task.Task</title>
<!-- Node1 -->
<g id="Node000001" class="node">
<title>Node1</title>
<g id="a_Node000001"><a xlink:title=" ">
<polygon fill="#999999" stroke="transparent" points="365,-94 246,-94 246,0 365,0 365,-94"/>
<text text-anchor="start" x="265" y="-82" font-family="Helvetica,sans-Serif" font-size="10.00">crewai.task.Task</text>
<text text-anchor="start" x="253" y="-67" font-family="Helvetica,sans-Serif" font-size="10.00">&#45;</text>
<text text-anchor="start" x="263.5" y="-67" font-family="Helvetica,sans-Serif" font-size="10.00">__hash__</text>
<text text-anchor="start" x="250.5" y="-52" font-family="Helvetica,sans-Serif" font-size="10.00">+</text>
<text text-anchor="start" x="263.5" y="-52" font-family="Helvetica,sans-Serif" font-size="10.00">check_tools()</text>
<text text-anchor="start" x="250.5" y="-37" font-family="Helvetica,sans-Serif" font-size="10.00">+</text>
<text text-anchor="start" x="263.5" y="-37" font-family="Helvetica,sans-Serif" font-size="10.00">execute()</text>
<text text-anchor="start" x="250.5" y="-22" font-family="Helvetica,sans-Serif" font-size="10.00">#</text>
<text text-anchor="start" x="263.5" y="-22" font-family="Helvetica,sans-Serif" font-size="10.00">_deny_user_set_id()</text>
<text text-anchor="start" x="250.5" y="-7" font-family="Helvetica,sans-Serif" font-size="10.00">#</text>
<text text-anchor="start" x="263.5" y="-7" font-family="Helvetica,sans-Serif" font-size="10.00">_prompt()</text>
<polygon fill="#666666" stroke="#666666" points="246.5,-77 246.5,-77 365.5,-77 365.5,-77 246.5,-77"/>
<polygon fill="#666666" stroke="#666666" points="246.5,-62 246.5,-62 261.5,-62 261.5,-62 246.5,-62"/>
<polygon fill="#666666" stroke="#666666" points="261.5,-62 261.5,-62 365.5,-62 365.5,-62 261.5,-62"/>
<polygon fill="none" stroke="#666666" points="246,0 246,-94 365,-94 365,0 246,0"/>
</a>
</g>
</g>
<!-- Node2 -->
<g id="Node000002" class="node">
<title>Node2</title>
<g id="a_Node000002"><a xlink:title=" ">
<polygon fill="white" stroke="transparent" points="65,-346 0,-346 0,-297 65,-297 65,-346"/>
<text text-anchor="start" x="5.5" y="-333.5" font-family="Helvetica,sans-Serif" font-size="10.00">BaseModel</text>
<text text-anchor="start" x="31" y="-318.5" font-family="Helvetica,sans-Serif" font-size="10.00"> </text>
<text text-anchor="start" x="31" y="-303.5" font-family="Helvetica,sans-Serif" font-size="10.00"> </text>
<polygon fill="#666666" stroke="#666666" points="0.5,-328.5 0.5,-328.5 65.5,-328.5 65.5,-328.5 0.5,-328.5"/>
<polygon fill="#666666" stroke="#666666" points="0.5,-313.5 0.5,-313.5 65.5,-313.5 65.5,-313.5 0.5,-313.5"/>
<polygon fill="none" stroke="#666666" points="0,-297 0,-346 65,-346 65,-297 0,-297"/>
</a>
</g>
</g>
<!-- Node2&#45;&gt;Node1 -->
<g id="edge1_Node000001_Node000002" class="edge">
<title>Node2&#45;&gt;Node1</title>
<g id="a_edge1_Node000001_Node000002"><a xlink:title=" ">
<path fill="none" stroke="#63b8ff" d="M31.33,-286.63C31.78,-247.15 38.41,-182.07 73.5,-141 117.12,-89.95 192.78,-66.63 245.8,-56.18"/>
<polygon fill="none" stroke="#63b8ff" points="27.83,-286.81 31.34,-296.81 34.83,-286.8 27.83,-286.81"/>
</a>
</g>
</g>
<!-- Node3 -->
<g id="Node000003" class="node">
<title>Node3</title>
<g id="a_Node000003"><a xlink:href="classcrewai_1_1utilities_1_1i18n_1_1I18N.html" target="_top" xlink:title=" ">
<polygon fill="white" stroke="transparent" points="214.5,-250 82.5,-250 82.5,-141 214.5,-141 214.5,-250"/>
<text text-anchor="start" x="87.5" y="-237.5" font-family="Helvetica,sans-Serif" font-size="10.00">crewai.utilities.i18n.I18N</text>
<text text-anchor="start" x="146.5" y="-222.5" font-family="Helvetica,sans-Serif" font-size="10.00"> </text>
<text text-anchor="start" x="92.5" y="-207.5" font-family="Helvetica,sans-Serif" font-size="10.00">+</text>
<text text-anchor="start" x="111.5" y="-207.5" font-family="Helvetica,sans-Serif" font-size="10.00">load_translation()</text>
<text text-anchor="start" x="92.5" y="-192.5" font-family="Helvetica,sans-Serif" font-size="10.00">+</text>
<text text-anchor="start" x="111.5" y="-192.5" font-family="Helvetica,sans-Serif" font-size="10.00">slice()</text>
<text text-anchor="start" x="92.5" y="-177.5" font-family="Helvetica,sans-Serif" font-size="10.00">+</text>
<text text-anchor="start" x="111.5" y="-177.5" font-family="Helvetica,sans-Serif" font-size="10.00">errors()</text>
<text text-anchor="start" x="92.5" y="-162.5" font-family="Helvetica,sans-Serif" font-size="10.00">+</text>
<text text-anchor="start" x="111.5" y="-162.5" font-family="Helvetica,sans-Serif" font-size="10.00">tools()</text>
<text text-anchor="start" x="92.5" y="-147.5" font-family="Helvetica,sans-Serif" font-size="10.00">+</text>
<text text-anchor="start" x="111.5" y="-147.5" font-family="Helvetica,sans-Serif" font-size="10.00">retrieve()</text>
<polygon fill="#666666" stroke="#666666" points="82.5,-232.5 82.5,-232.5 214.5,-232.5 214.5,-232.5 82.5,-232.5"/>
<polygon fill="#666666" stroke="#666666" points="82.5,-217.5 82.5,-217.5 214.5,-217.5 214.5,-217.5 82.5,-217.5"/>
<polygon fill="none" stroke="#666666" points="82.5,-141 82.5,-250 214.5,-250 214.5,-141 82.5,-141"/>
</a>
</g>
</g>
<!-- Node2&#45;&gt;Node3 -->
<g id="edge3_Node000003_Node000002" class="edge">
<title>Node2&#45;&gt;Node3</title>
<g id="a_edge3_Node000003_Node000002"><a xlink:title=" ">
<path fill="none" stroke="#63b8ff" d="M61.61,-289.38C72.76,-277.46 85.81,-263.51 98.37,-250.09"/>
<polygon fill="none" stroke="#63b8ff" points="58.87,-287.19 54.59,-296.88 63.98,-291.97 58.87,-287.19"/>
</a>
</g>
</g>
<!-- Node3&#45;&gt;Node1 -->
<g id="edge2_Node000001_Node000003" class="edge">
<title>Node3&#45;&gt;Node1</title>
<g id="a_edge2_Node000001_Node000003"><a xlink:title=" ">
<path fill="none" stroke="#63b8ff" d="M192.65,-140.62C201.52,-130.75 211.04,-120.81 220.5,-112 225.53,-107.32 230.88,-102.66 236.37,-98.1"/>
<polygon fill="none" stroke="#63b8ff" points="236.37,-98.1 238.51,-91.21 245.69,-90.54 243.55,-97.42 236.37,-98.1"/>
</a>
</g>
<text text-anchor="middle" x="237" y="-115" font-family="Helvetica,sans-Serif" font-size="10.00" fill="grey"> +i18n</text>
</g>
<!-- Node4 -->
<g id="Node000004" class="node">
<title>Node4</title>
<g id="a_Node000004"><a xlink:title=" ">
<polygon fill="white" stroke="transparent" points="113.5,-346 83.5,-346 83.5,-297 113.5,-297 113.5,-346"/>
<text text-anchor="start" x="88.5" y="-333.5" font-family="Helvetica,sans-Serif" font-size="10.00">Dict</text>
<text text-anchor="start" x="96.5" y="-318.5" font-family="Helvetica,sans-Serif" font-size="10.00"> </text>
<text text-anchor="start" x="96.5" y="-303.5" font-family="Helvetica,sans-Serif" font-size="10.00"> </text>
<polygon fill="#666666" stroke="#666666" points="83.5,-328.5 83.5,-328.5 113.5,-328.5 113.5,-328.5 83.5,-328.5"/>
<polygon fill="#666666" stroke="#666666" points="83.5,-313.5 83.5,-313.5 113.5,-313.5 113.5,-313.5 83.5,-313.5"/>
<polygon fill="none" stroke="#666666" points="83.5,-297 83.5,-346 113.5,-346 113.5,-297 83.5,-297"/>
</a>
</g>
</g>
<!-- Node4&#45;&gt;Node3 -->
<g id="edge4_Node000003_Node000004" class="edge">
<title>Node4&#45;&gt;Node3</title>
<g id="a_edge4_Node000003_Node000004"><a xlink:title=" ">
<path fill="none" stroke="#63b8ff" d="M95.5,-296.78C95.11,-287.6 95.62,-277.13 98.5,-268 99.22,-265.72 100.03,-263.46 100.94,-261.21"/>
<polygon fill="none" stroke="#63b8ff" points="101.03,-261.01 99.94,-253.88 106.1,-250.14 107.19,-257.27 101.03,-261.01"/>
</a>
</g>
<text text-anchor="middle" x="136" y="-271" font-family="Helvetica,sans-Serif" font-size="10.00" fill="grey"> #_translations</text>
</g>
<!-- Node5 -->
<g id="Node000005" class="node">
<title>Node5</title>
<g id="a_Node000005"><a xlink:title=" ">
<polygon fill="white" stroke="transparent" points="257.5,-346 205.5,-346 205.5,-297 257.5,-297 257.5,-346"/>
<text text-anchor="start" x="210.5" y="-333.5" font-family="Helvetica,sans-Serif" font-size="10.00">Optional</text>
<text text-anchor="start" x="229.5" y="-318.5" font-family="Helvetica,sans-Serif" font-size="10.00"> </text>
<text text-anchor="start" x="229.5" y="-303.5" font-family="Helvetica,sans-Serif" font-size="10.00"> </text>
<polygon fill="#666666" stroke="#666666" points="205.5,-328.5 205.5,-328.5 257.5,-328.5 257.5,-328.5 205.5,-328.5"/>
<polygon fill="#666666" stroke="#666666" points="205.5,-313.5 205.5,-313.5 257.5,-313.5 257.5,-313.5 205.5,-313.5"/>
<polygon fill="none" stroke="#666666" points="205.5,-297 205.5,-346 257.5,-346 257.5,-297 205.5,-297"/>
</a>
</g>
</g>
<!-- Node5&#45;&gt;Node1 -->
<g id="edge7_Node000001_Node000005" class="edge">
<title>Node5&#45;&gt;Node1</title>
<g id="a_edge7_Node000001_Node000005"><a xlink:title=" ">
<path fill="none" stroke="#63b8ff" d="M245.63,-296.94C248.59,-291.22 251.44,-285.02 253.5,-279 273.66,-220.1 263.17,-201.58 277.5,-141 280.21,-129.55 283.52,-117.44 286.91,-105.87"/>
<polygon fill="none" stroke="#63b8ff" points="287,-105.56 284.89,-98.66 290.44,-94.06 292.55,-100.96 287,-105.56"/>
</a>
</g>
<text text-anchor="middle" x="323" y="-215" font-family="Helvetica,sans-Serif" font-size="10.00" fill="grey"> +agent</text>
<text text-anchor="middle" x="323" y="-204" font-family="Helvetica,sans-Serif" font-size="10.00" fill="grey">+callback</text>
<text text-anchor="middle" x="323" y="-193" font-family="Helvetica,sans-Serif" font-size="10.00" fill="grey">+context</text>
<text text-anchor="middle" x="323" y="-182" font-family="Helvetica,sans-Serif" font-size="10.00" fill="grey">+expected_output</text>
<text text-anchor="middle" x="323" y="-171" font-family="Helvetica,sans-Serif" font-size="10.00" fill="grey">+output</text>
</g>
<!-- Node5&#45;&gt;Node3 -->
<g id="edge5_Node000003_Node000005" class="edge">
<title>Node5&#45;&gt;Node3</title>
<g id="a_edge5_Node000003_Node000005"><a xlink:title=" ">
<path fill="none" stroke="#63b8ff" d="M210.41,-296.93C205.64,-291.21 200.73,-285.01 196.5,-279 192.4,-273.19 188.33,-267 184.39,-260.74"/>
<polygon fill="none" stroke="#63b8ff" points="184.18,-260.39 177.63,-257.37 177.9,-250.16 184.45,-253.19 184.18,-260.39"/>
</a>
</g>
<text text-anchor="middle" x="225" y="-271" font-family="Helvetica,sans-Serif" font-size="10.00" fill="grey"> +language</text>
</g>
<!-- Node6 -->
<g id="Node000006" class="node">
<title>Node6</title>
<g id="a_Node000006"><a xlink:title=" ">
<polygon fill="white" stroke="transparent" points="400,-220 377,-220 377,-171 400,-171 400,-220"/>
<text text-anchor="start" x="382.5" y="-207.5" font-family="Helvetica,sans-Serif" font-size="10.00">str</text>
<text text-anchor="start" x="387" y="-192.5" font-family="Helvetica,sans-Serif" font-size="10.00"> </text>
<text text-anchor="start" x="387" y="-177.5" font-family="Helvetica,sans-Serif" font-size="10.00"> </text>
<polygon fill="#666666" stroke="#666666" points="377.5,-202.5 377.5,-202.5 400.5,-202.5 400.5,-202.5 377.5,-202.5"/>
<polygon fill="#666666" stroke="#666666" points="377.5,-187.5 377.5,-187.5 400.5,-187.5 400.5,-187.5 377.5,-187.5"/>
<polygon fill="none" stroke="#666666" points="377,-171 377,-220 400,-220 400,-171 377,-171"/>
</a>
</g>
</g>
<!-- Node6&#45;&gt;Node1 -->
<g id="edge6_Node000001_Node000006" class="edge">
<title>Node6&#45;&gt;Node1</title>
<g id="a_edge6_Node000001_Node000006"><a xlink:title=" ">
<path fill="none" stroke="#63b8ff" d="M379.09,-170.91C374.71,-161.23 369.03,-150.17 362.5,-141 355.94,-131.78 351.19,-132.13 344.5,-123 340.33,-117.31 336.35,-111.12 332.64,-104.81"/>
<polygon fill="none" stroke="#63b8ff" points="332.53,-104.61 326.11,-101.34 326.66,-94.15 333.09,-97.42 332.53,-104.61"/>
</a>
</g>
<text text-anchor="middle" x="377.5" y="-115" font-family="Helvetica,sans-Serif" font-size="10.00" fill="grey"> +description</text>
</g>
<!-- Node7 -->
<g id="Node000007" class="node">
<title>Node7</title>
<g id="a_Node000007"><a xlink:title=" ">
<polygon fill="white" stroke="transparent" points="446.5,-220 418.5,-220 418.5,-171 446.5,-171 446.5,-220"/>
<text text-anchor="start" x="423.5" y="-207.5" font-family="Helvetica,sans-Serif" font-size="10.00">List</text>
<text text-anchor="start" x="430.5" y="-192.5" font-family="Helvetica,sans-Serif" font-size="10.00"> </text>
<text text-anchor="start" x="430.5" y="-177.5" font-family="Helvetica,sans-Serif" font-size="10.00"> </text>
<polygon fill="#666666" stroke="#666666" points="418.5,-202.5 418.5,-202.5 446.5,-202.5 446.5,-202.5 418.5,-202.5"/>
<polygon fill="#666666" stroke="#666666" points="418.5,-187.5 418.5,-187.5 446.5,-187.5 446.5,-187.5 418.5,-187.5"/>
<polygon fill="none" stroke="#666666" points="418.5,-171 418.5,-220 446.5,-220 446.5,-171 418.5,-171"/>
</a>
</g>
</g>
<!-- Node7&#45;&gt;Node1 -->
<g id="edge8_Node000001_Node000007" class="edge">
<title>Node7&#45;&gt;Node1</title>
<g id="a_edge8_Node000001_Node000007"><a xlink:title=" ">
<path fill="none" stroke="#63b8ff" d="M430.89,-170.76C428.65,-153.06 423.28,-129.1 410.5,-112 401.13,-99.47 388.51,-88.86 375.28,-80.11"/>
<polygon fill="none" stroke="#63b8ff" points="375.28,-80.11 368.07,-80.34 365.08,-73.78 372.29,-73.54 375.28,-80.11"/>
</a>
</g>
<text text-anchor="middle" x="434.5" y="-115" font-family="Helvetica,sans-Serif" font-size="10.00" fill="grey"> +tools</text>
</g>
<!-- Node8 -->
<g id="Node000008" class="node">
<title>Node8</title>
<g id="a_Node000008"><a xlink:title=" ">
<polygon fill="white" stroke="transparent" points="512.5,-220 470.5,-220 470.5,-171 512.5,-171 512.5,-220"/>
<text text-anchor="start" x="475.5" y="-207.5" font-family="Helvetica,sans-Serif" font-size="10.00">UUID4</text>
<text text-anchor="start" x="489.5" y="-192.5" font-family="Helvetica,sans-Serif" font-size="10.00"> </text>
<text text-anchor="start" x="489.5" y="-177.5" font-family="Helvetica,sans-Serif" font-size="10.00"> </text>
<polygon fill="#666666" stroke="#666666" points="470.5,-202.5 470.5,-202.5 512.5,-202.5 512.5,-202.5 470.5,-202.5"/>
<polygon fill="#666666" stroke="#666666" points="470.5,-187.5 470.5,-187.5 512.5,-187.5 512.5,-187.5 470.5,-187.5"/>
<polygon fill="none" stroke="#666666" points="470.5,-171 470.5,-220 512.5,-220 512.5,-171 470.5,-171"/>
</a>
</g>
</g>
<!-- Node8&#45;&gt;Node1 -->
<g id="edge9_Node000001_Node000008" class="edge">
<title>Node8&#45;&gt;Node1</title>
<g id="a_edge9_Node000001_Node000008"><a xlink:title=" ">
<path fill="none" stroke="#63b8ff" d="M486.57,-170.79C481.69,-152.63 472.57,-128.06 456.5,-112 434.83,-90.34 404.69,-75.57 377.03,-65.74"/>
<polygon fill="none" stroke="#63b8ff" points="376.74,-65.64 369.78,-67.53 365.37,-61.83 372.33,-59.94 376.74,-65.64"/>
</a>
</g>
<text text-anchor="middle" x="474" y="-115" font-family="Helvetica,sans-Serif" font-size="10.00" fill="grey"> +id</text>
</g>
</g>
</svg>

<g id="navigator" transform="translate(0 0)" fill="#404254">
  <rect fill="#f2f5e9" fill-opacity="0.5" stroke="#606060" stroke-width=".5" x="0" y="0" width="60" height="60"/>
  <use id="zoomplus" xlink:href="#zoomPlus" x="17" y="9" onmousedown="handleZoom(evt,'in')"/>
  <use id="zoomminus" xlink:href="#zoomMin" x="42" y="9" onmousedown="handleZoom(evt,'out')"/>
  <use id="reset" xlink:href="#resetDef" x="30" y="36" onmousedown="handleReset()"/>
   <use id="arrowup" xlink:href="#arrowUp" x="0" y="0" onmousedown="handlePan(0,-1)"/>
  <use id="arrowright" xlink:href="#arrowRight" x="0" y="0" onmousedown="handlePan(1,0)"/>
  <use id="arrowdown" xlink:href="#arrowDown" x="0" y="0" onmousedown="handlePan(0,1)"/>
  <use id="arrowleft" xlink:href="#arrowLeft" x="0" y="0" onmousedown="handlePan(-1,0)"/>
</g>
<svg viewBox="0 0 15 15" width="100%" height="30px" preserveAspectRatio="xMaxYMin meet">
 <g id="arrow_out" transform="scale(0.3 0.3)">
  <a xlink:href="classcrewai_1_1task_1_1Task__coll__graph_org.svg" target="_base">
   <rect id="button" ry="5" rx="5" y="6" x="6" height="38" width="38"
        fill="#f2f5e9" fill-opacity="0.5" stroke="#606060" stroke-width="1.0"/>
   <path id="arrow"
     d="M 11.500037,31.436501 C 11.940474,20.09759 22.043105,11.32322 32.158766,21.979434 L 37.068811,17.246167 C 37.068811,17.246167 37.088388,32 37.088388,32 L 22.160133,31.978069 C 22.160133,31.978069 26.997745,27.140456 26.997745,27.140456 C 18.528582,18.264221 13.291696,25.230495 11.500037,31.436501 z"
     style="fill:#404040;"/>
  </a>
 </g>
</svg>

<style type='text/css'>
<![CDATA[
[data-mouse-over-selected='false'] { opacity: 0.7; }
[data-mouse-over-selected='true']  { opacity: 1.0; }
]]>
</style>
<script type="application/ecmascript"><![CDATA[
document.addEventListener('DOMContentLoaded', (event) => {
  highlightEdges();
  highlightAdjacentNodes();
});
]]></script>
</svg>
