<?xml version="1.0" encoding="UTF-8" standalone="no"?>
<!DOCTYPE svg PUBLIC "-//W3C//DTD SVG 1.1//EN"
 "http://www.w3.org/Graphics/SVG/1.1/DTD/svg11.dtd">
<!-- Generated by graphviz version 2.43.0 (0)
 -->
<!-- Title: crewai.utilities.i18n.I18N.retrieve Pages: 1 -->
<svg width="521pt" height="187pt"
 viewBox="0.00 0.00 521.00 186.50" xmlns="http://www.w3.org/2000/svg" xmlns:xlink="http://www.w3.org/1999/xlink">
<g id="graph0" class="graph" transform="scale(1 1) rotate(0) translate(4 182.5)">
<title>crewai.utilities.i18n.I18N.retrieve</title>
<!-- Node1 -->
<g id="Node000001" class="node">
<title>Node1</title>
<g id="a_Node000001"><a xlink:title=" ">
<polygon fill="#999999" stroke="#666666" points="513,-130.5 382,-130.5 382,-100.5 513,-100.5 513,-130.5"/>
<text text-anchor="start" x="390" y="-118.5" font-family="Helvetica,sans-Serif" font-size="10.00">crewai.utilities.i18n.I18</text>
<text text-anchor="middle" x="447.5" y="-107.5" font-family="Helvetica,sans-Serif" font-size="10.00">N.retrieve</text>
</a>
</g>
</g>
<!-- Node2 -->
<g id="Node000002" class="node">
<title>Node2</title>
<g id="a_Node000002"><a xlink:href="classcrewai_1_1utilities_1_1i18n_1_1I18N.html#a8cccc93240d5d6047195c04a306f16ea" target="_top" xlink:title=" ">
<polygon fill="white" stroke="#666666" points="346,-178.5 215,-178.5 215,-148.5 346,-148.5 346,-178.5"/>
<text text-anchor="start" x="223" y="-166.5" font-family="Helvetica,sans-Serif" font-size="10.00">crewai.utilities.i18n.I18</text>
<text text-anchor="middle" x="280.5" y="-155.5" font-family="Helvetica,sans-Serif" font-size="10.00">N.errors</text>
</a>
</g>
</g>
<!-- Node1&#45;&gt;Node2 -->
<g id="edge1_Node000001_Node000002" class="edge">
<title>Node1&#45;&gt;Node2</title>
<g id="a_edge1_Node000001_Node000002"><a xlink:title=" ">
<path fill="none" stroke="#63b8ff" d="M384.87,-133.43C367.82,-138.39 349.49,-143.72 333.07,-148.5"/>
<polygon fill="#63b8ff" stroke="#63b8ff" points="386.12,-136.71 394.75,-130.56 384.17,-129.99 386.12,-136.71"/>
</a>
</g>
</g>
<!-- Node3 -->
<g id="Node000003" class="node">
<title>Node3</title>
<g id="a_Node000003"><a xlink:href="classcrewai_1_1utilities_1_1i18n_1_1I18N.html#ae6f8e08d59bbdef7472b29707500d517" target="_top" xlink:title=" ">
<polygon fill="white" stroke="#666666" points="346,-130.5 215,-130.5 215,-100.5 346,-100.5 346,-130.5"/>
<text text-anchor="start" x="223" y="-118.5" font-family="Helvetica,sans-Serif" font-size="10.00">crewai.utilities.i18n.I18</text>
<text text-anchor="middle" x="280.5" y="-107.5" font-family="Helvetica,sans-Serif" font-size="10.00">N.slice</text>
</a>
</g>
</g>
<!-- Node1&#45;&gt;Node3 -->
<g id="edge2_Node000001_Node000003" class="edge">
<title>Node1&#45;&gt;Node3</title>
<g id="a_edge2_Node000001_Node000003"><a xlink:title=" ">
<path fill="none" stroke="#63b8ff" d="M371.76,-115.5C363.18,-115.5 354.48,-115.5 346.05,-115.5"/>
<polygon fill="#63b8ff" stroke="#63b8ff" points="371.76,-119 381.76,-115.5 371.76,-112 371.76,-119"/>
</a>
</g>
</g>
<!-- Node4 -->
<g id="Node000004" class="node">
<title>Node4</title>
<g id="a_Node000004"><a xlink:href="classcrewai_1_1utilities_1_1i18n_1_1I18N.html#a2294cfae6e3e381433fe34ca3b215604" target="_top" xlink:title=" ">
<polygon fill="white" stroke="#666666" points="346,-82.5 215,-82.5 215,-52.5 346,-52.5 346,-82.5"/>
<text text-anchor="start" x="223" y="-70.5" font-family="Helvetica,sans-Serif" font-size="10.00">crewai.utilities.i18n.I18</text>
<text text-anchor="middle" x="280.5" y="-59.5" font-family="Helvetica,sans-Serif" font-size="10.00">N.tools</text>
</a>
</g>
</g>
<!-- Node1&#45;&gt;Node4 -->
<g id="edge3_Node000001_Node000004" class="edge">
<title>Node1&#45;&gt;Node4</title>
<g id="a_edge3_Node000001_Node000004"><a xlink:title=" ">
<path fill="none" stroke="#63b8ff" d="M384.87,-97.57C367.82,-92.61 349.49,-87.28 333.07,-82.5"/>
<polygon fill="#63b8ff" stroke="#63b8ff" points="384.17,-101.01 394.75,-100.44 386.12,-94.29 384.17,-101.01"/>
</a>
</g>
</g>
<!-- Node5 -->
<g id="Node000005" class="node">
<title>Node5</title>
<g id="a_Node000005"><a xlink:href="classcrewai_1_1agents_1_1executor_1_1CrewAgentExecutor.html#ad765e5bbd5cda481278475dbe55eda6d" target="_top" xlink:title=" ">
<polygon fill="white" stroke="#666666" points="168,-152.5 11,-152.5 11,-122.5 168,-122.5 168,-152.5"/>
<text text-anchor="start" x="19" y="-140.5" font-family="Helvetica,sans-Serif" font-size="10.00">crewai.agents.executor.Crew</text>
<text text-anchor="middle" x="89.5" y="-129.5" font-family="Helvetica,sans-Serif" font-size="10.00">AgentExecutor._call</text>
</a>
</g>
</g>
<!-- Node4&#45;&gt;Node5 -->
<g id="edge4_Node000004_Node000005" class="edge">
<title>Node4&#45;&gt;Node5</title>
<g id="a_edge4_Node000004_Node000005"><a xlink:title=" ">
<path fill="none" stroke="#63b8ff" d="M226.13,-86.43C222.33,-88.06 218.58,-89.76 215,-91.5 198.14,-99.7 196.22,-106.08 179,-113.5 171.25,-116.84 162.92,-119.82 154.57,-122.46"/>
<polygon fill="#63b8ff" stroke="#63b8ff" points="227.73,-89.56 235.65,-82.52 225.07,-83.08 227.73,-89.56"/>
</a>
</g>
</g>
<!-- Node6 -->
<g id="Node000006" class="node">
<title>Node6</title>
<g id="a_Node000006"><a xlink:href="classcrewai_1_1task_1_1Task.html#a900dfa97c2d8ef2fab2b866e2bb55e48" target="_top" xlink:title=" ">
<polygon fill="white" stroke="#666666" points="154,-104.5 25,-104.5 25,-74.5 154,-74.5 154,-104.5"/>
<text text-anchor="start" x="33" y="-92.5" font-family="Helvetica,sans-Serif" font-size="10.00">crewai.task.Task.check</text>
<text text-anchor="middle" x="89.5" y="-81.5" font-family="Helvetica,sans-Serif" font-size="10.00">_tools</text>
</a>
</g>
</g>
<!-- Node4&#45;&gt;Node6 -->
<g id="edge5_Node000004_Node000006" class="edge">
<title>Node4&#45;&gt;Node6</title>
<g id="a_edge5_Node000004_Node000006"><a xlink:title=" ">
<path fill="none" stroke="#63b8ff" d="M204.69,-76.21C187.94,-78.16 170.33,-80.21 154.08,-82.1"/>
<polygon fill="#63b8ff" stroke="#63b8ff" points="205.46,-79.64 214.99,-75.01 204.65,-72.69 205.46,-79.64"/>
</a>
</g>
</g>
<!-- Node7 -->
<g id="Node000007" class="node">
<title>Node7</title>
<g id="a_Node000007"><a xlink:href="classcrewai_1_1task_1_1Task.html#a6b1952e6c034f78267fdbe681393dcec" target="_top" xlink:title=" ">
<polygon fill="white" stroke="#666666" points="159,-56 20,-56 20,-37 159,-37 159,-56"/>
<text text-anchor="middle" x="89.5" y="-44" font-family="Helvetica,sans-Serif" font-size="10.00">crewai.task.Task.execute</text>
</a>
</g>
</g>
<!-- Node4&#45;&gt;Node7 -->
<g id="edge6_Node000004_Node000007" class="edge">
<title>Node4&#45;&gt;Node7</title>
<g id="a_edge6_Node000004_Node000007"><a xlink:title=" ">
<path fill="none" stroke="#63b8ff" d="M204.73,-59.19C189.73,-57.53 174.03,-55.78 159.24,-54.14"/>
<polygon fill="#63b8ff" stroke="#63b8ff" points="204.66,-62.71 214.99,-60.33 205.43,-55.75 204.66,-62.71"/>
</a>
</g>
</g>
<!-- Node8 -->
<g id="Node000008" class="node">
<title>Node8</title>
<g id="a_Node000008"><a xlink:href="classcrewai_1_1agent_1_1Agent.html#a7c48837fdc08c5199d61b4ff092d6af5" target="_top" xlink:title=" ">
<polygon fill="white" stroke="#666666" points="179,-19 0,-19 0,0 179,0 179,-19"/>
<text text-anchor="middle" x="89.5" y="-7" font-family="Helvetica,sans-Serif" font-size="10.00">crewai.agent.Agent.execute_task</text>
</a>
</g>
</g>
<!-- Node4&#45;&gt;Node8 -->
<g id="edge7_Node000004_Node000008" class="edge">
<title>Node4&#45;&gt;Node8</title>
<g id="a_edge7_Node000004_Node000008"><a xlink:title=" ">
<path fill="none" stroke="#63b8ff" d="M235.32,-48.61C217.97,-41.65 197.76,-34.11 179,-28.5 167.11,-24.94 154.13,-21.77 141.86,-19.08"/>
<polygon fill="#63b8ff" stroke="#63b8ff" points="234.05,-51.87 244.63,-52.39 236.68,-45.39 234.05,-51.87"/>
</a>
</g>
</g>
</g>
</svg>
