<?xml version="1.0" encoding="UTF-8" standalone="no"?>
<!DOCTYPE svg PUBLIC "-//W3C//DTD SVG 1.1//EN"
 "http://www.w3.org/Graphics/SVG/1.1/DTD/svg11.dtd">
<!-- Generated by graphviz version 2.43.0 (0)
 -->
<!-- Title: crewai.tasks.task_output.TaskOutput Pages: 1 -->
<svg width="239pt" height="175pt"
 viewBox="0.00 0.00 238.50 175.00" xmlns="http://www.w3.org/2000/svg" xmlns:xlink="http://www.w3.org/1999/xlink">

<svg id="main" version="1.1" xmlns="http://www.w3.org/2000/svg" xmlns:xlink="http://www.w3.org/1999/xlink" xml:space="preserve" onload="init(evt)">
<style type="text/css"><![CDATA[
.node, .edge {opacity: 0.7;}
.node.selected, .edge.selected {opacity: 1;}
.edge:hover path { stroke: red; }
.edge:hover polygon { stroke: red; fill: red; }
]]></style>
<script type="application/ecmascript" xlink:href="svg.min.js"/>
<svg id="graph" class="graph">
<g id="graph0" class="graph" transform="scale(1 1) rotate(0) translate(4 171)">
<title>crewai.tasks.task_output.TaskOutput</title>
<!-- Node1 -->
<g id="Node000001" class="node">
<title>Node1</title>
<g id="a_Node000001"><a xlink:title=" ">
<polygon fill="#999999" stroke="transparent" points="162.5,-60 26.5,-60 26.5,0 162.5,0 162.5,-60"/>
<text text-anchor="start" x="31.5" y="-48" font-family="Helvetica,sans-Serif" font-size="10.00">crewai.tasks.task_output.</text>
<text text-anchor="start" x="67" y="-37" font-family="Helvetica,sans-Serif" font-size="10.00">TaskOutput</text>
<text text-anchor="start" x="92.5" y="-22" font-family="Helvetica,sans-Serif" font-size="10.00"> </text>
<text text-anchor="start" x="40.5" y="-7" font-family="Helvetica,sans-Serif" font-size="10.00">+</text>
<text text-anchor="start" x="63.5" y="-7" font-family="Helvetica,sans-Serif" font-size="10.00">set_summary()</text>
<polygon fill="#666666" stroke="#666666" points="26.5,-32 26.5,-32 162.5,-32 162.5,-32 26.5,-32"/>
<polygon fill="#666666" stroke="#666666" points="26.5,-17 26.5,-17 162.5,-17 162.5,-17 26.5,-17"/>
<polygon fill="none" stroke="#666666" points="26.5,0 26.5,-60 162.5,-60 162.5,0 26.5,0"/>
</a>
</g>
</g>
<!-- Node2 -->
<g id="Node000002" class="node">
<title>Node2</title>
<g id="a_Node000002"><a xlink:title=" ">
<polygon fill="white" stroke="transparent" points="65,-167 0,-167 0,-118 65,-118 65,-167"/>
<text text-anchor="start" x="5.5" y="-154.5" font-family="Helvetica,sans-Serif" font-size="10.00">BaseModel</text>
<text text-anchor="start" x="31" y="-139.5" font-family="Helvetica,sans-Serif" font-size="10.00"> </text>
<text text-anchor="start" x="31" y="-124.5" font-family="Helvetica,sans-Serif" font-size="10.00"> </text>
<polygon fill="#666666" stroke="#666666" points="0.5,-149.5 0.5,-149.5 65.5,-149.5 65.5,-149.5 0.5,-149.5"/>
<polygon fill="#666666" stroke="#666666" points="0.5,-134.5 0.5,-134.5 65.5,-134.5 65.5,-134.5 0.5,-134.5"/>
<polygon fill="none" stroke="#666666" points="0,-118 0,-167 65,-167 65,-118 0,-118"/>
</a>
</g>
</g>
<!-- Node2&#45;&gt;Node1 -->
<g id="edge1_Node000001_Node000002" class="edge">
<title>Node2&#45;&gt;Node1</title>
<g id="a_edge1_Node000001_Node000002"><a xlink:title=" ">
<path fill="none" stroke="#63b8ff" d="M50.7,-109.06C59.38,-93.58 69.7,-75.21 78.13,-60.17"/>
<polygon fill="none" stroke="#63b8ff" points="47.64,-107.36 45.8,-117.79 53.75,-110.79 47.64,-107.36"/>
</a>
</g>
</g>
<!-- Node3 -->
<g id="Node000003" class="node">
<title>Node3</title>
<g id="a_Node000003"><a xlink:title=" ">
<polygon fill="white" stroke="transparent" points="106,-167 83,-167 83,-118 106,-118 106,-167"/>
<text text-anchor="start" x="88.5" y="-154.5" font-family="Helvetica,sans-Serif" font-size="10.00">str</text>
<text text-anchor="start" x="93" y="-139.5" font-family="Helvetica,sans-Serif" font-size="10.00"> </text>
<text text-anchor="start" x="93" y="-124.5" font-family="Helvetica,sans-Serif" font-size="10.00"> </text>
<polygon fill="#666666" stroke="#666666" points="83.5,-149.5 83.5,-149.5 106.5,-149.5 106.5,-149.5 83.5,-149.5"/>
<polygon fill="#666666" stroke="#666666" points="83.5,-134.5 83.5,-134.5 106.5,-134.5 106.5,-134.5 83.5,-134.5"/>
<polygon fill="none" stroke="#666666" points="83,-118 83,-167 106,-167 106,-118 83,-118"/>
</a>
</g>
</g>
<!-- Node3&#45;&gt;Node1 -->
<g id="edge2_Node000001_Node000003" class="edge">
<title>Node3&#45;&gt;Node1</title>
<g id="a_edge2_Node000001_Node000003"><a xlink:title=" ">
<path fill="none" stroke="#63b8ff" d="M94.5,-117.79C94.5,-104.62 94.5,-87.84 94.5,-72.55"/>
<polygon fill="none" stroke="#63b8ff" points="94.5,-72.17 90.5,-66.17 94.5,-60.17 98.5,-66.17 94.5,-72.17"/>
</a>
</g>
<text text-anchor="middle" x="127.5" y="-92" font-family="Helvetica,sans-Serif" font-size="10.00" fill="grey"> +description</text>
<text text-anchor="middle" x="127.5" y="-81" font-family="Helvetica,sans-Serif" font-size="10.00" fill="grey">+result</text>
</g>
<!-- Node4 -->
<g id="Node000004" class="node">
<title>Node4</title>
<g id="a_Node000004"><a xlink:title=" ">
<polygon fill="white" stroke="transparent" points="209.5,-167 157.5,-167 157.5,-118 209.5,-118 209.5,-167"/>
<text text-anchor="start" x="162.5" y="-154.5" font-family="Helvetica,sans-Serif" font-size="10.00">Optional</text>
<text text-anchor="start" x="181.5" y="-139.5" font-family="Helvetica,sans-Serif" font-size="10.00"> </text>
<text text-anchor="start" x="181.5" y="-124.5" font-family="Helvetica,sans-Serif" font-size="10.00"> </text>
<polygon fill="#666666" stroke="#666666" points="157.5,-149.5 157.5,-149.5 209.5,-149.5 209.5,-149.5 157.5,-149.5"/>
<polygon fill="#666666" stroke="#666666" points="157.5,-134.5 157.5,-134.5 209.5,-134.5 209.5,-134.5 157.5,-134.5"/>
<polygon fill="none" stroke="#666666" points="157.5,-118 157.5,-167 209.5,-167 209.5,-118 157.5,-118"/>
</a>
</g>
</g>
<!-- Node4&#45;&gt;Node1 -->
<g id="edge3_Node000001_Node000004" class="edge">
<title>Node4&#45;&gt;Node1</title>
<g id="a_edge3_Node000001_Node000004"><a xlink:title=" ">
<path fill="none" stroke="#63b8ff" d="M179.01,-117.78C175.73,-105.06 170.28,-89.64 161.5,-78 158.94,-74.61 156.07,-71.37 152.98,-68.29"/>
<polygon fill="none" stroke="#63b8ff" points="152.75,-68.08 145.62,-67.04 143.83,-60.05 150.97,-61.09 152.75,-68.08"/>
</a>
</g>
<text text-anchor="middle" x="201.5" y="-86.5" font-family="Helvetica,sans-Serif" font-size="10.00" fill="grey"> +summary</text>
</g>
</g>
</svg>
</svg>

<style type='text/css'>
<![CDATA[
[data-mouse-over-selected='false'] { opacity: 0.7; }
[data-mouse-over-selected='true']  { opacity: 1.0; }
]]>
</style>
<script type="application/ecmascript"><![CDATA[
document.addEventListener('DOMContentLoaded', (event) => {
  highlightEdges();
  highlightAdjacentNodes();
});
]]></script>
</svg>
