<?xml version="1.0" encoding="UTF-8" standalone="no"?>
<!DOCTYPE svg PUBLIC "-//W3C//DTD SVG 1.1//EN"
 "http://www.w3.org/Graphics/SVG/1.1/DTD/svg11.dtd">
<!-- Generated by graphviz version 2.43.0 (0)
 -->
<!-- Title: crewai.utilities.i18n.I18N Pages: 1 -->
<svg width="246pt" height="213pt"
 viewBox="0.00 0.00 245.50 213.00" xmlns="http://www.w3.org/2000/svg" xmlns:xlink="http://www.w3.org/1999/xlink">

<svg id="main" version="1.1" xmlns="http://www.w3.org/2000/svg" xmlns:xlink="http://www.w3.org/1999/xlink" xml:space="preserve" onload="init(evt)">
<style type="text/css"><![CDATA[
.node, .edge {opacity: 0.7;}
.node.selected, .edge.selected {opacity: 1;}
.edge:hover path { stroke: red; }
.edge:hover polygon { stroke: red; fill: red; }
]]></style>
<script type="application/ecmascript" xlink:href="svg.min.js"/>
<svg id="graph" class="graph">
<g id="graph0" class="graph" transform="scale(1 1) rotate(0) translate(4 209)">
<title>crewai.utilities.i18n.I18N</title>
<!-- Node1 -->
<g id="Node000001" class="node">
<title>Node1</title>
<g id="a_Node000001"><a xlink:title=" ">
<polygon fill="#999999" stroke="transparent" points="164.5,-109 32.5,-109 32.5,0 164.5,0 164.5,-109"/>
<text text-anchor="start" x="37.5" y="-96.5" font-family="Helvetica,sans-Serif" font-size="10.00">crewai.utilities.i18n.I18N</text>
<text text-anchor="start" x="96.5" y="-81.5" font-family="Helvetica,sans-Serif" font-size="10.00"> </text>
<text text-anchor="start" x="42.5" y="-66.5" font-family="Helvetica,sans-Serif" font-size="10.00">+</text>
<text text-anchor="start" x="61.5" y="-66.5" font-family="Helvetica,sans-Serif" font-size="10.00">load_translation()</text>
<text text-anchor="start" x="42.5" y="-51.5" font-family="Helvetica,sans-Serif" font-size="10.00">+</text>
<text text-anchor="start" x="61.5" y="-51.5" font-family="Helvetica,sans-Serif" font-size="10.00">slice()</text>
<text text-anchor="start" x="42.5" y="-36.5" font-family="Helvetica,sans-Serif" font-size="10.00">+</text>
<text text-anchor="start" x="61.5" y="-36.5" font-family="Helvetica,sans-Serif" font-size="10.00">errors()</text>
<text text-anchor="start" x="42.5" y="-21.5" font-family="Helvetica,sans-Serif" font-size="10.00">+</text>
<text text-anchor="start" x="61.5" y="-21.5" font-family="Helvetica,sans-Serif" font-size="10.00">tools()</text>
<text text-anchor="start" x="42.5" y="-6.5" font-family="Helvetica,sans-Serif" font-size="10.00">+</text>
<text text-anchor="start" x="61.5" y="-6.5" font-family="Helvetica,sans-Serif" font-size="10.00">retrieve()</text>
<polygon fill="#666666" stroke="#666666" points="32.5,-91.5 32.5,-91.5 164.5,-91.5 164.5,-91.5 32.5,-91.5"/>
<polygon fill="#666666" stroke="#666666" points="32.5,-76.5 32.5,-76.5 164.5,-76.5 164.5,-76.5 32.5,-76.5"/>
<polygon fill="none" stroke="#666666" points="32.5,0 32.5,-109 164.5,-109 164.5,0 32.5,0"/>
</a>
</g>
</g>
<!-- Node2 -->
<g id="Node000002" class="node">
<title>Node2</title>
<g id="a_Node000002"><a xlink:title=" ">
<polygon fill="white" stroke="transparent" points="65,-205 0,-205 0,-156 65,-156 65,-205"/>
<text text-anchor="start" x="5.5" y="-192.5" font-family="Helvetica,sans-Serif" font-size="10.00">BaseModel</text>
<text text-anchor="start" x="31" y="-177.5" font-family="Helvetica,sans-Serif" font-size="10.00"> </text>
<text text-anchor="start" x="31" y="-162.5" font-family="Helvetica,sans-Serif" font-size="10.00"> </text>
<polygon fill="#666666" stroke="#666666" points="0.5,-187.5 0.5,-187.5 65.5,-187.5 65.5,-187.5 0.5,-187.5"/>
<polygon fill="#666666" stroke="#666666" points="0.5,-172.5 0.5,-172.5 65.5,-172.5 65.5,-172.5 0.5,-172.5"/>
<polygon fill="none" stroke="#666666" points="0,-156 0,-205 65,-205 65,-156 0,-156"/>
</a>
</g>
</g>
<!-- Node2&#45;&gt;Node1 -->
<g id="edge1_Node000001_Node000002" class="edge">
<title>Node2&#45;&gt;Node1</title>
<g id="a_edge1_Node000001_Node000002"><a xlink:title=" ">
<path fill="none" stroke="#63b8ff" d="M49.79,-147.01C55.97,-135.4 63.11,-122 69.98,-109.09"/>
<polygon fill="none" stroke="#63b8ff" points="46.68,-145.41 45.07,-155.88 52.86,-148.7 46.68,-145.41"/>
</a>
</g>
</g>
<!-- Node3 -->
<g id="Node000003" class="node">
<title>Node3</title>
<g id="a_Node000003"><a xlink:title=" ">
<polygon fill="white" stroke="transparent" points="113.5,-205 83.5,-205 83.5,-156 113.5,-156 113.5,-205"/>
<text text-anchor="start" x="88.5" y="-192.5" font-family="Helvetica,sans-Serif" font-size="10.00">Dict</text>
<text text-anchor="start" x="96.5" y="-177.5" font-family="Helvetica,sans-Serif" font-size="10.00"> </text>
<text text-anchor="start" x="96.5" y="-162.5" font-family="Helvetica,sans-Serif" font-size="10.00"> </text>
<polygon fill="#666666" stroke="#666666" points="83.5,-187.5 83.5,-187.5 113.5,-187.5 113.5,-187.5 83.5,-187.5"/>
<polygon fill="#666666" stroke="#666666" points="83.5,-172.5 83.5,-172.5 113.5,-172.5 113.5,-172.5 83.5,-172.5"/>
<polygon fill="none" stroke="#666666" points="83.5,-156 83.5,-205 113.5,-205 113.5,-156 83.5,-156"/>
</a>
</g>
</g>
<!-- Node3&#45;&gt;Node1 -->
<g id="edge2_Node000001_Node000003" class="edge">
<title>Node3&#45;&gt;Node1</title>
<g id="a_edge2_Node000001_Node000003"><a xlink:title=" ">
<path fill="none" stroke="#63b8ff" d="M98.5,-155.88C98.5,-145.92 98.5,-133.78 98.5,-121.44"/>
<polygon fill="none" stroke="#63b8ff" points="98.5,-121.09 94.5,-115.09 98.5,-109.09 102.5,-115.09 98.5,-121.09"/>
</a>
</g>
<text text-anchor="middle" x="136" y="-130" font-family="Helvetica,sans-Serif" font-size="10.00" fill="grey"> #_translations</text>
</g>
<!-- Node4 -->
<g id="Node000004" class="node">
<title>Node4</title>
<g id="a_Node000004"><a xlink:title=" ">
<polygon fill="white" stroke="transparent" points="222.5,-205 170.5,-205 170.5,-156 222.5,-156 222.5,-205"/>
<text text-anchor="start" x="175.5" y="-192.5" font-family="Helvetica,sans-Serif" font-size="10.00">Optional</text>
<text text-anchor="start" x="194.5" y="-177.5" font-family="Helvetica,sans-Serif" font-size="10.00"> </text>
<text text-anchor="start" x="194.5" y="-162.5" font-family="Helvetica,sans-Serif" font-size="10.00"> </text>
<polygon fill="#666666" stroke="#666666" points="170.5,-187.5 170.5,-187.5 222.5,-187.5 222.5,-187.5 170.5,-187.5"/>
<polygon fill="#666666" stroke="#666666" points="170.5,-172.5 170.5,-172.5 222.5,-172.5 222.5,-172.5 170.5,-172.5"/>
<polygon fill="none" stroke="#666666" points="170.5,-156 170.5,-205 222.5,-205 222.5,-156 170.5,-156"/>
</a>
</g>
</g>
<!-- Node4&#45;&gt;Node1 -->
<g id="edge3_Node000001_Node000004" class="edge">
<title>Node4&#45;&gt;Node1</title>
<g id="a_edge3_Node000001_Node000004"><a xlink:title=" ">
<path fill="none" stroke="#63b8ff" d="M189.04,-155.94C185.45,-146.48 180.58,-135.77 174.5,-127 172.52,-124.14 170.4,-121.3 168.19,-118.51"/>
<polygon fill="none" stroke="#63b8ff" points="168.05,-118.35 161.13,-116.34 160.32,-109.17 167.24,-111.18 168.05,-118.35"/>
</a>
</g>
<text text-anchor="middle" x="209" y="-130" font-family="Helvetica,sans-Serif" font-size="10.00" fill="grey"> +language</text>
</g>
</g>
</svg>
</svg>

<style type='text/css'>
<![CDATA[
[data-mouse-over-selected='false'] { opacity: 0.7; }
[data-mouse-over-selected='true']  { opacity: 1.0; }
]]>
</style>
<script type="application/ecmascript"><![CDATA[
document.addEventListener('DOMContentLoaded', (event) => {
  highlightEdges();
  highlightAdjacentNodes();
});
]]></script>
</svg>
