<?xml version="1.0" encoding="UTF-8" standalone="no"?>
<!DOCTYPE svg PUBLIC "-//W3C//DTD SVG 1.1//EN"
 "http://www.w3.org/Graphics/SVG/1.1/DTD/svg11.dtd">
<!-- Generated by graphviz version 2.43.0 (0)
 -->
<!-- Title: crewai.task.Task.execute Pages: 1 -->
<!--zoomable 146 -->

<svg id="main" version="1.1" xmlns="http://www.w3.org/2000/svg" xmlns:xlink="http://www.w3.org/1999/xlink" xml:space="preserve" onload="init(evt)">
<style type="text/css"><![CDATA[
.node, .edge {opacity: 0.7;}
.node.selected, .edge.selected {opacity: 1;}
.edge:hover path { stroke: red; }
.edge:hover polygon { stroke: red; fill: red; }
]]></style>

<defs>
  <circle id="rim" cx="0" cy="0" r="7"/>
  <circle id="rim2" cx="0" cy="0" r="3.5"/>
  <g id="zoomPlus">
    <use xlink:href="#rim" fill="#404040"><set attributeName="fill" to="#808080" begin="zoomplus.mouseover" end="zoomplus.mouseout"/></use>
    <path d="M-4,0h8M0,-4v8" fill="none" stroke="white" stroke-width="1.5" pointer-events="none"/>
  </g>
  <g id="zoomMin">
    <use xlink:href="#rim" fill="#404040"><set attributeName="fill" to="#808080" begin="zoomminus.mouseover" end="zoomminus.mouseout"/></use>
    <path d="M-4,0h8" fill="none" stroke="white" stroke-width="1.5" pointer-events="none"/>
  </g>
  <g id="arrowUp" transform="translate(30 24)">
    <use xlink:href="#rim"/>
    <path pointer-events="none" fill="none" stroke="white" stroke-width="1.5" d="M0,-3.0v7 M-2.5,-0.5L0,-3.0L2.5,-0.5"/>
  </g>
  <g id="arrowRight" transform="rotate(90) translate(36 -43)">
    <use xlink:href="#rim"/>
    <path pointer-events="none" fill="none" stroke="white" stroke-width="1.5" d="M0,-3.0v7 M-2.5,-0.5L0,-3.0L2.5,-0.5"/>
  </g>
  <g id="arrowDown" transform="rotate(180) translate(-30 -48)">
    <use xlink:href="#rim"/>
    <path pointer-events="none" fill="none" stroke="white" stroke-width="1.5" d="M0,-3.0v7 M-2.5,-0.5L0,-3.0L2.5,-0.5"/>
  </g>
  <g id="arrowLeft" transform="rotate(270) translate(-36 17)">
    <use xlink:href="#rim"/>
    <path pointer-events="none" fill="none" stroke="white" stroke-width="1.5" d="M0,-3.0v7 M-2.5,-0.5L0,-3.0L2.5,-0.5"/>
  </g>
  <g id="resetDef">
    <use xlink:href="#rim2" fill="#404040"><set attributeName="fill" to="#808080" begin="reset.mouseover" end="reset.mouseout"/></use>
  </g>
</defs>
<script type="application/ecmascript">
var viewWidth = 722;
var viewHeight = 146;
var sectionId = 'dynsection-4';
</script>
<script type="application/ecmascript" xlink:href="svg.min.js"/>
<svg id="graph" class="graph">
<g id="viewport">
<title>crewai.task.Task.execute</title>
<!-- Node1 -->
<g id="Node000001" class="node">
<title>Node1</title>
<g id="a_Node000001"><a xlink:title=" ">
<polygon fill="#999999" stroke="#666666" points="139,-72.5 0,-72.5 0,-53.5 139,-53.5 139,-72.5"/>
<text text-anchor="middle" x="69.5" y="-60.5" font-family="Helvetica,sans-Serif" font-size="10.00">crewai.task.Task.execute</text>
</a>
</g>
</g>
<!-- Node2 -->
<g id="Node000002" class="node">
<title>Node2</title>
<g id="a_Node000002"><a xlink:href="classcrewai_1_1task_1_1Task.html#aa0d58bb3eb6b5f38903b09e12723443c" target="_top" xlink:title=" ">
<polygon fill="white" stroke="#666666" points="316,-115.5 175,-115.5 175,-96.5 316,-96.5 316,-115.5"/>
<text text-anchor="middle" x="245.5" y="-103.5" font-family="Helvetica,sans-Serif" font-size="10.00">crewai.task.Task._prompt</text>
</a>
</g>
</g>
<!-- Node1&#45;&gt;Node2 -->
<g id="edge1_Node000001_Node000002" class="edge">
<title>Node1&#45;&gt;Node2</title>
<g id="a_edge1_Node000001_Node000002"><a xlink:title=" ">
<path fill="none" stroke="#63b8ff" d="M109.12,-72.54C134.8,-78.89 168.73,-87.27 196.19,-94.06"/>
<polygon fill="#63b8ff" stroke="#63b8ff" points="195.44,-97.48 205.99,-96.48 197.12,-90.69 195.44,-97.48"/>
</a>
</g>
</g>
<!-- Node3 -->
<g id="Node000003" class="node">
<title>Node3</title>
<g id="a_Node000003"><a xlink:href="classcrewai_1_1tools_1_1agent__tools_1_1AgentTools.html#a8f75d1a8273fea9bc9cb1fe44970dcba" target="_top" xlink:title=" ">
<polygon fill="white" stroke="#666666" points="310,-78 181,-78 181,-48 310,-48 310,-78"/>
<text text-anchor="start" x="189" y="-66" font-family="Helvetica,sans-Serif" font-size="10.00">crewai.tools.agent</text>
<text text-anchor="middle" x="245.5" y="-55" font-family="Helvetica,sans-Serif" font-size="10.00">_tools.AgentTools.tools</text>
</a>
</g>
</g>
<!-- Node1&#45;&gt;Node3 -->
<g id="edge2_Node000001_Node000003" class="edge">
<title>Node1&#45;&gt;Node3</title>
<g id="a_edge2_Node000001_Node000003"><a xlink:title=" ">
<path fill="none" stroke="#63b8ff" d="M139.27,-63C149.53,-63 160.14,-63 170.5,-63"/>
<polygon fill="#63b8ff" stroke="#63b8ff" points="170.76,-66.5 180.76,-63 170.76,-59.5 170.76,-66.5"/>
</a>
</g>
</g>
<!-- Node7 -->
<g id="Node000007" class="node">
<title>Node7</title>
<g id="a_Node000007"><a xlink:href="classcrewai_1_1utilities_1_1i18n_1_1I18N.html#a2294cfae6e3e381433fe34ca3b215604" target="_top" xlink:title=" ">
<polygon fill="white" stroke="#666666" points="311,-30 180,-30 180,0 311,0 311,-30"/>
<text text-anchor="start" x="188" y="-18" font-family="Helvetica,sans-Serif" font-size="10.00">crewai.utilities.i18n.I18</text>
<text text-anchor="middle" x="245.5" y="-7" font-family="Helvetica,sans-Serif" font-size="10.00">N.tools</text>
</a>
</g>
</g>
<!-- Node1&#45;&gt;Node7 -->
<g id="edge7_Node000001_Node000007" class="edge">
<title>Node1&#45;&gt;Node7</title>
<g id="a_edge7_Node000001_Node000007"><a xlink:title=" ">
<path fill="none" stroke="#63b8ff" d="M105.29,-53.4C126.66,-47.51 154.68,-39.78 179.99,-32.8"/>
<polygon fill="#63b8ff" stroke="#63b8ff" points="181.19,-36.1 189.9,-30.06 179.33,-29.35 181.19,-36.1"/>
</a>
</g>
</g>
<!-- Node4 -->
<g id="Node000004" class="node">
<title>Node4</title>
<g id="a_Node000004"><a xlink:href="classcrewai_1_1tools_1_1agent__tools_1_1AgentTools.html#a290f5c30711c7c9d1e907ad7d08c91aa" target="_top" xlink:title=" ">
<polygon fill="white" stroke="#666666" points="501.5,-137.5 379.5,-137.5 379.5,-96.5 501.5,-96.5 501.5,-137.5"/>
<text text-anchor="start" x="387.5" y="-125.5" font-family="Helvetica,sans-Serif" font-size="10.00">crewai.tools.agent</text>
<text text-anchor="start" x="387.5" y="-114.5" font-family="Helvetica,sans-Serif" font-size="10.00">_tools.AgentTools.ask</text>
<text text-anchor="middle" x="440.5" y="-103.5" font-family="Helvetica,sans-Serif" font-size="10.00">_question</text>
</a>
</g>
</g>
<!-- Node3&#45;&gt;Node4 -->
<g id="edge3_Node000003_Node000004" class="edge">
<title>Node3&#45;&gt;Node4</title>
<g id="a_edge3_Node000003_Node000004"><a xlink:title=" ">
<path fill="none" stroke="#63b8ff" d="M300.26,-78.04C321.73,-84.05 346.74,-91.05 369.59,-97.44"/>
<polygon fill="#63b8ff" stroke="#63b8ff" points="368.66,-100.81 379.24,-100.14 370.55,-94.07 368.66,-100.81"/>
</a>
</g>
</g>
<!-- Node6 -->
<g id="Node000006" class="node">
<title>Node6</title>
<g id="a_Node000006"><a xlink:href="classcrewai_1_1tools_1_1agent__tools_1_1AgentTools.html#ac2685ccb3a19ca1d9b88069b41647ea2" target="_top" xlink:title=" ">
<polygon fill="white" stroke="#666666" points="529,-78 352,-78 352,-48 529,-48 529,-78"/>
<text text-anchor="start" x="360" y="-66" font-family="Helvetica,sans-Serif" font-size="10.00">crewai.tools.agent</text>
<text text-anchor="middle" x="440.5" y="-55" font-family="Helvetica,sans-Serif" font-size="10.00">_tools.AgentTools.delegate_work</text>
</a>
</g>
</g>
<!-- Node3&#45;&gt;Node6 -->
<g id="edge5_Node000003_Node000006" class="edge">
<title>Node3&#45;&gt;Node6</title>
<g id="a_edge5_Node000003_Node000006"><a xlink:title=" ">
<path fill="none" stroke="#63b8ff" d="M310.23,-63C320.3,-63 330.91,-63 341.54,-63"/>
<polygon fill="#63b8ff" stroke="#63b8ff" points="341.72,-66.5 351.72,-63 341.72,-59.5 341.72,-66.5"/>
</a>
</g>
</g>
<!-- Node5 -->
<g id="Node000005" class="node">
<title>Node5</title>
<g id="a_Node000005"><a xlink:href="classcrewai_1_1tools_1_1agent__tools_1_1AgentTools.html#a72b356439ca50e92f24c997827fbae52" target="_top" xlink:title=" ">
<polygon fill="white" stroke="#666666" points="714,-105 565,-105 565,-75 714,-75 714,-105"/>
<text text-anchor="start" x="573" y="-93" font-family="Helvetica,sans-Serif" font-size="10.00">crewai.tools.agent</text>
<text text-anchor="middle" x="639.5" y="-82" font-family="Helvetica,sans-Serif" font-size="10.00">_tools.AgentTools._execute</text>
</a>
</g>
</g>
<!-- Node4&#45;&gt;Node5 -->
<g id="edge4_Node000004_Node000005" class="edge">
<title>Node4&#45;&gt;Node5</title>
<g id="a_edge4_Node000004_Node000005"><a xlink:title=" ">
<path fill="none" stroke="#63b8ff" d="M501.68,-108.75C518.32,-106.47 536.7,-103.95 554.44,-101.52"/>
<polygon fill="#63b8ff" stroke="#63b8ff" points="555.36,-104.93 564.79,-100.1 554.41,-97.99 555.36,-104.93"/>
</a>
</g>
</g>
<!-- Node6&#45;&gt;Node5 -->
<g id="edge6_Node000006_Node000005" class="edge">
<title>Node6&#45;&gt;Node5</title>
<g id="a_edge6_Node000006_Node000005"><a xlink:title=" ">
<path fill="none" stroke="#63b8ff" d="M529.05,-75C537.62,-76.17 546.3,-77.36 554.83,-78.53"/>
<polygon fill="#63b8ff" stroke="#63b8ff" points="554.37,-82 564.75,-79.89 555.32,-75.07 554.37,-82"/>
</a>
</g>
</g>
<!-- Node8 -->
<g id="Node000008" class="node">
<title>Node8</title>
<g id="a_Node000008"><a xlink:href="classcrewai_1_1utilities_1_1i18n_1_1I18N.html#a2f3ca7e4a835ed7045071a2136b23656" target="_top" xlink:title=" ">
<polygon fill="white" stroke="#666666" points="506,-30 375,-30 375,0 506,0 506,-30"/>
<text text-anchor="start" x="383" y="-18" font-family="Helvetica,sans-Serif" font-size="10.00">crewai.utilities.i18n.I18</text>
<text text-anchor="middle" x="440.5" y="-7" font-family="Helvetica,sans-Serif" font-size="10.00">N.retrieve</text>
</a>
</g>
</g>
<!-- Node7&#45;&gt;Node8 -->
<g id="edge8_Node000007_Node000008" class="edge">
<title>Node7&#45;&gt;Node8</title>
<g id="a_edge8_Node000007_Node000008"><a xlink:title=" ">
<path fill="none" stroke="#63b8ff" d="M311.03,-15C328.16,-15 346.81,-15 364.45,-15"/>
<polygon fill="#63b8ff" stroke="#63b8ff" points="364.7,-18.5 374.7,-15 364.7,-11.5 364.7,-18.5"/>
</a>
</g>
</g>
</g>
</svg>

<g id="navigator" transform="translate(0 0)" fill="#404254">
  <rect fill="#f2f5e9" fill-opacity="0.5" stroke="#606060" stroke-width=".5" x="0" y="0" width="60" height="60"/>
  <use id="zoomplus" xlink:href="#zoomPlus" x="17" y="9" onmousedown="handleZoom(evt,'in')"/>
  <use id="zoomminus" xlink:href="#zoomMin" x="42" y="9" onmousedown="handleZoom(evt,'out')"/>
  <use id="reset" xlink:href="#resetDef" x="30" y="36" onmousedown="handleReset()"/>
   <use id="arrowup" xlink:href="#arrowUp" x="0" y="0" onmousedown="handlePan(0,-1)"/>
  <use id="arrowright" xlink:href="#arrowRight" x="0" y="0" onmousedown="handlePan(1,0)"/>
  <use id="arrowdown" xlink:href="#arrowDown" x="0" y="0" onmousedown="handlePan(0,1)"/>
  <use id="arrowleft" xlink:href="#arrowLeft" x="0" y="0" onmousedown="handlePan(-1,0)"/>
</g>
<svg viewBox="0 0 15 15" width="100%" height="30px" preserveAspectRatio="xMaxYMin meet">
 <g id="arrow_out" transform="scale(0.3 0.3)">
  <a xlink:href="classcrewai_1_1task_1_1Task_a6b1952e6c034f78267fdbe681393dcec_cgraph_org.svg" target="_base">
   <rect id="button" ry="5" rx="5" y="6" x="6" height="38" width="38"
        fill="#f2f5e9" fill-opacity="0.5" stroke="#606060" stroke-width="1.0"/>
   <path id="arrow"
     d="M 11.500037,31.436501 C 11.940474,20.09759 22.043105,11.32322 32.158766,21.979434 L 37.068811,17.246167 C 37.068811,17.246167 37.088388,32 37.088388,32 L 22.160133,31.978069 C 22.160133,31.978069 26.997745,27.140456 26.997745,27.140456 C 18.528582,18.264221 13.291696,25.230495 11.500037,31.436501 z"
     style="fill:#404040;"/>
  </a>
 </g>
</svg>

<style type='text/css'>
<![CDATA[
[data-mouse-over-selected='false'] { opacity: 0.7; }
[data-mouse-over-selected='true']  { opacity: 1.0; }
]]>
</style>
<script type="application/ecmascript"><![CDATA[
document.addEventListener('DOMContentLoaded', (event) => {
  highlightEdges();
  highlightAdjacentNodes();
});
]]></script>
</svg>
