<?xml version="1.0" encoding="UTF-8" standalone="no"?>
<!DOCTYPE svg PUBLIC "-//W3C//DTD SVG 1.1//EN"
 "http://www.w3.org/Graphics/SVG/1.1/DTD/svg11.dtd">
<!-- Generated by graphviz version 2.43.0 (0)
 -->
<!-- Title: Graphical Class Hierarchy Pages: 1 -->
<svg width="263pt" height="429pt"
 viewBox="0.00 0.00 263.00 428.50" xmlns="http://www.w3.org/2000/svg" xmlns:xlink="http://www.w3.org/1999/xlink">
<g id="graph0" class="graph" transform="scale(1 1) rotate(0) translate(4 424.5)">
<title>Graphical Class Hierarchy</title>
<!-- Node0 -->
<g id="Node000000" class="node">
<title>Node0</title>
<g id="a_Node000000"><a xlink:title=" ">
<polygon fill="#e0e0e0" stroke="#999999" points="71,-230.5 0,-230.5 0,-211.5 71,-211.5 71,-230.5"/>
<text text-anchor="middle" x="35.5" y="-218.5" font-family="Helvetica,sans-Serif" font-size="10.00">BaseModel</text>
</a>
</g>
</g>
<!-- Node1 -->
<g id="Node000001" class="node">
<title>Node1</title>
<g id="a_Node000001"><a xlink:href="classcrewai_1_1agent_1_1Agent.html" target="_top" xlink:title=" ">
<polygon fill="white" stroke="#666666" points="236.5,-420.5 125.5,-420.5 125.5,-401.5 236.5,-401.5 236.5,-420.5"/>
<text text-anchor="middle" x="181" y="-408.5" font-family="Helvetica,sans-Serif" font-size="10.00">crewai.agent.Agent</text>
</a>
</g>
</g>
<!-- Node0&#45;&gt;Node1 -->
<g id="edge3_Node000000_Node000001" class="edge">
<title>Node0&#45;&gt;Node1</title>
<g id="a_edge3_Node000000_Node000001"><a xlink:title=" ">
<path fill="none" stroke="#63b8ff" d="M38.94,-241.02C44.39,-276.82 60.92,-351.82 107,-392 112.33,-396.65 118.66,-400.18 125.33,-402.86"/>
<polygon fill="#63b8ff" stroke="#63b8ff" points="42.37,-240.29 37.54,-230.87 35.44,-241.25 42.37,-240.29"/>
</a>
</g>
</g>
<!-- Node2 -->
<g id="Node000002" class="node">
<title>Node2</title>
<g id="a_Node000002"><a xlink:href="classcrewai_1_1agents_1_1cache_1_1cache__hit_1_1CacheHit.html" target="_top" xlink:title=" ">
<polygon fill="white" stroke="#666666" points="255,-383 107,-383 107,-353 255,-353 255,-383"/>
<text text-anchor="start" x="115" y="-371" font-family="Helvetica,sans-Serif" font-size="10.00">crewai.agents.cache.cache</text>
<text text-anchor="middle" x="181" y="-360" font-family="Helvetica,sans-Serif" font-size="10.00">_hit.CacheHit</text>
</a>
</g>
</g>
<!-- Node0&#45;&gt;Node2 -->
<g id="edge4_Node000000_Node000002" class="edge">
<title>Node0&#45;&gt;Node2</title>
<g id="a_edge4_Node000000_Node000002"><a xlink:title=" ">
<path fill="none" stroke="#63b8ff" d="M42.62,-240.4C52.13,-267.44 72.96,-316.25 107,-344 111.24,-347.46 115.99,-350.42 120.99,-352.96"/>
<polygon fill="#63b8ff" stroke="#63b8ff" points="45.83,-238.95 39.33,-230.57 39.19,-241.17 45.83,-238.95"/>
</a>
</g>
</g>
<!-- Node3 -->
<g id="Node000003" class="node">
<title>Node3</title>
<g id="a_Node000003"><a xlink:href="classcrewai_1_1crew_1_1Crew.html" target="_top" xlink:title=" ">
<polygon fill="white" stroke="#666666" points="232,-334.5 130,-334.5 130,-315.5 232,-315.5 232,-334.5"/>
<text text-anchor="middle" x="181" y="-322.5" font-family="Helvetica,sans-Serif" font-size="10.00">crewai.crew.Crew</text>
</a>
</g>
</g>
<!-- Node0&#45;&gt;Node3 -->
<g id="edge5_Node000000_Node000003" class="edge">
<title>Node0&#45;&gt;Node3</title>
<g id="a_edge5_Node000000_Node000003"><a xlink:title=" ">
<path fill="none" stroke="#63b8ff" d="M46.68,-239.43C58.56,-259.19 80.06,-290 107,-307 113.95,-311.39 121.91,-314.71 129.95,-317.22"/>
<polygon fill="#63b8ff" stroke="#63b8ff" points="49.68,-237.63 41.64,-230.73 43.62,-241.14 49.68,-237.63"/>
</a>
</g>
</g>
<!-- Node4 -->
<g id="Node000004" class="node">
<title>Node4</title>
<g id="a_Node000004"><a xlink:href="classcrewai_1_1task_1_1Task.html" target="_top" xlink:title=" ">
<polygon fill="white" stroke="#666666" points="230,-297.5 132,-297.5 132,-278.5 230,-278.5 230,-297.5"/>
<text text-anchor="middle" x="181" y="-285.5" font-family="Helvetica,sans-Serif" font-size="10.00">crewai.task.Task</text>
</a>
</g>
</g>
<!-- Node0&#45;&gt;Node4 -->
<g id="edge6_Node000000_Node000004" class="edge">
<title>Node0&#45;&gt;Node4</title>
<g id="a_edge6_Node000000_Node000004"><a xlink:title=" ">
<path fill="none" stroke="#63b8ff" d="M56.31,-237.23C69.87,-247.62 88.64,-260.66 107,-269 115.35,-272.79 124.59,-275.93 133.61,-278.49"/>
<polygon fill="#63b8ff" stroke="#63b8ff" points="58.24,-234.29 48.22,-230.86 53.91,-239.79 58.24,-234.29"/>
</a>
</g>
</g>
<!-- Node5 -->
<g id="Node000005" class="node">
<title>Node5</title>
<g id="a_Node000005"><a xlink:href="classcrewai_1_1tasks_1_1task__output_1_1TaskOutput.html" target="_top" xlink:title=" ">
<polygon fill="white" stroke="#666666" points="252,-260 110,-260 110,-230 252,-230 252,-260"/>
<text text-anchor="start" x="118" y="-248" font-family="Helvetica,sans-Serif" font-size="10.00">crewai.tasks.task_output.</text>
<text text-anchor="middle" x="181" y="-237" font-family="Helvetica,sans-Serif" font-size="10.00">TaskOutput</text>
</a>
</g>
</g>
<!-- Node0&#45;&gt;Node5 -->
<g id="edge7_Node000000_Node000005" class="edge">
<title>Node0&#45;&gt;Node5</title>
<g id="a_edge7_Node000000_Node000005"><a xlink:title=" ">
<path fill="none" stroke="#63b8ff" d="M81.2,-228.48C90.31,-230 100.11,-231.64 109.86,-233.27"/>
<polygon fill="#63b8ff" stroke="#63b8ff" points="81.68,-225.01 71.24,-226.81 80.52,-231.91 81.68,-225.01"/>
</a>
</g>
</g>
<!-- Node6 -->
<g id="Node000006" class="node">
<title>Node6</title>
<g id="a_Node000006"><a xlink:href="classcrewai_1_1tools_1_1agent__tools_1_1AgentTools.html" target="_top" xlink:title=" ">
<polygon fill="white" stroke="#666666" points="234.5,-212 127.5,-212 127.5,-182 234.5,-182 234.5,-212"/>
<text text-anchor="start" x="135.5" y="-200" font-family="Helvetica,sans-Serif" font-size="10.00">crewai.tools.agent</text>
<text text-anchor="middle" x="181" y="-189" font-family="Helvetica,sans-Serif" font-size="10.00">_tools.AgentTools</text>
</a>
</g>
</g>
<!-- Node0&#45;&gt;Node6 -->
<g id="edge8_Node000000_Node000006" class="edge">
<title>Node0&#45;&gt;Node6</title>
<g id="a_edge8_Node000000_Node000006"><a xlink:title=" ">
<path fill="none" stroke="#63b8ff" d="M81.49,-213.48C96.04,-211.04 112.31,-208.32 127.37,-205.8"/>
<polygon fill="#63b8ff" stroke="#63b8ff" points="80.52,-210.09 71.24,-215.19 81.68,-216.99 80.52,-210.09"/>
</a>
</g>
</g>
<!-- Node7 -->
<g id="Node000007" class="node">
<title>Node7</title>
<g id="a_Node000007"><a xlink:href="classcrewai_1_1tools_1_1cache__tools_1_1CacheTools.html" target="_top" xlink:title=" ">
<polygon fill="white" stroke="#666666" points="234.5,-164 127.5,-164 127.5,-134 234.5,-134 234.5,-164"/>
<text text-anchor="start" x="135.5" y="-152" font-family="Helvetica,sans-Serif" font-size="10.00">crewai.tools.cache</text>
<text text-anchor="middle" x="181" y="-141" font-family="Helvetica,sans-Serif" font-size="10.00">_tools.CacheTools</text>
</a>
</g>
</g>
<!-- Node0&#45;&gt;Node7 -->
<g id="edge9_Node000000_Node000007" class="edge">
<title>Node0&#45;&gt;Node7</title>
<g id="a_edge9_Node000000_Node000007"><a xlink:title=" ">
<path fill="none" stroke="#63b8ff" d="M56.49,-205.15C70.12,-194.92 88.91,-181.91 107,-173 113.7,-169.7 120.97,-166.69 128.22,-164.01"/>
<polygon fill="#63b8ff" stroke="#63b8ff" points="54.14,-202.54 48.34,-211.4 58.4,-208.09 54.14,-202.54"/>
</a>
</g>
</g>
<!-- Node8 -->
<g id="Node000008" class="node">
<title>Node8</title>
<g id="a_Node000008"><a xlink:href="classcrewai_1_1utilities_1_1i18n_1_1I18N.html" target="_top" xlink:title=" ">
<polygon fill="white" stroke="#666666" points="250,-115.5 112,-115.5 112,-96.5 250,-96.5 250,-115.5"/>
<text text-anchor="middle" x="181" y="-103.5" font-family="Helvetica,sans-Serif" font-size="10.00">crewai.utilities.i18n.I18N</text>
</a>
</g>
</g>
<!-- Node0&#45;&gt;Node8 -->
<g id="edge10_Node000000_Node000008" class="edge">
<title>Node0&#45;&gt;Node8</title>
<g id="a_edge10_Node000000_Node000008"><a xlink:title=" ">
<path fill="none" stroke="#63b8ff" d="M45.33,-202.15C56.57,-180.26 78.04,-144.64 107,-125 112.74,-121.1 119.24,-118.01 125.93,-115.54"/>
<polygon fill="#63b8ff" stroke="#63b8ff" points="42.05,-200.88 40.78,-211.4 48.33,-203.98 42.05,-200.88"/>
</a>
</g>
</g>
<!-- Node9 -->
<g id="Node000009" class="node">
<title>Node9</title>
<g id="a_Node000009"><a xlink:href="classcrewai_1_1utilities_1_1prompts_1_1Prompts.html" target="_top" xlink:title=" ">
<polygon fill="white" stroke="#666666" points="248.5,-78 113.5,-78 113.5,-48 248.5,-48 248.5,-78"/>
<text text-anchor="start" x="121.5" y="-66" font-family="Helvetica,sans-Serif" font-size="10.00">crewai.utilities.prompts.</text>
<text text-anchor="middle" x="181" y="-55" font-family="Helvetica,sans-Serif" font-size="10.00">Prompts</text>
</a>
</g>
</g>
<!-- Node0&#45;&gt;Node9 -->
<g id="edge11_Node000000_Node000009" class="edge">
<title>Node0&#45;&gt;Node9</title>
<g id="a_edge11_Node000000_Node000009"><a xlink:title=" ">
<path fill="none" stroke="#63b8ff" d="M41.73,-201.72C50.5,-172.94 70.87,-118.85 107,-88 111.48,-84.17 116.58,-80.92 121.95,-78.16"/>
<polygon fill="#63b8ff" stroke="#63b8ff" points="38.35,-200.83 38.93,-211.41 45.07,-202.78 38.35,-200.83"/>
</a>
</g>
</g>
<!-- Node10 -->
<g id="Node000010" class="node">
<title>Node10</title>
<g id="a_Node000010"><a xlink:href="classcrewai_1_1utilities_1_1rpm__controller_1_1RPMController.html" target="_top" xlink:title=" ">
<polygon fill="white" stroke="#666666" points="251,-30 111,-30 111,0 251,0 251,-30"/>
<text text-anchor="start" x="119" y="-18" font-family="Helvetica,sans-Serif" font-size="10.00">crewai.utilities.rpm</text>
<text text-anchor="middle" x="181" y="-7" font-family="Helvetica,sans-Serif" font-size="10.00">_controller.RPMController</text>
</a>
</g>
</g>
<!-- Node0&#45;&gt;Node10 -->
<g id="edge12_Node000000_Node000010" class="edge">
<title>Node0&#45;&gt;Node10</title>
<g id="a_edge12_Node000000_Node000010"><a xlink:title=" ">
<path fill="none" stroke="#63b8ff" d="M38.66,-201.03C43.73,-163.88 59.79,-83.82 107,-39 110.58,-35.6 114.65,-32.68 118.99,-30.18"/>
<polygon fill="#63b8ff" stroke="#63b8ff" points="35.17,-200.75 37.41,-211.1 42.11,-201.61 35.17,-200.75"/>
</a>
</g>
</g>
</g>
</svg>
