<?xml version="1.0" encoding="UTF-8" standalone="no"?>
<!DOCTYPE svg PUBLIC "-//W3C//DTD SVG 1.1//EN"
 "http://www.w3.org/Graphics/SVG/1.1/DTD/svg11.dtd">
<!-- Generated by graphviz version 2.43.0 (0)
 -->
<!-- Title: crewai.process.Process Pages: 1 -->
<svg width="173pt" height="164pt"
 viewBox="0.00 0.00 173.00 164.00" xmlns="http://www.w3.org/2000/svg" xmlns:xlink="http://www.w3.org/1999/xlink">
<g id="graph0" class="graph" transform="scale(1 1) rotate(0) translate(4 160)">
<title>crewai.process.Process</title>
<!-- Node1 -->
<g id="Node000001" class="node">
<title>Node1</title>
<g id="a_Node000001"><a xlink:title=" ">
<polygon fill="#999999" stroke="transparent" points="124,-49 0,-49 0,0 124,0 124,-49"/>
<text text-anchor="start" x="5" y="-36.5" font-family="Helvetica,sans-Serif" font-size="10.00">crewai.process.Process</text>
<text text-anchor="start" x="60" y="-21.5" font-family="Helvetica,sans-Serif" font-size="10.00"> </text>
<text text-anchor="start" x="60" y="-6.5" font-family="Helvetica,sans-Serif" font-size="10.00"> </text>
<polygon fill="#666666" stroke="#666666" points="0,-31.5 0,-31.5 124,-31.5 124,-31.5 0,-31.5"/>
<polygon fill="#666666" stroke="#666666" points="0,-16.5 0,-16.5 124,-16.5 124,-16.5 0,-16.5"/>
<polygon fill="none" stroke="#666666" points="0,0 0,-49 124,-49 124,0 0,0"/>
</a>
</g>
</g>
<!-- Node2 -->
<g id="Node000002" class="node">
<title>Node2</title>
<g id="a_Node000002"><a xlink:title=" ">
<polygon fill="white" stroke="transparent" points="57.5,-156 34.5,-156 34.5,-107 57.5,-107 57.5,-156"/>
<text text-anchor="start" x="40" y="-143.5" font-family="Helvetica,sans-Serif" font-size="10.00">str</text>
<text text-anchor="start" x="44.5" y="-128.5" font-family="Helvetica,sans-Serif" font-size="10.00"> </text>
<text text-anchor="start" x="44.5" y="-113.5" font-family="Helvetica,sans-Serif" font-size="10.00"> </text>
<polygon fill="#666666" stroke="#666666" points="35,-138.5 35,-138.5 58,-138.5 58,-138.5 35,-138.5"/>
<polygon fill="#666666" stroke="#666666" points="35,-123.5 35,-123.5 58,-123.5 58,-123.5 35,-123.5"/>
<polygon fill="none" stroke="#666666" points="34.5,-107 34.5,-156 57.5,-156 57.5,-107 34.5,-107"/>
</a>
</g>
</g>
<!-- Node2&#45;&gt;Node1 -->
<g id="edge7_Node000001_Node000002" class="edge">
<title>Node2&#45;&gt;Node1</title>
<g id="a_edge7_Node000001_Node000002"><a xlink:title=" ">
<path fill="none" stroke="#63b8ff" d="M41.15,-96.65C40.64,-86.99 40.93,-76.5 43,-67 44.32,-60.96 46.59,-54.75 49.13,-49.03"/>
<polygon fill="none" stroke="#63b8ff" points="37.67,-97.05 41.97,-106.73 44.65,-96.48 37.67,-97.05"/>
</a>
</g>
</g>
<!-- Node2&#45;&gt;Node1 -->
<g id="edge9_Node000001_Node000002" class="edge">
<title>Node2&#45;&gt;Node1</title>
<g id="a_edge9_Node000001_Node000002"><a xlink:title=" ">
<path fill="none" stroke="#63b8ff" d="M49.59,-106.94C51.63,-93.52 54.24,-76.44 56.53,-61.39"/>
<polygon fill="none" stroke="#63b8ff" points="56.56,-61.21 53.51,-54.68 58.37,-49.35 61.42,-55.88 56.56,-61.21"/>
</a>
</g>
<text text-anchor="middle" x="90.5" y="-81" font-family="Helvetica,sans-Serif" font-size="10.00" fill="grey"> +hierarchical</text>
<text text-anchor="middle" x="90.5" y="-70" font-family="Helvetica,sans-Serif" font-size="10.00" fill="grey">+sequential</text>
</g>
<!-- Node3 -->
<g id="Node000003" class="node">
<title>Node3</title>
<g id="a_Node000003"><a xlink:title=" ">
<polygon fill="white" stroke="transparent" points="165,-156 127,-156 127,-107 165,-107 165,-156"/>
<text text-anchor="start" x="132" y="-143.5" font-family="Helvetica,sans-Serif" font-size="10.00">Enum</text>
<text text-anchor="start" x="144" y="-128.5" font-family="Helvetica,sans-Serif" font-size="10.00"> </text>
<text text-anchor="start" x="144" y="-113.5" font-family="Helvetica,sans-Serif" font-size="10.00"> </text>
<polygon fill="#666666" stroke="#666666" points="127,-138.5 127,-138.5 165,-138.5 165,-138.5 127,-138.5"/>
<polygon fill="#666666" stroke="#666666" points="127,-123.5 127,-123.5 165,-123.5 165,-123.5 127,-123.5"/>
<polygon fill="none" stroke="#666666" points="127,-107 127,-156 165,-156 165,-107 127,-107"/>
</a>
</g>
</g>
<!-- Node3&#45;&gt;Node1 -->
<g id="edge8_Node000001_Node000003" class="edge">
<title>Node3&#45;&gt;Node1</title>
<g id="a_edge8_Node000001_Node000003"><a xlink:title=" ">
<path fill="none" stroke="#63b8ff" d="M141.92,-96.91C139.43,-86.58 135.43,-75.66 129,-67 123.94,-60.19 117.4,-54.24 110.4,-49.14"/>
<polygon fill="none" stroke="#63b8ff" points="138.53,-97.82 143.93,-106.94 145.39,-96.44 138.53,-97.82"/>
</a>
</g>
</g>
</g>
</svg>
