<?xml version="1.0" encoding="UTF-8" standalone="no"?>
<!DOCTYPE svg PUBLIC "-//W3C//DTD SVG 1.1//EN"
 "http://www.w3.org/Graphics/SVG/1.1/DTD/svg11.dtd">
<!-- Generated by graphviz version 2.43.0 (0)
 -->
<!-- Title: crewai.utilities.prompts.Prompts Pages: 1 -->
<svg width="290pt" height="387pt"
 viewBox="0.00 0.00 289.50 387.00" xmlns="http://www.w3.org/2000/svg" xmlns:xlink="http://www.w3.org/1999/xlink">
<g id="graph0" class="graph" transform="scale(1 1) rotate(0) translate(4 383)">
<title>crewai.utilities.prompts.Prompts</title>
<!-- Node1 -->
<g id="Node000001" class="node">
<title>Node1</title>
<g id="a_Node000001"><a xlink:title=" ">
<polygon fill="#999999" stroke="transparent" points="181,-127 44,-127 44,0 181,0 181,-127"/>
<text text-anchor="start" x="53.5" y="-114.5" font-family="Helvetica,sans-Serif" font-size="10.00">crewai.utilities.prompts.</text>
<text text-anchor="start" x="92.5" y="-103.5" font-family="Helvetica,sans-Serif" font-size="10.00">Prompts</text>
<text text-anchor="start" x="111" y="-88.5" font-family="Helvetica,sans-Serif" font-size="10.00"> </text>
<text text-anchor="start" x="48.5" y="-73.5" font-family="Helvetica,sans-Serif" font-size="10.00">+</text>
<text text-anchor="start" x="61.5" y="-73.5" font-family="Helvetica,sans-Serif" font-size="10.00">task_execution_with</text>
<text text-anchor="start" x="61.5" y="-62.5" font-family="Helvetica,sans-Serif" font-size="10.00">_memory()</text>
<text text-anchor="start" x="48.5" y="-47.5" font-family="Helvetica,sans-Serif" font-size="10.00">+</text>
<text text-anchor="start" x="61.5" y="-47.5" font-family="Helvetica,sans-Serif" font-size="10.00">task_execution_without</text>
<text text-anchor="start" x="61.5" y="-36.5" font-family="Helvetica,sans-Serif" font-size="10.00">_tools()</text>
<text text-anchor="start" x="48.5" y="-21.5" font-family="Helvetica,sans-Serif" font-size="10.00">+</text>
<text text-anchor="start" x="61.5" y="-21.5" font-family="Helvetica,sans-Serif" font-size="10.00">task_execution()</text>
<text text-anchor="start" x="48.5" y="-6.5" font-family="Helvetica,sans-Serif" font-size="10.00">#</text>
<text text-anchor="start" x="61.5" y="-6.5" font-family="Helvetica,sans-Serif" font-size="10.00">_build_prompt()</text>
<polygon fill="#666666" stroke="#666666" points="44.5,-98.5 44.5,-98.5 181.5,-98.5 181.5,-98.5 44.5,-98.5"/>
<polygon fill="#666666" stroke="#666666" points="44.5,-83.5 44.5,-83.5 181.5,-83.5 181.5,-83.5 44.5,-83.5"/>
<polygon fill="none" stroke="#666666" points="44,0 44,-127 181,-127 181,0 44,0"/>
</a>
</g>
</g>
<!-- Node2 -->
<g id="Node000002" class="node">
<title>Node2</title>
<g id="a_Node000002"><a xlink:title=" ">
<polygon fill="white" stroke="transparent" points="65,-379 0,-379 0,-330 65,-330 65,-379"/>
<text text-anchor="start" x="5.5" y="-366.5" font-family="Helvetica,sans-Serif" font-size="10.00">BaseModel</text>
<text text-anchor="start" x="31" y="-351.5" font-family="Helvetica,sans-Serif" font-size="10.00"> </text>
<text text-anchor="start" x="31" y="-336.5" font-family="Helvetica,sans-Serif" font-size="10.00"> </text>
<polygon fill="#666666" stroke="#666666" points="0.5,-361.5 0.5,-361.5 65.5,-361.5 65.5,-361.5 0.5,-361.5"/>
<polygon fill="#666666" stroke="#666666" points="0.5,-346.5 0.5,-346.5 65.5,-346.5 65.5,-346.5 0.5,-346.5"/>
<polygon fill="none" stroke="#666666" points="0,-330 0,-379 65,-379 65,-330 0,-330"/>
</a>
</g>
</g>
<!-- Node2&#45;&gt;Node1 -->
<g id="edge13_Node000001_Node000002" class="edge">
<title>Node2&#45;&gt;Node1</title>
<g id="a_edge13_Node000001_Node000002"><a xlink:title=" ">
<path fill="none" stroke="#63b8ff" d="M27.87,-319.65C24.1,-282.82 21.67,-222.71 37.5,-174 42.77,-157.78 51.26,-141.79 60.67,-127.25"/>
<polygon fill="none" stroke="#63b8ff" points="24.42,-320.29 29.01,-329.84 31.38,-319.51 24.42,-320.29"/>
</a>
</g>
</g>
<!-- Node3 -->
<g id="Node000003" class="node">
<title>Node3</title>
<g id="a_Node000003"><a xlink:href="$classcrewai_1_1utilities_1_1i18n_1_1I18N.html" xlink:title=" ">
<polygon fill="white" stroke="transparent" points="178.5,-283 46.5,-283 46.5,-174 178.5,-174 178.5,-283"/>
<text text-anchor="start" x="51.5" y="-270.5" font-family="Helvetica,sans-Serif" font-size="10.00">crewai.utilities.i18n.I18N</text>
<text text-anchor="start" x="110.5" y="-255.5" font-family="Helvetica,sans-Serif" font-size="10.00"> </text>
<text text-anchor="start" x="56.5" y="-240.5" font-family="Helvetica,sans-Serif" font-size="10.00">+</text>
<text text-anchor="start" x="75.5" y="-240.5" font-family="Helvetica,sans-Serif" font-size="10.00">load_translation()</text>
<text text-anchor="start" x="56.5" y="-225.5" font-family="Helvetica,sans-Serif" font-size="10.00">+</text>
<text text-anchor="start" x="75.5" y="-225.5" font-family="Helvetica,sans-Serif" font-size="10.00">slice()</text>
<text text-anchor="start" x="56.5" y="-210.5" font-family="Helvetica,sans-Serif" font-size="10.00">+</text>
<text text-anchor="start" x="75.5" y="-210.5" font-family="Helvetica,sans-Serif" font-size="10.00">errors()</text>
<text text-anchor="start" x="56.5" y="-195.5" font-family="Helvetica,sans-Serif" font-size="10.00">+</text>
<text text-anchor="start" x="75.5" y="-195.5" font-family="Helvetica,sans-Serif" font-size="10.00">tools()</text>
<text text-anchor="start" x="56.5" y="-180.5" font-family="Helvetica,sans-Serif" font-size="10.00">+</text>
<text text-anchor="start" x="75.5" y="-180.5" font-family="Helvetica,sans-Serif" font-size="10.00">retrieve()</text>
<polygon fill="#666666" stroke="#666666" points="46.5,-265.5 46.5,-265.5 178.5,-265.5 178.5,-265.5 46.5,-265.5"/>
<polygon fill="#666666" stroke="#666666" points="46.5,-250.5 46.5,-250.5 178.5,-250.5 178.5,-250.5 46.5,-250.5"/>
<polygon fill="none" stroke="#666666" points="46.5,-174 46.5,-283 178.5,-283 178.5,-174 46.5,-174"/>
</a>
</g>
</g>
<!-- Node2&#45;&gt;Node3 -->
<g id="edge15_Node000003_Node000002" class="edge">
<title>Node2&#45;&gt;Node3</title>
<g id="a_edge15_Node000003_Node000002"><a xlink:title=" ">
<path fill="none" stroke="#63b8ff" d="M53.24,-321.35C60.78,-309.67 69.52,-296.13 77.93,-283.09"/>
<polygon fill="none" stroke="#63b8ff" points="50.22,-319.58 47.74,-329.88 56.1,-323.38 50.22,-319.58"/>
</a>
</g>
</g>
<!-- Node3&#45;&gt;Node1 -->
<g id="edge14_Node000001_Node000003" class="edge">
<title>Node3&#45;&gt;Node1</title>
<g id="a_edge14_Node000001_Node000003"><a xlink:title=" ">
<path fill="none" stroke="#63b8ff" d="M112.5,-173.68C112.5,-162.6 112.5,-150.74 112.5,-139.08"/>
<polygon fill="none" stroke="#63b8ff" points="112.5,-139.03 108.5,-133.03 112.5,-127.03 116.5,-133.03 112.5,-139.03"/>
</a>
</g>
<text text-anchor="middle" x="129" y="-148" font-family="Helvetica,sans-Serif" font-size="10.00" fill="grey"> +i18n</text>
</g>
<!-- Node4 -->
<g id="Node000004" class="node">
<title>Node4</title>
<g id="a_Node000004"><a xlink:title=" ">
<polygon fill="white" stroke="transparent" points="120.5,-379 90.5,-379 90.5,-330 120.5,-330 120.5,-379"/>
<text text-anchor="start" x="95.5" y="-366.5" font-family="Helvetica,sans-Serif" font-size="10.00">Dict</text>
<text text-anchor="start" x="103.5" y="-351.5" font-family="Helvetica,sans-Serif" font-size="10.00"> </text>
<text text-anchor="start" x="103.5" y="-336.5" font-family="Helvetica,sans-Serif" font-size="10.00"> </text>
<polygon fill="#666666" stroke="#666666" points="90.5,-361.5 90.5,-361.5 120.5,-361.5 120.5,-361.5 90.5,-361.5"/>
<polygon fill="#666666" stroke="#666666" points="90.5,-346.5 90.5,-346.5 120.5,-346.5 120.5,-346.5 90.5,-346.5"/>
<polygon fill="none" stroke="#666666" points="90.5,-330 90.5,-379 120.5,-379 120.5,-330 90.5,-330"/>
</a>
</g>
</g>
<!-- Node4&#45;&gt;Node3 -->
<g id="edge16_Node000003_Node000004" class="edge">
<title>Node4&#45;&gt;Node3</title>
<g id="a_edge16_Node000003_Node000004"><a xlink:title=" ">
<path fill="none" stroke="#63b8ff" d="M105.62,-329.97C105.76,-320.91 106.01,-310.47 106.5,-301 106.59,-299.21 106.69,-297.4 106.8,-295.57"/>
<polygon fill="none" stroke="#63b8ff" points="106.82,-295.33 103.22,-289.08 107.61,-283.35 111.2,-289.6 106.82,-295.33"/>
</a>
</g>
<text text-anchor="middle" x="144" y="-304" font-family="Helvetica,sans-Serif" font-size="10.00" fill="grey"> #_translations</text>
</g>
<!-- Node5 -->
<g id="Node000005" class="node">
<title>Node5</title>
<g id="a_Node000005"><a xlink:title=" ">
<polygon fill="white" stroke="transparent" points="229.5,-379 177.5,-379 177.5,-330 229.5,-330 229.5,-379"/>
<text text-anchor="start" x="182.5" y="-366.5" font-family="Helvetica,sans-Serif" font-size="10.00">Optional</text>
<text text-anchor="start" x="201.5" y="-351.5" font-family="Helvetica,sans-Serif" font-size="10.00"> </text>
<text text-anchor="start" x="201.5" y="-336.5" font-family="Helvetica,sans-Serif" font-size="10.00"> </text>
<polygon fill="#666666" stroke="#666666" points="177.5,-361.5 177.5,-361.5 229.5,-361.5 229.5,-361.5 177.5,-361.5"/>
<polygon fill="#666666" stroke="#666666" points="177.5,-346.5 177.5,-346.5 229.5,-346.5 229.5,-346.5 177.5,-346.5"/>
<polygon fill="none" stroke="#666666" points="177.5,-330 177.5,-379 229.5,-379 229.5,-330 177.5,-330"/>
</a>
</g>
</g>
<!-- Node5&#45;&gt;Node3 -->
<g id="edge17_Node000003_Node000005" class="edge">
<title>Node5&#45;&gt;Node3</title>
<g id="a_edge17_Node000003_Node000005"><a xlink:title=" ">
<path fill="none" stroke="#63b8ff" d="M195.73,-329.82C192.11,-320.45 187.31,-309.83 181.5,-301 179.69,-298.26 177.78,-295.53 175.77,-292.82"/>
<polygon fill="none" stroke="#63b8ff" points="175.6,-292.61 168.75,-290.36 168.19,-283.17 175.04,-285.42 175.6,-292.61"/>
</a>
</g>
<text text-anchor="middle" x="216" y="-304" font-family="Helvetica,sans-Serif" font-size="10.00" fill="grey"> +language</text>
</g>
<!-- Node6 -->
<g id="Node000006" class="node">
<title>Node6</title>
<g id="a_Node000006"><a xlink:title=" ">
<polygon fill="white" stroke="transparent" points="250,-253 197,-253 197,-204 250,-204 250,-253"/>
<text text-anchor="start" x="202.5" y="-240.5" font-family="Helvetica,sans-Serif" font-size="10.00">ClassVar</text>
<text text-anchor="start" x="222" y="-225.5" font-family="Helvetica,sans-Serif" font-size="10.00"> </text>
<text text-anchor="start" x="222" y="-210.5" font-family="Helvetica,sans-Serif" font-size="10.00"> </text>
<polygon fill="#666666" stroke="#666666" points="197.5,-235.5 197.5,-235.5 250.5,-235.5 250.5,-235.5 197.5,-235.5"/>
<polygon fill="#666666" stroke="#666666" points="197.5,-220.5 197.5,-220.5 250.5,-220.5 250.5,-220.5 197.5,-220.5"/>
<polygon fill="none" stroke="#666666" points="197,-204 197,-253 250,-253 250,-204 197,-204"/>
</a>
</g>
</g>
<!-- Node6&#45;&gt;Node1 -->
<g id="edge18_Node000001_Node000006" class="edge">
<title>Node6&#45;&gt;Node1</title>
<g id="a_edge18_Node000001_Node000006"><a xlink:title=" ">
<path fill="none" stroke="#63b8ff" d="M207.59,-203.77C201.35,-194.47 194.1,-183.73 187.5,-174 179.46,-162.16 170.91,-149.62 162.56,-137.42"/>
<polygon fill="none" stroke="#63b8ff" points="162.4,-137.17 155.71,-134.48 155.62,-127.27 162.31,-129.96 162.4,-137.17"/>
</a>
</g>
<text text-anchor="middle" x="227" y="-148" font-family="Helvetica,sans-Serif" font-size="10.00" fill="grey"> +SCRATCHPAD_SLICE</text>
</g>
</g>
</svg>
