<?xml version="1.0" encoding="UTF-8" standalone="no"?>
<!DOCTYPE svg PUBLIC "-//W3C//DTD SVG 1.1//EN"
 "http://www.w3.org/Graphics/SVG/1.1/DTD/svg11.dtd">
<!-- Generated by graphviz version 2.43.0 (0)
 -->
<!-- Title: crewai.crew.Crew Pages: 1 -->
<svg width="995pt" height="503pt"
 viewBox="0.00 0.00 994.50 503.00" xmlns="http://www.w3.org/2000/svg" xmlns:xlink="http://www.w3.org/1999/xlink">
<g id="graph0" class="graph" transform="scale(1 1) rotate(0) translate(4 499)">
<title>crewai.crew.Crew</title>
<!-- Node1 -->
<g id="Node000001" class="node">
<title>Node1</title>
<g id="a_Node000001"><a xlink:title=" ">
<polygon fill="#999999" stroke="transparent" points="613,-184 458,-184 458,0 613,0 613,-184"/>
<text text-anchor="start" x="493" y="-172" font-family="Helvetica,sans-Serif" font-size="10.00">crewai.crew.Crew</text>
<text text-anchor="start" x="462.5" y="-157" font-family="Helvetica,sans-Serif" font-size="10.00">+</text>
<text text-anchor="start" x="475.5" y="-157" font-family="Helvetica,sans-Serif" font-size="10.00">model_config</text>
<text text-anchor="start" x="465" y="-142" font-family="Helvetica,sans-Serif" font-size="10.00">&#45;</text>
<text text-anchor="start" x="475.5" y="-142" font-family="Helvetica,sans-Serif" font-size="10.00">__hash__</text>
<text text-anchor="start" x="462.5" y="-127" font-family="Helvetica,sans-Serif" font-size="10.00">+</text>
<text text-anchor="start" x="475.5" y="-127" font-family="Helvetica,sans-Serif" font-size="10.00">check_config_type()</text>
<text text-anchor="start" x="462.5" y="-112" font-family="Helvetica,sans-Serif" font-size="10.00">+</text>
<text text-anchor="start" x="475.5" y="-112" font-family="Helvetica,sans-Serif" font-size="10.00">set_private_attrs()</text>
<text text-anchor="start" x="462.5" y="-97" font-family="Helvetica,sans-Serif" font-size="10.00">+</text>
<text text-anchor="start" x="475.5" y="-97" font-family="Helvetica,sans-Serif" font-size="10.00">check_config()</text>
<text text-anchor="start" x="462.5" y="-82" font-family="Helvetica,sans-Serif" font-size="10.00">+</text>
<text text-anchor="start" x="475.5" y="-82" font-family="Helvetica,sans-Serif" font-size="10.00">kickoff()</text>
<text text-anchor="start" x="462.5" y="-67" font-family="Helvetica,sans-Serif" font-size="10.00">#</text>
<text text-anchor="start" x="475.5" y="-67" font-family="Helvetica,sans-Serif" font-size="10.00">_deny_user_set_id()</text>
<text text-anchor="start" x="462.5" y="-52" font-family="Helvetica,sans-Serif" font-size="10.00">#</text>
<text text-anchor="start" x="475.5" y="-52" font-family="Helvetica,sans-Serif" font-size="10.00">_setup_from_config()</text>
<text text-anchor="start" x="462.5" y="-37" font-family="Helvetica,sans-Serif" font-size="10.00">#</text>
<text text-anchor="start" x="475.5" y="-37" font-family="Helvetica,sans-Serif" font-size="10.00">_create_task()</text>
<text text-anchor="start" x="462.5" y="-22" font-family="Helvetica,sans-Serif" font-size="10.00">#</text>
<text text-anchor="start" x="475.5" y="-22" font-family="Helvetica,sans-Serif" font-size="10.00">_run_sequential_process()</text>
<text text-anchor="start" x="462.5" y="-7" font-family="Helvetica,sans-Serif" font-size="10.00">#</text>
<text text-anchor="start" x="475.5" y="-7" font-family="Helvetica,sans-Serif" font-size="10.00">_run_hierarchical_process()</text>
<polygon fill="#666666" stroke="#666666" points="458.5,-167 458.5,-167 613.5,-167 613.5,-167 458.5,-167"/>
<polygon fill="#666666" stroke="#666666" points="458.5,-137 458.5,-137 473.5,-137 473.5,-137 458.5,-137"/>
<polygon fill="#666666" stroke="#666666" points="473.5,-137 473.5,-137 613.5,-137 613.5,-137 473.5,-137"/>
<polygon fill="none" stroke="#666666" points="458,0 458,-184 613,-184 613,0 458,0"/>
</a>
</g>
</g>
<!-- Node2 -->
<g id="Node000002" class="node">
<title>Node2</title>
<g id="a_Node000002"><a xlink:title=" ">
<polygon fill="white" stroke="transparent" points="65,-482 0,-482 0,-433 65,-433 65,-482"/>
<text text-anchor="start" x="5.5" y="-469.5" font-family="Helvetica,sans-Serif" font-size="10.00">BaseModel</text>
<text text-anchor="start" x="31" y="-454.5" font-family="Helvetica,sans-Serif" font-size="10.00"> </text>
<text text-anchor="start" x="31" y="-439.5" font-family="Helvetica,sans-Serif" font-size="10.00"> </text>
<polygon fill="#666666" stroke="#666666" points="0.5,-464.5 0.5,-464.5 65.5,-464.5 65.5,-464.5 0.5,-464.5"/>
<polygon fill="#666666" stroke="#666666" points="0.5,-449.5 0.5,-449.5 65.5,-449.5 65.5,-449.5 0.5,-449.5"/>
<polygon fill="none" stroke="#666666" points="0,-433 0,-482 65,-482 65,-433 0,-433"/>
</a>
</g>
</g>
<!-- Node2&#45;&gt;Node1 -->
<g id="edge37_Node000001_Node000002" class="edge">
<title>Node2&#45;&gt;Node1</title>
<g id="a_edge37_Node000001_Node000002"><a xlink:title=" ">
<path fill="none" stroke="#63b8ff" d="M35.59,-422.51C41.6,-375.76 59,-291.76 108.5,-242 203.46,-146.53 362.82,-112.1 457.68,-99.78"/>
<polygon fill="none" stroke="#63b8ff" points="32.08,-422.39 34.38,-432.73 39.03,-423.21 32.08,-422.39"/>
</a>
</g>
</g>
<!-- Node3 -->
<g id="Node000003" class="node">
<title>Node3</title>
<g id="a_Node000003"><a xlink:href="$classcrewai_1_1utilities_1_1rpm__controller_1_1RPMController.html" xlink:title=" ">
<polygon fill="white" stroke="transparent" points="259,-362 118,-362 118,-242 259,-242 259,-362"/>
<text text-anchor="start" x="127" y="-350" font-family="Helvetica,sans-Serif" font-size="10.00">crewai.utilities.rpm</text>
<text text-anchor="start" x="127" y="-339" font-family="Helvetica,sans-Serif" font-size="10.00">_controller.RPMController</text>
<text text-anchor="start" x="122.5" y="-324" font-family="Helvetica,sans-Serif" font-size="10.00">+</text>
<text text-anchor="start" x="135.5" y="-324" font-family="Helvetica,sans-Serif" font-size="10.00">model_config</text>
<text text-anchor="start" x="122.5" y="-309" font-family="Helvetica,sans-Serif" font-size="10.00">+</text>
<text text-anchor="start" x="135.5" y="-309" font-family="Helvetica,sans-Serif" font-size="10.00">reset_counter()</text>
<text text-anchor="start" x="122.5" y="-294" font-family="Helvetica,sans-Serif" font-size="10.00">+</text>
<text text-anchor="start" x="135.5" y="-294" font-family="Helvetica,sans-Serif" font-size="10.00">check_or_wait()</text>
<text text-anchor="start" x="122.5" y="-279" font-family="Helvetica,sans-Serif" font-size="10.00">+</text>
<text text-anchor="start" x="135.5" y="-279" font-family="Helvetica,sans-Serif" font-size="10.00">stop_rpm_counter()</text>
<text text-anchor="start" x="122.5" y="-264" font-family="Helvetica,sans-Serif" font-size="10.00">#</text>
<text text-anchor="start" x="135.5" y="-264" font-family="Helvetica,sans-Serif" font-size="10.00">_wait_for_next_minute()</text>
<text text-anchor="start" x="122.5" y="-249" font-family="Helvetica,sans-Serif" font-size="10.00">#</text>
<text text-anchor="start" x="135.5" y="-249" font-family="Helvetica,sans-Serif" font-size="10.00">_reset_request_count()</text>
<polygon fill="#666666" stroke="#666666" points="118.5,-334 118.5,-334 259.5,-334 259.5,-334 118.5,-334"/>
<polygon fill="#666666" stroke="#666666" points="118.5,-319 118.5,-319 133.5,-319 133.5,-319 118.5,-319"/>
<polygon fill="#666666" stroke="#666666" points="133.5,-319 133.5,-319 259.5,-319 259.5,-319 133.5,-319"/>
<polygon fill="none" stroke="#666666" points="118,-242 118,-362 259,-362 259,-242 118,-242"/>
</a>
</g>
</g>
<!-- Node2&#45;&gt;Node3 -->
<g id="edge39_Node000003_Node000002" class="edge">
<title>Node2&#45;&gt;Node3</title>
<g id="a_edge39_Node000003_Node000002"><a xlink:title=" ">
<path fill="none" stroke="#63b8ff" d="M64.09,-425.42C82.55,-407.25 106.46,-383.72 128.38,-362.15"/>
<polygon fill="none" stroke="#63b8ff" points="61.21,-423.34 56.53,-432.85 66.12,-428.33 61.21,-423.34"/>
</a>
</g>
</g>
<!-- Node3&#45;&gt;Node1 -->
<g id="edge38_Node000001_Node000003" class="edge">
<title>Node3&#45;&gt;Node1</title>
<g id="a_edge38_Node000001_Node000003"><a xlink:title=" ">
<path fill="none" stroke="#63b8ff" d="M211.27,-241.82C219.09,-227.29 229.08,-212.83 241.5,-202 299.32,-151.58 382.56,-123.64 445.73,-108.71"/>
<polygon fill="none" stroke="#63b8ff" points="445.98,-108.65 450.94,-103.42 457.68,-105.98 452.72,-111.22 445.98,-108.65"/>
</a>
</g>
<text text-anchor="middle" x="285.5" y="-210.5" font-family="Helvetica,sans-Serif" font-size="10.00" fill="grey"> #_rpm_controller</text>
</g>
<!-- Node4 -->
<g id="Node000004" class="node">
<title>Node4</title>
<g id="a_Node000004"><a xlink:title=" ">
<polygon fill="white" stroke="transparent" points="294,-482 255,-482 255,-433 294,-433 294,-482"/>
<text text-anchor="start" x="260.5" y="-469.5" font-family="Helvetica,sans-Serif" font-size="10.00">Union</text>
<text text-anchor="start" x="273" y="-454.5" font-family="Helvetica,sans-Serif" font-size="10.00"> </text>
<text text-anchor="start" x="273" y="-439.5" font-family="Helvetica,sans-Serif" font-size="10.00"> </text>
<polygon fill="#666666" stroke="#666666" points="255.5,-464.5 255.5,-464.5 294.5,-464.5 294.5,-464.5 255.5,-464.5"/>
<polygon fill="#666666" stroke="#666666" points="255.5,-449.5 255.5,-449.5 294.5,-449.5 294.5,-449.5 255.5,-449.5"/>
<polygon fill="none" stroke="#666666" points="255,-433 255,-482 294,-482 294,-433 255,-433"/>
</a>
</g>
</g>
<!-- Node4&#45;&gt;Node1 -->
<g id="edge51_Node000001_Node000004" class="edge">
<title>Node4&#45;&gt;Node1</title>
<g id="a_edge51_Node000001_Node000004"><a xlink:title=" ">
<path fill="none" stroke="#63b8ff" d="M294.15,-437.65C303.38,-427.81 313.79,-415.12 320.5,-402 353.89,-336.75 321.86,-304.29 360.5,-242 382.61,-206.35 416.07,-174.86 447.84,-150.11"/>
<polygon fill="none" stroke="#63b8ff" points="448.08,-149.93 450.43,-143.11 457.62,-142.65 455.28,-149.47 448.08,-149.93"/>
</a>
</g>
<text text-anchor="middle" x="386" y="-299.5" font-family="Helvetica,sans-Serif" font-size="10.00" fill="grey"> +verbose</text>
</g>
<!-- Node4&#45;&gt;Node3 -->
<g id="edge40_Node000003_Node000004" class="edge">
<title>Node4&#45;&gt;Node3</title>
<g id="a_edge40_Node000003_Node000004"><a xlink:title=" ">
<path fill="none" stroke="#63b8ff" d="M268.69,-432.9C264.33,-417.33 257.56,-396.79 248.5,-380 247.14,-377.48 245.7,-374.96 244.2,-372.45"/>
<polygon fill="none" stroke="#63b8ff" points="244.12,-372.34 237.53,-369.42 237.69,-362.21 244.28,-365.13 244.12,-372.34"/>
</a>
</g>
<text text-anchor="middle" x="287.5" y="-388.5" font-family="Helvetica,sans-Serif" font-size="10.00" fill="grey"> +max_rpm</text>
</g>
<!-- Node5 -->
<g id="Node000005" class="node">
<title>Node5</title>
<g id="a_Node000005"><a xlink:href="$classcrewai_1_1utilities_1_1logger_1_1Logger.html" xlink:title=" ">
<polygon fill="white" stroke="transparent" points="465,-495 346,-495 346,-420 465,-420 465,-495"/>
<text text-anchor="start" x="351.5" y="-482.5" font-family="Helvetica,sans-Serif" font-size="10.00">crewai.utilities.logger.</text>
<text text-anchor="start" x="389" y="-471.5" font-family="Helvetica,sans-Serif" font-size="10.00">Logger</text>
<text text-anchor="start" x="357.5" y="-456.5" font-family="Helvetica,sans-Serif" font-size="10.00">+</text>
<text text-anchor="start" x="377.5" y="-456.5" font-family="Helvetica,sans-Serif" font-size="10.00">verbose_level</text>
<text text-anchor="start" x="357.5" y="-441.5" font-family="Helvetica,sans-Serif" font-size="10.00">+</text>
<text text-anchor="start" x="377.5" y="-441.5" font-family="Helvetica,sans-Serif" font-size="10.00">__init__()</text>
<text text-anchor="start" x="357.5" y="-426.5" font-family="Helvetica,sans-Serif" font-size="10.00">+</text>
<text text-anchor="start" x="377.5" y="-426.5" font-family="Helvetica,sans-Serif" font-size="10.00">log()</text>
<polygon fill="#666666" stroke="#666666" points="346.5,-466.5 346.5,-466.5 465.5,-466.5 465.5,-466.5 346.5,-466.5"/>
<polygon fill="#666666" stroke="#666666" points="346.5,-451.5 346.5,-451.5 375.5,-451.5 375.5,-451.5 346.5,-451.5"/>
<polygon fill="#666666" stroke="#666666" points="375.5,-451.5 375.5,-451.5 465.5,-451.5 465.5,-451.5 375.5,-451.5"/>
<polygon fill="none" stroke="#666666" points="346,-420 346,-495 465,-495 465,-420 346,-420"/>
</a>
</g>
</g>
<!-- Node5&#45;&gt;Node1 -->
<g id="edge44_Node000001_Node000005" class="edge">
<title>Node5&#45;&gt;Node1</title>
<g id="a_edge44_Node000001_Node000005"><a xlink:title=" ">
<path fill="none" stroke="#63b8ff" d="M408.06,-419.73C412.02,-376.11 421.72,-301.77 444.5,-242 450.55,-226.12 458.32,-210.05 466.75,-194.63"/>
<polygon fill="none" stroke="#63b8ff" points="466.81,-194.54 466.26,-187.35 472.69,-184.08 473.24,-191.27 466.81,-194.54"/>
</a>
</g>
<text text-anchor="middle" x="468.5" y="-299.5" font-family="Helvetica,sans-Serif" font-size="10.00" fill="grey"> #_logger</text>
</g>
<!-- Node5&#45;&gt;Node3 -->
<g id="edge41_Node000003_Node000005" class="edge">
<title>Node5&#45;&gt;Node3</title>
<g id="a_edge41_Node000003_Node000005"><a xlink:title=" ">
<path fill="none" stroke="#63b8ff" d="M367.99,-419.72C353.67,-406.51 336.86,-391.94 320.5,-380 304.62,-368.41 286.87,-357.07 269.66,-346.82"/>
<polygon fill="none" stroke="#63b8ff" points="269.39,-346.66 262.19,-347.07 259.04,-340.58 266.24,-340.17 269.39,-346.66"/>
</a>
</g>
<text text-anchor="middle" x="370" y="-388.5" font-family="Helvetica,sans-Serif" font-size="10.00" fill="grey"> +logger</text>
</g>
<!-- Node6 -->
<g id="Node000006" class="node">
<title>Node6</title>
<g id="a_Node000006"><a xlink:title=" ">
<polygon fill="white" stroke="transparent" points="183,-482 160,-482 160,-433 183,-433 183,-482"/>
<text text-anchor="start" x="165.5" y="-469.5" font-family="Helvetica,sans-Serif" font-size="10.00">int</text>
<text text-anchor="start" x="170" y="-454.5" font-family="Helvetica,sans-Serif" font-size="10.00"> </text>
<text text-anchor="start" x="170" y="-439.5" font-family="Helvetica,sans-Serif" font-size="10.00"> </text>
<polygon fill="#666666" stroke="#666666" points="160.5,-464.5 160.5,-464.5 183.5,-464.5 183.5,-464.5 160.5,-464.5"/>
<polygon fill="#666666" stroke="#666666" points="160.5,-449.5 160.5,-449.5 183.5,-449.5 183.5,-449.5 160.5,-449.5"/>
<polygon fill="none" stroke="#666666" points="160,-433 160,-482 183,-482 183,-433 160,-433"/>
</a>
</g>
</g>
<!-- Node6&#45;&gt;Node3 -->
<g id="edge42_Node000003_Node000006" class="edge">
<title>Node6&#45;&gt;Node3</title>
<g id="a_edge42_Node000003_Node000006"><a xlink:title=" ">
<path fill="none" stroke="#63b8ff" d="M170.65,-432.99C170.38,-417.82 170.56,-397.69 172.5,-380 172.71,-378.08 172.94,-376.15 173.2,-374.19"/>
<polygon fill="none" stroke="#63b8ff" points="173.24,-373.96 170.18,-367.43 175.03,-362.09 178.09,-368.62 173.24,-373.96"/>
</a>
</g>
<text text-anchor="middle" x="210.5" y="-388.5" font-family="Helvetica,sans-Serif" font-size="10.00" fill="grey"> #_current_rpm</text>
</g>
<!-- Node7 -->
<g id="Node000007" class="node">
<title>Node7</title>
<g id="a_Node000007"><a xlink:title=" ">
<polygon fill="white" stroke="transparent" points="140,-482 83,-482 83,-433 140,-433 140,-482"/>
<text text-anchor="start" x="88.5" y="-469.5" font-family="Helvetica,sans-Serif" font-size="10.00">threading</text>
<text text-anchor="start" x="110" y="-454.5" font-family="Helvetica,sans-Serif" font-size="10.00"> </text>
<text text-anchor="start" x="110" y="-439.5" font-family="Helvetica,sans-Serif" font-size="10.00"> </text>
<polygon fill="#666666" stroke="#666666" points="83.5,-464.5 83.5,-464.5 140.5,-464.5 140.5,-464.5 83.5,-464.5"/>
<polygon fill="#666666" stroke="#666666" points="83.5,-449.5 83.5,-449.5 140.5,-449.5 140.5,-449.5 83.5,-449.5"/>
<polygon fill="none" stroke="#666666" points="83,-433 83,-482 140,-482 140,-433 83,-433"/>
</a>
</g>
</g>
<!-- Node7&#45;&gt;Node3 -->
<g id="edge43_Node000003_Node000007" class="edge">
<title>Node7&#45;&gt;Node3</title>
<g id="a_edge43_Node000003_Node000007"><a xlink:title=" ">
<path fill="none" stroke="#63b8ff" d="M113.59,-432.85C115.65,-417.26 119.67,-396.71 127.5,-380 128.65,-377.55 129.88,-375.11 131.2,-372.69"/>
<polygon fill="none" stroke="#63b8ff" points="131.29,-372.53 130.9,-365.33 137.4,-362.2 137.79,-369.4 131.29,-372.53"/>
</a>
</g>
<text text-anchor="middle" x="147.5" y="-394" font-family="Helvetica,sans-Serif" font-size="10.00" fill="grey"> #_lock</text>
<text text-anchor="middle" x="147.5" y="-383" font-family="Helvetica,sans-Serif" font-size="10.00" fill="grey">#_timer</text>
</g>
<!-- Node8 -->
<g id="Node000008" class="node">
<title>Node8</title>
<g id="a_Node000008"><a xlink:title=" ">
<polygon fill="white" stroke="transparent" points="564,-326.5 501,-326.5 501,-277.5 564,-277.5 564,-326.5"/>
<text text-anchor="start" x="506.5" y="-314" font-family="Helvetica,sans-Serif" font-size="10.00">InstanceOf</text>
<text text-anchor="start" x="531" y="-299" font-family="Helvetica,sans-Serif" font-size="10.00"> </text>
<text text-anchor="start" x="531" y="-284" font-family="Helvetica,sans-Serif" font-size="10.00"> </text>
<polygon fill="#666666" stroke="#666666" points="501.5,-309 501.5,-309 564.5,-309 564.5,-309 501.5,-309"/>
<polygon fill="#666666" stroke="#666666" points="501.5,-294 501.5,-294 564.5,-294 564.5,-294 501.5,-294"/>
<polygon fill="none" stroke="#666666" points="501,-277.5 501,-326.5 564,-326.5 564,-277.5 501,-277.5"/>
</a>
</g>
</g>
<!-- Node8&#45;&gt;Node1 -->
<g id="edge45_Node000001_Node000008" class="edge">
<title>Node8&#45;&gt;Node1</title>
<g id="a_edge45_Node000001_Node000008"><a xlink:title=" ">
<path fill="none" stroke="#63b8ff" d="M511.44,-277.24C500.17,-262.9 487.42,-243.65 481.5,-224 478.68,-214.64 479.27,-211.52 481.5,-202 482,-199.86 482.55,-197.71 483.15,-195.56"/>
<polygon fill="none" stroke="#63b8ff" points="483.16,-195.52 481.12,-188.6 486.72,-184.05 488.76,-190.97 483.16,-195.52"/>
</a>
</g>
<text text-anchor="middle" x="525.5" y="-210.5" font-family="Helvetica,sans-Serif" font-size="10.00" fill="grey"> #_cache_handler</text>
</g>
<!-- Node9 -->
<g id="Node000009" class="node">
<title>Node9</title>
<g id="a_Node000009"><a xlink:title=" ">
<polygon fill="white" stroke="transparent" points="610.5,-326.5 582.5,-326.5 582.5,-277.5 610.5,-277.5 610.5,-326.5"/>
<text text-anchor="start" x="587.5" y="-314" font-family="Helvetica,sans-Serif" font-size="10.00">List</text>
<text text-anchor="start" x="594.5" y="-299" font-family="Helvetica,sans-Serif" font-size="10.00"> </text>
<text text-anchor="start" x="594.5" y="-284" font-family="Helvetica,sans-Serif" font-size="10.00"> </text>
<polygon fill="#666666" stroke="#666666" points="582.5,-309 582.5,-309 610.5,-309 610.5,-309 582.5,-309"/>
<polygon fill="#666666" stroke="#666666" points="582.5,-294 582.5,-294 610.5,-294 610.5,-294 582.5,-294"/>
<polygon fill="none" stroke="#666666" points="582.5,-277.5 582.5,-326.5 610.5,-326.5 610.5,-277.5 582.5,-277.5"/>
</a>
</g>
</g>
<!-- Node9&#45;&gt;Node1 -->
<g id="edge46_Node000001_Node000009" class="edge">
<title>Node9&#45;&gt;Node1</title>
<g id="a_edge46_Node000001_Node000009"><a xlink:title=" ">
<path fill="none" stroke="#63b8ff" d="M590.3,-277.33C584.98,-257.23 577,-227.65 569.5,-202 568.92,-200.01 568.32,-197.99 567.73,-195.96"/>
<polygon fill="none" stroke="#63b8ff" points="567.65,-195.72 562.1,-191.11 564.22,-184.22 569.77,-188.82 567.65,-195.72"/>
</a>
</g>
<text text-anchor="middle" x="598" y="-216" font-family="Helvetica,sans-Serif" font-size="10.00" fill="grey"> +agents</text>
<text text-anchor="middle" x="598" y="-205" font-family="Helvetica,sans-Serif" font-size="10.00" fill="grey">+tasks</text>
</g>
<!-- Node10 -->
<g id="Node000010" class="node">
<title>Node10</title>
<g id="a_Node000010"><a xlink:href="$classcrewai_1_1process_1_1Process.html" xlink:title=" ">
<polygon fill="white" stroke="transparent" points="850.5,-326.5 726.5,-326.5 726.5,-277.5 850.5,-277.5 850.5,-326.5"/>
<text text-anchor="start" x="731.5" y="-314" font-family="Helvetica,sans-Serif" font-size="10.00">crewai.process.Process</text>
<text text-anchor="start" x="786.5" y="-299" font-family="Helvetica,sans-Serif" font-size="10.00"> </text>
<text text-anchor="start" x="786.5" y="-284" font-family="Helvetica,sans-Serif" font-size="10.00"> </text>
<polygon fill="#666666" stroke="#666666" points="726.5,-309 726.5,-309 850.5,-309 850.5,-309 726.5,-309"/>
<polygon fill="#666666" stroke="#666666" points="726.5,-294 726.5,-294 850.5,-294 850.5,-294 726.5,-294"/>
<polygon fill="none" stroke="#666666" points="726.5,-277.5 726.5,-326.5 850.5,-326.5 850.5,-277.5 726.5,-277.5"/>
</a>
</g>
</g>
<!-- Node10&#45;&gt;Node1 -->
<g id="edge47_Node000001_Node000010" class="edge">
<title>Node10&#45;&gt;Node1</title>
<g id="a_edge47_Node000001_Node000010"><a xlink:title=" ">
<path fill="none" stroke="#63b8ff" d="M759.48,-277.14C726.26,-249.83 670.28,-203.81 622.6,-164.61"/>
<polygon fill="none" stroke="#63b8ff" points="622.46,-164.49 615.28,-163.77 613.19,-156.87 620.36,-157.59 622.46,-164.49"/>
</a>
</g>
<text text-anchor="middle" x="716" y="-210.5" font-family="Helvetica,sans-Serif" font-size="10.00" fill="grey"> +process</text>
</g>
<!-- Node11 -->
<g id="Node000011" class="node">
<title>Node11</title>
<g id="a_Node000011"><a xlink:title=" ">
<polygon fill="white" stroke="transparent" points="706,-482 683,-482 683,-433 706,-433 706,-482"/>
<text text-anchor="start" x="688.5" y="-469.5" font-family="Helvetica,sans-Serif" font-size="10.00">str</text>
<text text-anchor="start" x="693" y="-454.5" font-family="Helvetica,sans-Serif" font-size="10.00"> </text>
<text text-anchor="start" x="693" y="-439.5" font-family="Helvetica,sans-Serif" font-size="10.00"> </text>
<polygon fill="#666666" stroke="#666666" points="683.5,-464.5 683.5,-464.5 706.5,-464.5 706.5,-464.5 683.5,-464.5"/>
<polygon fill="#666666" stroke="#666666" points="683.5,-449.5 683.5,-449.5 706.5,-449.5 706.5,-449.5 683.5,-449.5"/>
<polygon fill="none" stroke="#666666" points="683,-433 683,-482 706,-482 706,-433 683,-433"/>
</a>
</g>
</g>
<!-- Node11&#45;&gt;Node1 -->
<g id="edge54_Node000001_Node000011" class="edge">
<title>Node11&#45;&gt;Node1</title>
<g id="a_edge54_Node000001_Node000011"><a xlink:title=" ">
<path fill="none" stroke="#63b8ff" d="M685,-432.69C677.67,-413.74 667.62,-386.44 660.5,-362 640.12,-292.02 656.4,-267.54 624.5,-202 622.87,-198.65 621.12,-195.31 619.26,-191.99"/>
<polygon fill="none" stroke="#63b8ff" points="619.15,-191.81 612.65,-188.69 613.02,-181.49 619.52,-184.6 619.15,-191.81"/>
</a>
</g>
<text text-anchor="middle" x="689" y="-299.5" font-family="Helvetica,sans-Serif" font-size="10.00" fill="grey"> +language</text>
</g>
<!-- Node11&#45;&gt;Node10 -->
<g id="edge48_Node000010_Node000011" class="edge">
<title>Node11&#45;&gt;Node10</title>
<g id="a_edge48_Node000010_Node000011"><a xlink:title=" ">
<path fill="none" stroke="#63b8ff" d="M715.22,-445.53C731.08,-436.08 752.25,-420.96 764.5,-402 779.28,-379.12 784.96,-347.94 787.14,-326.73"/>
<polygon fill="none" stroke="#63b8ff" points="713.13,-442.7 706.16,-450.68 716.58,-448.78 713.13,-442.7"/>
</a>
</g>
</g>
<!-- Node11&#45;&gt;Node10 -->
<g id="edge50_Node000010_Node000011" class="edge">
<title>Node11&#45;&gt;Node10</title>
<g id="a_edge50_Node000010_Node000011"><a xlink:title=" ">
<path fill="none" stroke="#63b8ff" d="M688.02,-432.91C685,-417.15 683.58,-396.4 691.5,-380 692.33,-378.28 722.29,-354.61 748.7,-333.97"/>
<polygon fill="none" stroke="#63b8ff" points="748.74,-333.93 751.01,-327.09 758.2,-326.55 755.94,-333.39 748.74,-333.93"/>
</a>
</g>
<text text-anchor="middle" x="726" y="-394" font-family="Helvetica,sans-Serif" font-size="10.00" fill="grey"> +hierarchical</text>
<text text-anchor="middle" x="726" y="-383" font-family="Helvetica,sans-Serif" font-size="10.00" fill="grey">+sequential</text>
</g>
<!-- Node12 -->
<g id="Node000012" class="node">
<title>Node12</title>
<g id="a_Node000012"><a xlink:title=" ">
<polygon fill="white" stroke="transparent" points="822.5,-482 784.5,-482 784.5,-433 822.5,-433 822.5,-482"/>
<text text-anchor="start" x="789.5" y="-469.5" font-family="Helvetica,sans-Serif" font-size="10.00">Enum</text>
<text text-anchor="start" x="801.5" y="-454.5" font-family="Helvetica,sans-Serif" font-size="10.00"> </text>
<text text-anchor="start" x="801.5" y="-439.5" font-family="Helvetica,sans-Serif" font-size="10.00"> </text>
<polygon fill="#666666" stroke="#666666" points="784.5,-464.5 784.5,-464.5 822.5,-464.5 822.5,-464.5 784.5,-464.5"/>
<polygon fill="#666666" stroke="#666666" points="784.5,-449.5 784.5,-449.5 822.5,-449.5 822.5,-449.5 784.5,-449.5"/>
<polygon fill="none" stroke="#666666" points="784.5,-433 784.5,-482 822.5,-482 822.5,-433 784.5,-433"/>
</a>
</g>
</g>
<!-- Node12&#45;&gt;Node10 -->
<g id="edge49_Node000010_Node000012" class="edge">
<title>Node12&#45;&gt;Node10</title>
<g id="a_edge49_Node000010_Node000012"><a xlink:title=" ">
<path fill="none" stroke="#63b8ff" d="M800.2,-422.73C797.36,-393.64 793.33,-352.38 790.81,-326.67"/>
<polygon fill="none" stroke="#63b8ff" points="796.73,-423.24 801.19,-432.85 803.7,-422.56 796.73,-423.24"/>
</a>
</g>
</g>
<!-- Node13 -->
<g id="Node000013" class="node">
<title>Node13</title>
<g id="a_Node000013"><a xlink:title=" ">
<polygon fill="white" stroke="transparent" points="920.5,-326.5 868.5,-326.5 868.5,-277.5 920.5,-277.5 920.5,-326.5"/>
<text text-anchor="start" x="873.5" y="-314" font-family="Helvetica,sans-Serif" font-size="10.00">Optional</text>
<text text-anchor="start" x="892.5" y="-299" font-family="Helvetica,sans-Serif" font-size="10.00"> </text>
<text text-anchor="start" x="892.5" y="-284" font-family="Helvetica,sans-Serif" font-size="10.00"> </text>
<polygon fill="#666666" stroke="#666666" points="868.5,-309 868.5,-309 920.5,-309 920.5,-309 868.5,-309"/>
<polygon fill="#666666" stroke="#666666" points="868.5,-294 868.5,-294 920.5,-294 920.5,-294 868.5,-294"/>
<polygon fill="none" stroke="#666666" points="868.5,-277.5 868.5,-326.5 920.5,-326.5 920.5,-277.5 868.5,-277.5"/>
</a>
</g>
</g>
<!-- Node13&#45;&gt;Node1 -->
<g id="edge52_Node000001_Node000013" class="edge">
<title>Node13&#45;&gt;Node1</title>
<g id="a_edge52_Node000001_Node000013"><a xlink:title=" ">
<path fill="none" stroke="#63b8ff" d="M884.64,-277.42C878.75,-265.58 870.3,-251.72 859.5,-242 791.74,-180.97 694.69,-140.84 624.49,-117.77"/>
<polygon fill="none" stroke="#63b8ff" points="624.44,-117.75 617.51,-119.72 613.02,-114.07 619.96,-112.1 624.44,-117.75"/>
</a>
</g>
<text text-anchor="middle" x="864" y="-216" font-family="Helvetica,sans-Serif" font-size="10.00" fill="grey"> +config</text>
<text text-anchor="middle" x="864" y="-205" font-family="Helvetica,sans-Serif" font-size="10.00" fill="grey">+max_rpm</text>
</g>
<!-- Node14 -->
<g id="Node000014" class="node">
<title>Node14</title>
<g id="a_Node000014"><a xlink:title=" ">
<polygon fill="white" stroke="transparent" points="986.5,-326.5 944.5,-326.5 944.5,-277.5 986.5,-277.5 986.5,-326.5"/>
<text text-anchor="start" x="949.5" y="-314" font-family="Helvetica,sans-Serif" font-size="10.00">UUID4</text>
<text text-anchor="start" x="963.5" y="-299" font-family="Helvetica,sans-Serif" font-size="10.00"> </text>
<text text-anchor="start" x="963.5" y="-284" font-family="Helvetica,sans-Serif" font-size="10.00"> </text>
<polygon fill="#666666" stroke="#666666" points="944.5,-309 944.5,-309 986.5,-309 986.5,-309 944.5,-309"/>
<polygon fill="#666666" stroke="#666666" points="944.5,-294 944.5,-294 986.5,-294 986.5,-294 944.5,-294"/>
<polygon fill="none" stroke="#666666" points="944.5,-277.5 944.5,-326.5 986.5,-326.5 986.5,-277.5 944.5,-277.5"/>
</a>
</g>
</g>
<!-- Node14&#45;&gt;Node1 -->
<g id="edge53_Node000001_Node000014" class="edge">
<title>Node14&#45;&gt;Node1</title>
<g id="a_edge53_Node000001_Node000014"><a xlink:title=" ">
<path fill="none" stroke="#63b8ff" d="M955.24,-277.46C943.97,-254.52 923.67,-220.46 895.5,-202 812.81,-147.81 702.01,-119.59 625.27,-105.58"/>
<polygon fill="none" stroke="#63b8ff" points="625.08,-105.54 618.47,-108.44 613.26,-103.45 619.87,-100.56 625.08,-105.54"/>
</a>
</g>
<text text-anchor="middle" x="930" y="-210.5" font-family="Helvetica,sans-Serif" font-size="10.00" fill="grey"> +id</text>
</g>
</g>
</svg>
